<?xml version="1.0" standalone="no"?>
<!DOCTYPE svg PUBLIC "-//W3C//DTD SVG 1.1//EN" "http://www.w3.org/Graphics/SVG/1.1/DTD/svg11.dtd" >
<svg xmlns="http://www.w3.org/2000/svg" xmlns:xlink="http://www.w3.org/1999/xlink" version="1.1">
<metadata>
Created by FontForge 20200427 at Tue Oct 10 08:36:31 2017
 By www
Copyright (c) 2012 by . All rights reserved.
</metadata>
<defs>
<font id="ALSArtemiusSans-Regular" horiz-adv-x="526" >
  <font-face 
    font-family="ALS Artemius Sans"
    font-weight="400"
    font-stretch="normal"
    units-per-em="1000"
    panose-1="2 0 0 0 0 0 0 0 0 0"
    ascent="750"
    descent="-250"
    x-height="532"
    cap-height="738"
    bbox="-70 -301 1345 981"
    underline-thickness="50"
    underline-position="-150"
    unicode-range="U+0020-FB06"
  />
<missing-glyph horiz-adv-x="250" 
 />
    <glyph glyph-name="fi" unicode="fi" horiz-adv-x="585" 
d="M363 806q71 0 121 -34l-30 -54q-41 25 -93 25q-79 0 -122 -55.5t-43 -161.5h308v-526h-95v480l-213 -21v-459h-95v459h-71v67h71q0 121 63.5 200.5t198.5 79.5z" />
    <glyph glyph-name="fl" unicode="fl" horiz-adv-x="613" 
d="M196 465v-465h-95v465h-71v67h71q0 75 21 134.5t72.5 99.5t128.5 40q49 0 114 -25h95v-781h-95v721q-47 22 -101 22q-43 0 -72.5 -18t-43.5 -50.5t-19 -66t-5 -76.5h168v-42z" />
    <glyph glyph-name="ffi" unicode="ffi" horiz-adv-x="882" 
d="M660 806q71 0 121 -34l-30 -54q-41 25 -93 25q-79 0 -122 -55.5t-43 -161.5h308v-526h-95v480l-213 -21v-459h-95v480l-202 -21v-459h-95v459h-71v67h71q0 118 57 193t168 75q79 0 164 -40q65 52 170 52zM355 737q-82 0 -120.5 -57.5t-38.5 -153.5h202q0 116 53 187
q-45 24 -96 24z" />
    <glyph glyph-name="s_t" unicode="st" horiz-adv-x="855" 
d="M330 130q0 34 -28 58.5t-68 41.5t-79.5 36t-67.5 52.5t-28 80.5q0 73 52.5 110t128.5 37q35 0 64 -7q-2 13 -2 39q0 83 47 138.5t137 55.5q54 0 102 -27.5t66 -73.5v-139h174v-42l-174 -25v-356q0 -56 43 -56q42 0 88 32l21 -46q-58 -53 -140 -53q-48 0 -77.5 37
t-29.5 89v353h-71v67h71l31 133q-14 25 -42 39t-57 14q-64 0 -95.5 -40t-31.5 -102q0 -30 6 -57q12 -5 36 -17l-22 -61q-66 39 -139 39q-38 0 -65.5 -19t-27.5 -55q0 -28 27.5 -48t67.5 -36t79.5 -35.5t67 -56.5t27.5 -89q0 -73 -52 -114t-132 -41q-101 0 -187 64l26 55
q83 -51 157 -51q45 0 71 19.5t26 56.5z" />
    <glyph glyph-name=".notdef" horiz-adv-x="250" 
 />
    <glyph glyph-name=".null" horiz-adv-x="0" 
 />
    <glyph glyph-name="nonmarkingreturn" horiz-adv-x="333" 
 />
    <glyph glyph-name="space" unicode=" " horiz-adv-x="250" 
 />
    <glyph glyph-name="exclam" unicode="!" horiz-adv-x="232" 
d="M169 755l-16 -530h-73l-18 530h107zM187 58q0 -28 -21 -47.5t-50 -19.5t-50 19.5t-21 47.5t21 48t50 20t50 -20t21 -48z" />
    <glyph glyph-name="quotedbl" unicode="&#x22;" horiz-adv-x="383" 
d="M160 703q0 -22 -38 -177h-34q-38 167 -38 177q0 21 14 36.5t41 15.5t41 -15.5t14 -36.5zM333 703q0 -22 -38 -177h-34q-38 167 -38 177q0 21 14 36.5t41 15.5t41 -15.5t14 -36.5z" />
    <glyph glyph-name="numbersign" unicode="#" horiz-adv-x="718" 
d="M682 498l-11 -57h-166l-28 -146h162l-11 -57h-163l-32 -171h-60l33 171h-145l-33 -171h-60l33 171h-165l11 57h165l28 146h-161l11 57h162l32 172h60l-33 -172h145l33 172h60l-33 -172h166zM445 441h-145l-28 -146h145z" />
    <glyph glyph-name="dollar" unicode="$" 
d="M241 -93v76q-116 6 -203 90l35 59q88 -70 168 -75v287q-37 17 -56.5 27.5t-49.5 31t-45.5 39t-27.5 47.5t-12 62q0 88 54 140.5t137 61.5v77h48v-76q96 -6 183 -70l-39 -62q-78 52 -144 58v-246q31 -15 48.5 -24t44.5 -25.5t42.5 -33t32 -39t24 -50.5t7.5 -61
q0 -86 -54 -146t-145 -70v-78h-48zM395 196q0 41 -27.5 69t-78.5 55v-259q47 10 76.5 45.5t29.5 89.5zM145 569q0 -37 24.5 -62t71.5 -49v219q-41 -8 -68.5 -35.5t-27.5 -72.5z" />
    <glyph glyph-name="percent" unicode="%" horiz-adv-x="811" 
d="M381 578q0 -74 -43.5 -125t-122.5 -51t-123 51.5t-44 124.5q0 74 44 125.5t123 51.5t122.5 -51.5t43.5 -125.5zM746 738l-617 -738h-78l616 738h79zM763 162q0 -74 -43.5 -125t-122.5 -51t-122.5 51t-43.5 125t43.5 125.5t122.5 51.5t122.5 -51.5t43.5 -125.5zM304 578
q0 52 -22 87.5t-67 35.5t-67.5 -35.5t-22.5 -87.5t22.5 -87.5t67.5 -35.5t67 35.5t22 87.5zM687 162q0 52 -22.5 87.5t-67.5 35.5t-67.5 -35.5t-22.5 -87.5t22.5 -87.5t67.5 -35.5t67.5 35.5t22.5 87.5z" />
    <glyph glyph-name="ampersand" unicode="&#x26;" horiz-adv-x="690" 
d="M655 0h-114l-63 80q-87 -97 -197 -97q-106 0 -174.5 52.5t-68.5 152.5q0 78 47.5 137t121.5 90q-37 51 -54.5 88t-17.5 79q0 71 55 122.5t143 51.5q107 0 195 -77l-39 -53q-74 60 -142 60q-48 0 -81.5 -30t-33.5 -75q0 -31 15 -58.5t44 -64.5l190 -243q50 87 69 198
l58 -12q-23 -130 -78 -244q13 -16 39 -48.5t47.5 -59.5t38.5 -49zM432 137l-178 223q-59 -35 -89.5 -74t-30.5 -98q0 -64 43 -97.5t110 -33.5q82 0 145 80z" />
    <glyph glyph-name="quotesingle" unicode="'" horiz-adv-x="210" 
d="M160 703q0 -22 -38 -177h-34q-38 167 -38 177q0 21 14 36.5t41 15.5t41 -15.5t14 -36.5z" />
    <glyph glyph-name="parenleft" unicode="(" horiz-adv-x="359" 
d="M309 -182l-37 -18q-222 163 -222 476q0 315 222 477l37 -19q-92 -83 -126.5 -197t-34.5 -261q0 -148 34 -261.5t127 -196.5z" />
    <glyph glyph-name="parenright" unicode=")" horiz-adv-x="359" 
d="M87 -200l-37 18q93 83 127 196.5t34 261.5q0 147 -34.5 261t-126.5 197l37 19q222 -162 222 -477q0 -313 -222 -476z" />
    <glyph glyph-name="asterisk" unicode="*" horiz-adv-x="457" 
d="M413 494l-32 -56l-128 86l-2 -1l10 -154h-64l10 153l-2 2l-129 -87l-32 57l139 67l-1 4l-138 68l32 55l128 -86l2 2l-10 154h64l-10 -154l2 -1l129 86l32 -55l-139 -68l1 -4z" />
    <glyph glyph-name="plus" unicode="+" horiz-adv-x="684" 
d="M644 300h-269v-268h-66v268h-269v65h269v268h66v-268h269v-65z" />
    <glyph glyph-name="comma" unicode="," horiz-adv-x="218" 
d="M176 58q0 -12 -12.5 -42.5t-26 -58.5t-31.5 -62.5t-21 -40.5h-67l68 142q-23 2 -37 20t-14 42q0 29 20 48.5t50 19.5q29 0 50 -20t21 -48z" />
    <glyph glyph-name="hyphen" unicode="-" horiz-adv-x="393" 
d="M353 246h-313v69h313v-69z" />
    <glyph glyph-name="period" unicode="." horiz-adv-x="225" 
d="M183 58q0 -28 -20.5 -47.5t-49.5 -19.5t-50 19.5t-21 47.5t21 48t50 20t49.5 -20t20.5 -48z" />
    <glyph glyph-name="slash" unicode="/" horiz-adv-x="474" 
d="M466 747l-398 -955l-60 18l398 954z" />
    <glyph glyph-name="zero" unicode="0" horiz-adv-x="610" 
d="M570 369q0 -54 -7.5 -105t-26.5 -103t-48 -90.5t-76 -63t-107 -24.5t-107 24.5t-76 63t-48 90.5t-26.5 103t-7.5 105t7.5 105t26.5 103t48 90.5t76 63t107 24.5t107 -24.5t76 -63t48 -90.5t26.5 -103t7.5 -105zM472 369q0 48 -7 95t-23.5 99t-51.5 84.5t-85 32.5
t-85 -32.5t-51.5 -84.5t-23.5 -99t-7 -95t7 -95.5t23.5 -99.5t51.5 -84.5t85 -32.5t85 32.5t51.5 84.5t23.5 99.5t7 95.5z" />
    <glyph glyph-name="one" unicode="1" horiz-adv-x="610" 
d="M111 568l-18 42l216 128h63v-665l133 -24v-49h-365v49l133 24v555l-41 -15l-80 -30z" />
    <glyph glyph-name="two" unicode="2" horiz-adv-x="576" 
d="M60 72q12 13 61 62t75 76t68.5 78t65.5 89t41 85.5t18 89.5q0 58 -36.5 89t-85.5 31q-75 0 -154 -64l-45 55q38 43 96.5 67.5t116.5 24.5q89 0 150.5 -52t61.5 -151q0 -49 -22.5 -105t-53 -101.5t-78 -99t-80 -85.5t-76.5 -73h320v-88h-443v72z" />
    <glyph glyph-name="three" unicode="3" horiz-adv-x="615" 
d="M83 738h412l13 -62l-242 -237q118 0 183.5 -59.5t65.5 -148.5q0 -112 -79 -180t-194 -68q-109 0 -187 58l31 60q79 -48 150 -48q83 0 132 46t49 125q0 65 -47.5 103t-111.5 38q-34 0 -81 -9l-25 63l231 236h-300v83z" />
    <glyph glyph-name="four" unicode="4" horiz-adv-x="591" 
d="M558 259l-125 -12v-247h-98v244l-286 -15l-25 46l327 477l82 -14v-429h125v-50zM335 309v302l-206 -302h206z" />
    <glyph glyph-name="five" unicode="5" horiz-adv-x="532" 
d="M205 649l-32 -183q33 5 60 5q111 0 181.5 -61t70.5 -164q0 -122 -78.5 -192t-188.5 -70q-98 0 -174 52l27 61q74 -39 140 -39q68 0 121 48t53 131q0 82 -47.5 120.5t-121.5 38.5q-63 0 -122 -24q-15 23 -16 23l55 343h342v-89h-270z" />
    <glyph glyph-name="six" unicode="6" horiz-adv-x="610" 
d="M154 294q0 -40 7 -78t23 -75.5t48 -60.5t76 -23q65 0 105.5 52t40.5 125q0 81 -42.5 124t-105.5 43q-86 0 -151 -71q-1 -12 -1 -36zM554 236q0 -104 -69 -177.5t-178 -75.5h-1q-250 0 -250 340q0 79 18.5 154.5t54 138.5t94 101.5t130.5 38.5q100 0 167 -52l-37 -72
q-67 49 -133 49q-47 0 -82.5 -23.5t-57 -65t-33 -86t-17.5 -98.5q70 63 163 63q94 0 162.5 -63.5t68.5 -171.5z" />
    <glyph glyph-name="seven" unicode="7" horiz-adv-x="594" 
d="M83 646v92h412l15 -35l-287 -723l-95 21l276 645h-321z" />
    <glyph glyph-name="eight" unicode="8" horiz-adv-x="610" 
d="M548 183q0 -91 -72.5 -145.5t-171.5 -54.5q-102 0 -171 53t-69 147q0 67 47.5 119t112.5 82q-67 35 -103.5 78t-36.5 112q0 83 64.5 132t155.5 49q94 0 159 -47.5t65 -133.5q0 -69 -37.5 -110.5t-105.5 -75.5q163 -79 163 -205zM441 573q0 49 -41.5 79t-95.5 30
q-56 0 -94.5 -28.5t-38.5 -80.5q0 -83 143 -148q31 16 48 26.5t38.5 28.5t31 41t9.5 52zM461 185q0 29 -14.5 54t-44.5 46.5t-49 32t-55 28.5q-32 -15 -53 -28t-45 -32.5t-36 -45t-12 -55.5q0 -59 44.5 -94t107.5 -35q64 0 110.5 35t46.5 94z" />
    <glyph glyph-name="nine" unicode="9" horiz-adv-x="598" 
d="M306 755q236 -5 236 -306q0 -87 -15.5 -167t-46.5 -148.5t-86 -109.5t-126 -41q-109 0 -177 56l29 58q62 -40 138 -40q159 0 177 256q-24 -23 -67.5 -38t-76.5 -15q-105 0 -169 66.5t-66 175.5q3 122 71.5 187.5t178.5 65.5zM301 334q40 0 79 18t63 48q4 40 4 73
q0 210 -144 210q-66 0 -106 -48t-40 -131q0 -70 37.5 -120t106.5 -50z" />
    <glyph glyph-name="colon" unicode=":" horiz-adv-x="225" 
d="M183 463q0 -28 -20.5 -48t-49.5 -20t-50 20t-21 48t21 47.5t50 19.5t49.5 -19.5t20.5 -47.5zM183 58q0 -28 -20.5 -47.5t-49.5 -19.5t-50 19.5t-21 47.5t21 48t50 20t49.5 -20t20.5 -48z" />
    <glyph glyph-name="semicolon" unicode=";" horiz-adv-x="236" 
d="M194 463q0 -28 -21 -48t-50 -20t-50 20t-21 48t21 47.5t50 19.5t50 -19.5t21 -47.5zM194 58q0 -12 -12.5 -42.5t-26 -58.5t-31.5 -62.5t-21 -40.5h-67l68 142q-23 2 -37 20t-14 42q0 29 20 48.5t50 19.5q29 0 50 -20t21 -48z" />
    <glyph glyph-name="less" unicode="&#x3c;" horiz-adv-x="552" 
d="M502 79l-37 -53l-445 307l445 307l37 -53l-368 -254z" />
    <glyph glyph-name="equal" unicode="=" horiz-adv-x="700" 
d="M652 386h-604v65h604v-65zM652 217h-604v65h604v-65z" />
    <glyph glyph-name="greater" unicode="&#x3e;" horiz-adv-x="552" 
d="M87 26l-37 53l368 254l-368 254l37 53l445 -307z" />
    <glyph glyph-name="question" unicode="?" horiz-adv-x="426" 
d="M396 579q0 -131 -174 -217l-9 -137h-66l-10 170q39 21 59 34t48 36.5t40.5 51.5t12.5 62q0 43 -30 74t-75 31q-73 0 -139 -46l-30 55q78 62 181 62q83 0 137.5 -49t54.5 -127zM251 58q0 -28 -21 -47.5t-50 -19.5t-50 19.5t-21 47.5t21 48t50 20t50 -20t21 -48z" />
    <glyph glyph-name="at" unicode="@" horiz-adv-x="841" 
d="M566 97q-3 -10 -3 -20q0 -21 13.5 -33.5t37.5 -12.5q49 0 87.5 59.5t38.5 158.5q0 125 -73.5 200t-197.5 75q-148 0 -253 -105.5t-105 -278.5q0 -142 83 -223.5t216 -81.5q98 0 174 39q3 -4 5 -14l13 -34q-91 -42 -206 -42q-147 0 -250 93.5t-103 250.5
q0 197 115.5 322.5t315.5 127.5q150 0 241 -89.5t91 -229.5q0 -130 -59.5 -206t-150.5 -76q-32 0 -58 17.5t-37 44.5q-60 -62 -133 -62q-55 0 -97 42t-42 116q0 104 70 181.5t155 77.5q65 0 117 -47l30 35h47q0 -1 -9 -32.5t-25 -87t-25 -86.5zM377 34q40 0 73.5 27t54.5 67
l47 160q-37 51 -89 51q-59 0 -108.5 -59t-51.5 -148q0 -42 20.5 -70t53.5 -28z" />
    <glyph glyph-name="A" unicode="A" horiz-adv-x="561" 
d="M561 0h-102l-69 218h-243l-69 -218h-78q32 104 113.5 363t121.5 389h90q37 -119 118 -376t118 -376zM369 283l-100 327l-101 -327h201z" />
    <glyph glyph-name="B" unicode="B" horiz-adv-x="606" 
d="M566 212q0 -100 -73 -156t-175 -56h-223v738h223q87 0 150.5 -48t63.5 -134q0 -61 -38.5 -104t-99.5 -59l1 -2q74 -13 122.5 -60t48.5 -119zM435 543q0 56 -38 90t-93 34h-112v-244h112q57 0 94 33.5t37 86.5zM468 213q0 66 -46.5 103.5t-114.5 37.5h-115v-283h115
q68 0 114.5 38t46.5 104z" />
    <glyph glyph-name="C" unicode="C" horiz-adv-x="564" 
d="M488 638q-63 43 -134 43q-58 0 -102 -30.5t-67.5 -79.5t-34.5 -102t-11 -107q0 -50 12 -101t35.5 -98t65.5 -76.5t96 -29.5q86 0 163 56l33 -53q-84 -77 -206 -77q-77 0 -136 32t-93.5 86.5t-51.5 120t-17 139.5q0 75 17.5 142.5t52.5 125t96.5 92t141.5 34.5
q98 0 176 -51z" />
    <glyph glyph-name="D" unicode="D" horiz-adv-x="660" 
d="M620 378q0 -75 -19.5 -141.5t-57 -120t-99.5 -85t-140 -31.5h-209v738h209q154 0 235 -100.5t81 -259.5zM522 380q0 73 -21.5 135.5t-73 107t-125.5 44.5h-110v-592h110q56 0 100 29t69 75t38 97.5t13 103.5z" />
    <glyph glyph-name="E" unicode="E" 
d="M511 0h-416v738h416v-75h-319v-239h259v-74h-259v-275h319v-75z" />
    <glyph glyph-name="F" unicode="F" horiz-adv-x="521" 
d="M511 663h-319v-239h268v-74h-268v-350h-97v738h416v-75z" />
    <glyph glyph-name="G" unicode="G" horiz-adv-x="635" 
d="M498 636q-77 45 -145 45q-56 0 -99 -31t-67 -80t-35.5 -102t-11.5 -106t10 -102.5t32.5 -97t66 -76.5t103.5 -29q69 0 127 38v179l-145 18v56h231v-277q-103 -88 -233 -88q-73 0 -130.5 32.5t-91.5 87t-51.5 120.5t-17.5 138q0 59 10.5 114.5t34.5 107t59 89.5t88 60.5
t117 22.5q90 0 180 -51z" />
    <glyph glyph-name="H" unicode="H" horiz-adv-x="709" 
d="M614 0h-97v350h-325v-350h-97v738h97v-314h325v314h97v-738z" />
    <glyph glyph-name="I" unicode="I" horiz-adv-x="288" 
d="M192 0h-97v738h97v-738z" />
    <glyph glyph-name="J" unicode="J" horiz-adv-x="289" 
d="M97 -89v827h97v-814q0 -82 -66 -131.5t-173 -52.5v48q63 2 102.5 32t39.5 91z" />
    <glyph glyph-name="K" unicode="K" horiz-adv-x="604" 
d="M192 738v-318h5l275 314h102l-297 -339l322 -395h-121l-280 350h-6v-350h-97v738h97z" />
    <glyph glyph-name="L" unicode="L" horiz-adv-x="495" 
d="M510 0h-415v738h97v-663h318v-75z" />
    <glyph glyph-name="M" unicode="M" horiz-adv-x="811" 
d="M638 629h-3q-200 -636 -200 -637h-71l-197 637h-3v-629h-79v738h143l185 -579l182 579h131v-738h-88v629z" />
    <glyph glyph-name="N" unicode="N" horiz-adv-x="696" 
d="M601 0h-86l-335 573h-6v-573h-79v738h94l326 -558h6v558h80v-738z" />
    <glyph glyph-name="O" unicode="O" horiz-adv-x="678" 
d="M40 370q0 55 9.5 107.5t32 103.5t56 89t85.5 61.5t116 23.5t116 -23.5t85.5 -61.5t56 -89t32 -103.5t9.5 -107.5t-9.5 -108t-32 -104t-56 -89.5t-85.5 -62t-116 -23.5t-116 23.5t-85.5 62t-56 89.5t-32 104t-9.5 108zM137 370q0 -55 10.5 -106.5t32.5 -99.5t63 -77.5
t96 -29.5t96 29.5t63 77.5t32.5 99.5t10.5 106.5t-10.5 106.5t-32.5 99t-63 76.5t-96 29t-96 -29t-63 -76.5t-32.5 -99t-10.5 -106.5z" />
    <glyph glyph-name="P" unicode="P" horiz-adv-x="561" 
d="M95 738h178q120 0 194 -54t74 -166q0 -101 -68.5 -166t-195.5 -65h-85v-287h-97v738zM262 357q82 0 131 39t49 117q0 77 -42.5 115.5t-141.5 38.5h-66v-310h70z" />
    <glyph glyph-name="Q" unicode="Q" horiz-adv-x="679" 
d="M674 -128l-55 -50q-73 97 -162 134q-33 13 -97.5 23t-79.5 14q-116 27 -178 132t-62 245q0 55 9.5 107.5t32 103.5t56 89t85.5 61.5t116 23.5t116 -23.5t85.5 -61.5t56 -89t32 -103.5t9.5 -107.5q0 -105 -38.5 -201t-112.5 -146q63 -18 114 -64.5t73 -86.5zM137 370
q0 -55 10.5 -106.5t32.5 -99.5t63 -77.5t96 -29.5t96 29.5t63 77.5t32.5 99.5t10.5 106.5t-10.5 106.5t-32.5 99t-63 76.5t-96 29t-96 -29t-63 -76.5t-32.5 -99t-10.5 -106.5z" />
    <glyph glyph-name="R" unicode="R" horiz-adv-x="584" 
d="M564 0h-108l-166 312h-98v-312h-97v738h176q262 0 262 -204q0 -69 -38 -121.5t-111 -81.5q31 -61 93.5 -173.5t86.5 -157.5zM281 381q66 0 109.5 39.5t43.5 105.5q0 68 -46.5 104.5t-130.5 36.5h-65v-286h89z" />
    <glyph glyph-name="S" unicode="S" 
d="M395 196q0 37 -25.5 67t-64 48.5t-83 41.5t-83 46t-64 62.5t-25.5 89.5q0 96 64.5 150t156.5 54q105 0 201 -71l-39 -62q-87 59 -162 59q-49 0 -87.5 -29t-38.5 -83q0 -30 19 -54.5t49 -41.5t66.5 -34t73.5 -37.5t67 -46t49 -65t19 -89.5q0 -95 -64 -156.5t-169 -61.5
q-122 0 -217 90l35 59q97 -75 181 -75q60 0 100.5 37.5t40.5 101.5z" />
    <glyph glyph-name="T" unicode="T" horiz-adv-x="557" 
d="M547 663h-219v-663h-99v663h-219v75h537v-75z" />
    <glyph glyph-name="U" unicode="U" horiz-adv-x="635" 
d="M575 240q0 -115 -77 -186t-192 -71q-112 0 -179 72t-67 185v498h98v-507q0 -73 44.5 -123.5t117.5 -50.5q74 0 124.5 51t50.5 123v507h80v-498z" />
    <glyph glyph-name="V" unicode="V" horiz-adv-x="601" 
d="M591 738l-252 -752h-70l-254 752h103l194 -585h4l193 585h82z" />
    <glyph glyph-name="W" unicode="W" horiz-adv-x="881" 
d="M294 -13h-65l-214 751h100l152 -568h1q7 29 52 192t100 376h57l153 -580h1l161 580h79l-211 -751h-69l-150 536q-147 -534 -147 -536z" />
    <glyph glyph-name="X" unicode="X" horiz-adv-x="566" 
d="M10 0l215 373l-210 365h112l167 -287l161 287h90l-207 -364l218 -374h-116l-171 297l-167 -297h-92z" />
    <glyph glyph-name="Y" unicode="Y" horiz-adv-x="570" 
d="M555 738l-223 -429v-309h-98v307q-35 68 -112 215.5t-112 215.5h108l173 -334h4l173 334h87z" />
    <glyph glyph-name="Z" unicode="Z" horiz-adv-x="504" 
d="M489 0h-477v75l358 588h-345v75h453v-75l-358 -588h369v-75z" />
    <glyph glyph-name="bracketleft" unicode="[" horiz-adv-x="279" 
d="M267 -189h-195v927h195v-51h-111v-825h111v-51z" />
    <glyph glyph-name="backslash" unicode="\" horiz-adv-x="464" 
d="M403 -208l-398 955l60 17l398 -954z" />
    <glyph glyph-name="bracketright" unicode="]" horiz-adv-x="282" 
d="M207 -189h-195v51h111v825h-111v51h195v-927z" />
    <glyph glyph-name="asciicircum" unicode="^" horiz-adv-x="476" 
d="M97 471h-76l216 292l216 -292h-76l-140 187z" />
    <glyph glyph-name="underscore" unicode="_" horiz-adv-x="640" 
d="M607 -200h-575v65h575v-65z" />
    <glyph glyph-name="grave" unicode="`" horiz-adv-x="235" 
d="M205 610l-53 -21l-132 201h112z" />
    <glyph glyph-name="a" unicode="a" horiz-adv-x="524" 
d="M451 348v-255q6 -55 15 -81l-90 -18q-15 57 -20 99q-26 -44 -71 -72t-91 -28q-66 0 -108.5 43t-42.5 121q0 51 24 87t65 54.5t84 26.5t92 8q18 0 48 -2q0 31 -0.5 44.5t-6 37.5t-16.5 34.5t-33 19.5t-55 9q-51 0 -138 -35l-25 69q71 36 165 36q114 0 159 -50.5t45 -147.5
zM356 165v108q-36 2 -57 2q-69 0 -115 -29.5t-46 -89.5q0 -41 18.5 -68t53.5 -27q43 0 86 29.5t60 74.5z" />
    <glyph glyph-name="b" unicode="b" horiz-adv-x="576" 
d="M433 282q0 34 -7.5 67t-23 62.5t-44 48t-65.5 18.5q-63 0 -113 -47v-350q35 -29 88 -29q85 0 125 66.5t40 163.5zM533 285q0 -79 -26 -144.5t-87 -110.5t-149 -45q-105 0 -186 78v724h95v-288q59 47 131 47q108 0 165 -78t57 -183z" />
    <glyph glyph-name="c" unicode="c" horiz-adv-x="462" 
d="M447 46q-65 -60 -166 -60q-102 0 -170 71.5t-68 192.5q0 129 64.5 212.5t182.5 83.5q74 0 140 -39l-28 -61q-62 34 -109 34q-52 0 -87 -32.5t-48.5 -79t-13.5 -103.5q0 -54 13.5 -99.5t51.5 -79.5t95 -34q65 0 125 42z" />
    <glyph glyph-name="d" unicode="d" horiz-adv-x="584" 
d="M502 787v-695q6 -53 15 -80l-90 -18q-17 63 -20 92q-28 -46 -71 -72.5t-92 -26.5q-92 0 -146.5 75.5t-54.5 209.5q0 48 13 94t38.5 87t71 66.5t104.5 25.5q74 0 137 -54v296h95zM407 159v269q-61 52 -124 52q-71 0 -105.5 -60.5t-34.5 -147.5q0 -219 121 -219q45 0 86 31
t57 75z" />
    <glyph glyph-name="e" unicode="e" horiz-adv-x="509" 
d="M383 323q-1 64 -28.5 110.5t-87.5 46.5q-59 0 -89.5 -43.5t-32.5 -113.5h238zM467 255h-322q0 -105 40.5 -154t109.5 -49q67 0 135 31l20 -45q-74 -52 -173 -52q-108 0 -171 75t-63 194q0 53 12 102t37.5 92.5t72 70t108.5 26.5q100 0 148 -65.5t48 -172.5q0 -17 -2 -53z
" />
    <glyph glyph-name="f" unicode="f" horiz-adv-x="365" 
d="M415 778l-30 -54q-39 25 -84 25q-61 0 -83 -51.5t-22 -165.5h168v-42l-168 -25v-465h-95v465h-71v67h71q0 66 7.5 112.5t27.5 86.5t59.5 60.5t99.5 20.5q70 0 120 -34z" />
    <glyph glyph-name="g" unicode="g" horiz-adv-x="544" 
d="M178 107q0 -23 32 -31t77 -9.5t90.5 -8.5t78.5 -39t35 -90q0 -81 -57 -129.5t-164 -48.5q-91 0 -156.5 40t-65.5 117q0 82 84 116q-27 24 -27 59q0 64 70 83q-54 22 -90 69.5t-36 112.5q0 88 61.5 142.5t150.5 56.5l266 4v-41l-123 -17q72 -53 72 -145q0 -66 -34 -112
t-82.5 -66t-109.5 -25q-19 -2 -27 -3t-21 -4.5t-18.5 -11t-5.5 -19.5zM286 -4h-73q-31 0 -55.5 -21t-24.5 -58q0 -49 36.5 -70t92.5 -21q67 0 105 24t38 71q0 75 -119 75zM384 350q0 55 -31 95.5t-88 40.5q-58 0 -89.5 -41t-31.5 -95t31.5 -95t89.5 -41q57 0 88 40.5
t31 95.5z" />
    <glyph glyph-name="h" unicode="h" horiz-adv-x="589" 
d="M519 0h-95v383q0 43 -24.5 68t-65.5 25q-45 0 -81 -26t-73 -70v-380h-95v787h95v-334q31 30 51 46.5t55.5 31.5t74.5 15q61 0 109.5 -33.5t48.5 -89.5v-423z" />
    <glyph glyph-name="i" unicode="i" horiz-adv-x="288" 
d="M207 688q0 -26 -18.5 -43.5t-45.5 -17.5t-46 18t-19 43t19 42.5t46 17.5t45.5 -17.5t18.5 -42.5zM190 0h-95v532h95v-532z" />
    <glyph glyph-name="j" unicode="j" horiz-adv-x="255" 
d="M175 688q0 -26 -18.5 -43.5t-45.5 -17.5t-46 18t-19 43t19 42.5t46 17.5t45.5 -17.5t18.5 -42.5zM160 -102q0 -61 -62 -112t-133 -58v39q100 24 100 146v619h95v-634z" />
    <glyph glyph-name="k" unicode="k" horiz-adv-x="504" 
d="M180 0h-95v787h95v-475h15l198 220h93l-219 -243l237 -289h-118l-198 249h-8v-249z" />
    <glyph glyph-name="l" unicode="l" horiz-adv-x="254" 
d="M173 0h-95v787h95v-787z" />
    <glyph glyph-name="m" unicode="m" horiz-adv-x="856" 
d="M786 0h-95v390q0 33 -23 57t-55 24t-71 -25t-59 -54v-392h-95v390q0 32 -25 56.5t-56 24.5q-33 0 -69 -24.5t-58 -55.5v-391h-95v532h77l18 -72q39 43 77.5 64.5t89.5 21.5q85 0 133 -90q29 39 77.5 64.5t96.5 25.5q53 0 92.5 -35.5t39.5 -77.5v-433z" />
    <glyph glyph-name="n" unicode="n" horiz-adv-x="589" 
d="M519 0h-95v380q0 44 -21.5 70t-63.5 26q-83 0 -159 -96v-380h-95v532h80l15 -79q85 93 185 93q68 0 111 -38.5t43 -84.5v-423z" />
    <glyph glyph-name="o" unicode="o" horiz-adv-x="580" 
d="M538 265q0 -119 -62 -199t-186 -80t-186 80t-62 199q0 120 62.5 200.5t185.5 80.5t185.5 -80.5t62.5 -200.5zM438 265q0 40 -7 75.5t-23 69t-46.5 53.5t-71.5 20t-71.5 -20t-46.5 -53.5t-23 -69t-7 -75.5q0 -55 11.5 -100t46.5 -80.5t90 -35.5t90 35.5t46.5 80.5
t11.5 100z" />
    <glyph glyph-name="p" unicode="p" horiz-adv-x="587" 
d="M544 289q0 -79 -22.5 -145t-77.5 -112t-136 -46q-71 0 -128 48v-269h-95v767h85l10 -50q66 64 147 64q107 0 162 -75t55 -182zM444 287q0 81 -37 137t-106 56q-79 0 -121 -59v-318q51 -51 115 -51q74 0 111.5 62t37.5 173z" />
    <glyph glyph-name="q" unicode="q" horiz-adv-x="600" 
d="M420 111v314q-50 55 -124 55q-71 0 -112 -59t-41 -155q0 -95 37.5 -154.5t107.5 -59.5q66 0 132 59zM515 -235h-95v282q-58 -61 -147 -61q-115 0 -172.5 80.5t-57.5 197.5q0 70 26 132.5t82 106t131 43.5q80 0 138 -54l10 40h85v-767z" />
    <glyph glyph-name="r" unicode="r" horiz-adv-x="418" 
d="M423 501l-30 -69q-33 33 -83 33q-54 0 -92 -45.5t-38 -105.5v-314h-95v532h80l15 -106q13 50 52 84.5t88 34.5q51 0 103 -44z" />
    <glyph glyph-name="s" unicode="s" horiz-adv-x="466" 
d="M330 130q0 34 -28 58.5t-68 41.5t-79.5 36t-67.5 52.5t-28 80.5q0 73 52.5 110t128.5 37q87 0 166 -44l-22 -61q-66 39 -139 39q-38 0 -65.5 -19t-27.5 -55q0 -28 27.5 -48t67.5 -36t79.5 -35.5t67 -56.5t27.5 -89q0 -73 -52 -114t-132 -41q-101 0 -187 64l26 55
q83 -51 157 -51q45 0 71 19.5t26 56.5z" />
    <glyph glyph-name="t" unicode="t" horiz-adv-x="382" 
d="M355 490l-174 -25v-356q0 -56 43 -56q42 0 88 32l21 -46q-58 -53 -140 -53q-48 0 -77.5 37t-29.5 89v353h-71v67h71l33 146h62v-146h174v-42z" />
    <glyph glyph-name="u" unicode="u" horiz-adv-x="599" 
d="M248 -14q-67 0 -117.5 44.5t-50.5 130.5v371h95v-353q0 -61 27 -89t71 -28q43 0 85 29t61 70v371h95v-440q6 -53 15 -80l-90 -18q-16 62 -20 94q-62 -102 -171 -102z" />
    <glyph glyph-name="v" unicode="v" horiz-adv-x="487" 
d="M472 532l-190 -544h-88l-179 544h96l139 -429l142 429h80z" />
    <glyph glyph-name="w" unicode="w" horiz-adv-x="763" 
d="M670 532h74q-157 -542 -157 -544h-82l-122 384h-2l-110 -384h-86l-164 544h96l119 -412h2l120 412h65l129 -412h2z" />
    <glyph glyph-name="x" unicode="x" horiz-adv-x="489" 
d="M137 532l119 -189l122 189h83l-164 -253l177 -279h-110l-133 210l-133 -210h-83l174 276l-161 256h109z" />
    <glyph glyph-name="y" unicode="y" horiz-adv-x="519" 
d="M272 79l145 453h80l-184 -571q-2 -5 -11 -29.5t-12.5 -32.5t-13 -30t-15.5 -31t-17.5 -26t-22.5 -25t-25 -17.5t-31 -13t-36 -3.5q-53 0 -109 33l23 45q33 -19 66 -19q25 0 43.5 11t33.5 36t25.5 49.5t25.5 66.5q6 17 9 25h-54l-156 532h99q113 -427 122 -453h15z" />
    <glyph glyph-name="z" unicode="z" horiz-adv-x="454" 
d="M431 0h-398v63l283 402h-280v67h394v-63l-283 -403h284v-66z" />
    <glyph glyph-name="braceleft" unicode="{" horiz-adv-x="356" 
d="M314 -198q-89 13 -132 57t-43 124v116q0 26 -1 43t-6 40.5t-14 38t-26.5 25.5t-41.5 12v42q30 2 49.5 16t27.5 40t10 47.5t2 54.5v116q0 156 175 181v-33q-44 -8 -68 -40.5t-24 -78.5v-160q0 -72 -25 -113.5t-91 -50.5v-2q67 -9 91.5 -49.5t24.5 -113.5v-161
q0 -46 24 -78.5t68 -40.5v-32z" />
    <glyph glyph-name="bar" unicode="|" horiz-adv-x="146" 
d="M104 -224h-62v1053h62v-1053z" />
    <glyph glyph-name="braceright" unicode="}" horiz-adv-x="356" 
d="M42 -198v32q44 8 68 40.5t24 78.5v161q0 73 24.5 113.5t91.5 49.5v2q-66 9 -91 50.5t-25 113.5v160q0 46 -24 78.5t-68 40.5v33q175 -25 175 -181v-116q0 -33 2 -54.5t10 -47.5t27.5 -40t49.5 -16v-42q-24 -1 -41.5 -12t-26.5 -25.5t-14 -38t-6 -40.5t-1 -43v-116
q0 -80 -43 -124t-132 -57z" />
    <glyph glyph-name="asciitilde" unicode="~" horiz-adv-x="618" 
d="M562 437l36 -17q-28 -52 -60 -82t-82 -30q-52 0 -157 41t-140 41q-56 0 -101 -62l-38 16q63 109 168 109q48 0 149.5 -39.5t135.5 -39.5q51 0 89 63z" />
    <glyph glyph-name="sterling" unicode="&#xa3;" horiz-adv-x="536" 
d="M496 0h-456v69q63 30 85 78t22 125v109h-107v54h107v132q0 78 53.5 133t135.5 55q90 0 160 -56l-31 -50q-53 40 -109 40q-52 0 -81 -37.5t-29 -101.5v-115h194v-54h-194q0 -12 0.5 -33t0.5 -35q0 -41 -3 -71.5t-12.5 -64.5t-30.5 -58t-53 -36h348v-83z" />
    <glyph glyph-name="section" unicode="&#xa7;" horiz-adv-x="510" 
d="M468 296q0 -50 -25.5 -89.5t-68.5 -60.5q61 -51 61 -123q0 -82 -54.5 -127.5t-137.5 -45.5q-94 0 -186 72l23 46q76 -51 148 -51q55 0 85.5 27.5t30.5 70.5q0 37 -31 66t-75.5 49.5t-89 43.5t-75.5 60.5t-31 87.5q0 51 28 94.5t74 64.5q-62 50 -62 118q0 74 52 115
t126 41q47 0 99 -16t82 -43l-23 -47q-60 43 -134 43q-44 0 -76.5 -20.5t-32.5 -61.5q0 -28 21.5 -52t54.5 -40t70.5 -37.5t70.5 -43.5t54.5 -58.5t21.5 -82.5zM381 293q0 20 -9 37.5t-29.5 33t-35 24.5t-46.5 25t-43 22q-36 -6 -63.5 -39t-27.5 -70q0 -18 10.5 -34t31 -29.5
t40 -23.5t48.5 -24t46 -23q37 7 57.5 33.5t20.5 67.5z" />
    <glyph glyph-name="dieresis" unicode="&#xa8;" horiz-adv-x="382" 
d="M145 659q0 -26 -18.5 -44t-44.5 -18t-44 18t-18 44t18.5 44.5t43.5 18.5q26 0 44.5 -19t18.5 -44zM352 659q0 -26 -18.5 -44t-44.5 -18t-44 18t-18 44t18.5 44.5t43.5 18.5t44 -19t19 -44z" />
    <glyph glyph-name="copyright" unicode="&#xa9;" horiz-adv-x="835" 
d="M52 393q0 165 104 263.5t262 98.5q157 0 262 -98.5t105 -263.5t-105 -264.5t-262 -99.5q-158 0 -262 99.5t-104 264.5zM111 393q0 -139 88.5 -222.5t218.5 -83.5t218 83.5t88 222.5q0 138 -88 221.5t-218 83.5t-218.5 -83.5t-88.5 -221.5zM578 224q-60 -46 -143 -46
q-88 0 -142 56t-54 151q0 101 52 166.5t152 65.5q64 0 120 -32l-25 -48q-51 29 -93 29q-66 0 -97.5 -49t-31.5 -121q0 -42 12 -78t44.5 -62.5t82.5 -26.5q53 0 106 34z" />
    <glyph glyph-name="guillemotleft" unicode="&#xab;" horiz-adv-x="431" 
d="M273 72l-35 -42l-213 225l213 226l35 -38l-160 -188zM393 106l-37 -33l-164 182l164 182l37 -33l-122 -149z" />
    <glyph glyph-name="logicalnot" unicode="&#xac;" horiz-adv-x="674" 
d="M639 149h-66v151h-538v65h604v-216z" />
    <glyph glyph-name="registered" unicode="&#xae;" horiz-adv-x="482" 
d="M42 558q0 88 57 142.5t142 54.5q86 0 142.5 -54.5t56.5 -142.5q0 -89 -56.5 -143.5t-142.5 -54.5q-85 0 -142 54.5t-57 143.5zM78 558q0 -75 47 -119.5t116 -44.5q70 0 117 44.5t47 119.5q0 74 -47 118t-117 44q-69 0 -116 -44t-47 -118zM340 447h-47l-53 93h-34v-93h-38
v229h86q33 0 57 -16.5t24 -49.5q0 -22 -15.5 -40.5t-37.5 -25.5zM294 608q0 20 -12.5 31.5t-32.5 11.5h-43v-83h43q20 0 32.5 10.5t12.5 29.5z" />
    <glyph glyph-name="macron" unicode="&#xaf;" horiz-adv-x="302" 
d="M20 593l15 69h237l-15 -69h-237z" />
    <glyph glyph-name="degree" unicode="&#xb0;" horiz-adv-x="284" 
d="M254 655q0 -49 -34 -83t-83 -34t-83 34t-34 83t34 83t83 34t83 -34t34 -83zM196 655q0 25 -17 42t-42 17t-42 -17t-17 -42t17 -42t42 -17t42 17t17 42z" />
    <glyph glyph-name="plusminus" unicode="&#xb1;" horiz-adv-x="700" 
d="M652 300h-269v-185h-66v185h-269v65h269v268h66v-268h269v-65zM652 28h-604v65h604v-65z" />
    <glyph glyph-name="acute" unicode="&#xb4;" horiz-adv-x="235" 
d="M83 589l-53 21l73 180h112z" />
    <glyph glyph-name="paragraph" unicode="&#xb6;" horiz-adv-x="573" 
d="M513 685h-66v-885h-73v885h-82v-885h-72v634q-75 0 -122.5 39.5t-47.5 112.5q0 74 47.5 113t122.5 39h293v-53z" />
    <glyph glyph-name="cedilla" unicode="&#xb8;" horiz-adv-x="200" 
d="M56 12h46l-8 -49q35 -7 55.5 -28.5t20.5 -50.5q0 -52 -42.5 -76.5t-102.5 -24.5l-5 52q76 0 76 43q0 13 -11.5 22t-32.5 9q-9 0 -14 -1l-3 5z" />
    <glyph glyph-name="guillemotright" unicode="&#xbb;" horiz-adv-x="431" 
d="M193 30l-35 42l160 183l-160 188l35 38l213 -226zM75 73l-37 33l122 149l-122 149l37 33l164 -182z" />
    <glyph glyph-name="onequarter" unicode="&#xbc;" horiz-adv-x="923" 
d="M655 748l-375 -897l-51 16l375 896zM305 300h-236v42l79 12v309l-96 -36l-16 34l136 77h55v-384l78 -12v-42zM903 143l-75 -7v-136h-79v134l-183 -9l-19 34l222 293l59 -8v-259h75v-42zM749 185v168l-116 -168h116z" />
    <glyph glyph-name="onehalf" unicode="&#xbd;" horiz-adv-x="917" 
d="M611 51q52 50 76 75t58.5 65.5t49 73t14.5 63.5q0 30 -20.5 46.5t-47.5 16.5q-45 0 -92 -40l-38 43q58 60 140 60q59 0 100.5 -32.5t41.5 -93.5q0 -42 -34.5 -95.5t-67 -86.5t-82.5 -78h189v-68h-287v51zM646 748l-375 -897l-51 16l375 896zM306 300h-236v42l79 12v309
l-96 -36l-16 34l136 77h55v-384l78 -12v-42z" />
    <glyph glyph-name="threequarters" unicode="&#xbe;" horiz-adv-x="922" 
d="M664 748l-375 -897l-51 16l375 896zM903 143l-75 -7v-136h-79v134l-183 -9l-19 34l222 293l59 -8v-259h75v-42zM749 185v168l-116 -168h116zM45 738h261l10 -47l-135 -128q65 -6 101.5 -42t36.5 -87q0 -68 -49.5 -109.5t-121.5 -41.5q-68 0 -122 39l26 48q52 -31 93 -31
q44 0 69 24.5t25 66.5q0 36 -25 56.5t-61 20.5q-23 0 -49 -8l-18 48l127 125h-168v66z" />
    <glyph glyph-name="Agrave" unicode="&#xc0;" horiz-adv-x="561" 
d="M561 0h-102l-69 218h-243l-69 -218h-78q32 104 113.5 363t121.5 389h90q37 -119 118 -376t118 -376zM369 283l-100 327l-101 -327h201zM344 803l-34 -33l-204 132l93 53z" />
    <glyph glyph-name="Aacute" unicode="&#xc1;" horiz-adv-x="561" 
d="M561 0h-102l-69 218h-243l-69 -218h-78q32 104 113.5 363t121.5 389h90q37 -119 118 -376t118 -376zM369 283l-100 327l-101 -327h201zM252 770l-34 33l145 152l93 -53z" />
    <glyph glyph-name="Acircumflex" unicode="&#xc2;" horiz-adv-x="561" 
d="M561 0h-102l-69 218h-243l-69 -218h-78q32 104 113.5 363t121.5 389h90q37 -119 118 -376t118 -376zM369 283l-100 327l-101 -327h201zM279 835l-128 -79l-36 53l164 110l163 -110l-36 -53z" />
    <glyph glyph-name="Atilde" unicode="&#xc3;" horiz-adv-x="561" 
d="M561 0h-102l-69 218h-243l-69 -218h-78q32 104 113.5 363t121.5 389h90q37 -119 118 -376t118 -376zM369 283l-100 327l-101 -327h201zM478 866q-41 -93 -104 -93q-33 0 -82 26.5t-67 26.5q-32 0 -78 -43l-29 18q23 40 58 66.5t72 26.5q25 0 75.5 -25.5t68.5 -25.5
q24 0 55 35z" />
    <glyph glyph-name="Adieresis" unicode="&#xc4;" horiz-adv-x="561" 
d="M561 0h-102l-69 218h-243l-69 -218h-78q32 104 113.5 363t121.5 389h90q37 -119 118 -376t118 -376zM369 283l-100 327l-101 -327h201zM235 837q0 -25 -19 -43.5t-45 -18.5q-25 0 -43.5 18.5t-18.5 43.5q0 26 18.5 45t43.5 19t44.5 -19.5t19.5 -44.5zM448 837
q0 -25 -19 -43.5t-45 -18.5q-25 0 -43.5 18.5t-18.5 43.5q0 26 18.5 45t43.5 19q26 0 45 -19.5t19 -44.5z" />
    <glyph glyph-name="Aring" unicode="&#xc5;" horiz-adv-x="561" 
d="M561 0h-102l-69 218h-243l-69 -218h-78q32 104 113.5 363t121.5 389h90q37 -119 118 -376t118 -376zM369 283l-100 327l-101 -327h201zM319 871q0 20 -13 30.5t-31 10.5t-31 -11t-13 -30q0 -20 13 -30.5t30 -10.5q18 0 31.5 11t13.5 30zM383 871q0 -43 -31.5 -67
t-75.5 -24t-76.5 24t-32.5 67t31.5 67t75.5 24t76.5 -24t32.5 -67z" />
    <glyph glyph-name="AE" unicode="&#xc6;" horiz-adv-x="927" 
d="M876 0h-416v217h-223l-128 -217h-87l438 738h416v-74h-319v-240h259v-74h-259v-275h319v-75zM276 284h184v306z" />
    <glyph glyph-name="Ccedilla" unicode="&#xc7;" horiz-adv-x="564" 
d="M488 638q-63 43 -134 43q-58 0 -102 -30.5t-67.5 -79.5t-34.5 -102t-11 -107q0 -50 12 -101t35.5 -98t65.5 -76.5t96 -29.5q86 0 163 56l33 -53q-76 -68 -180 -76l-3 -23q36 -6 55 -28.5t19 -53.5q0 -55 -46.5 -86.5t-106.5 -31.5l-3 49q35 0 59.5 16t24.5 40
q0 39 -51 39q-9 0 -14 -1l-7 5l15 76q-69 6 -121.5 40t-83 87t-46 116t-15.5 133q0 75 17.5 142.5t52.5 125t96.5 92t141.5 34.5q98 0 176 -51z" />
    <glyph glyph-name="Egrave" unicode="&#xc8;" 
d="M511 0h-416v738h416v-75h-319v-239h259v-74h-259v-275h319v-75zM474 802l-34 -33l-204 132l93 53z" />
    <glyph glyph-name="Eacute" unicode="&#xc9;" 
d="M511 0h-416v738h416v-75h-319v-239h259v-74h-259v-275h319v-75zM211 769l-34 33l145 152l93 -53z" />
    <glyph glyph-name="Ecircumflex" unicode="&#xca;" 
d="M511 0h-416v738h416v-75h-319v-239h259v-74h-259v-275h319v-75zM311 849l-128 -79l-36 53l164 110l163 -110l-36 -53z" />
    <glyph glyph-name="Edieresis" unicode="&#xcb;" 
d="M511 0h-416v738h416v-75h-319v-239h259v-74h-259v-275h319v-75zM266 844q0 -25 -19 -43.5t-45 -18.5q-25 0 -43.5 18.5t-18.5 43.5q0 26 18.5 45t43.5 19q26 0 45 -19t19 -45zM479 844q0 -25 -19 -43.5t-45 -18.5q-25 0 -43.5 18.5t-18.5 43.5q0 26 18.5 45t43.5 19
t44.5 -19t19.5 -45z" />
    <glyph glyph-name="Igrave" unicode="&#xcc;" horiz-adv-x="288" 
d="M192 0h-97v738h97v-738zM197 803l-34 -33l-204 132l93 53z" />
    <glyph glyph-name="Iacute" unicode="&#xcd;" horiz-adv-x="288" 
d="M192 0h-97v738h97v-738zM136 770l-34 33l145 152l93 -53z" />
    <glyph glyph-name="Icircumflex" unicode="&#xce;" horiz-adv-x="288" 
d="M192 0h-97v738h97v-738zM145 849l-128 -79l-36 53l164 110l163 -110l-36 -53z" />
    <glyph glyph-name="Idieresis" unicode="&#xcf;" horiz-adv-x="288" 
d="M192 0h-97v738h97v-738zM99 834q0 -25 -19 -43.5t-45 -18.5q-25 0 -43.5 18.5t-18.5 43.5q0 26 18.5 45t43.5 19t44.5 -19t19.5 -45zM312 834q0 -25 -19 -43.5t-45 -18.5q-25 0 -43.5 18.5t-18.5 43.5q0 26 18.5 45t43.5 19q26 0 45 -19t19 -45z" />
    <glyph glyph-name="Ntilde" unicode="&#xd1;" horiz-adv-x="696" 
d="M601 0h-86l-335 573h-6v-573h-79v738h94l326 -558h6v558h80v-738zM547 863q-41 -93 -104 -93q-33 0 -82 26.5t-67 26.5q-32 0 -78 -43l-29 18q23 40 58 66.5t72 26.5q25 0 75.5 -25.5t68.5 -25.5q24 0 55 35z" />
    <glyph glyph-name="Ograve" unicode="&#xd2;" horiz-adv-x="678" 
d="M40 370q0 -55 9.5 -108t32 -104t56 -89.5t85.5 -62t116 -23.5t116 23.5t85.5 62t56 89.5t32 104t9.5 108t-9.5 107.5t-32 103.5t-56 89t-85.5 61.5t-116 23.5t-116 -23.5t-85.5 -61.5t-56 -89t-32 -103.5t-9.5 -107.5zM137 370q0 55 10.5 106.5t32.5 99t63 76.5t96 29
t96 -29t63 -76.5t32.5 -99t10.5 -106.5t-10.5 -106.5t-32.5 -99.5t-63 -77.5t-96 -29.5t-96 29.5t-63 77.5t-32.5 99.5t-10.5 106.5zM418 810l-34 -33l-204 132l93 53z" />
    <glyph glyph-name="Oacute" unicode="&#xd3;" horiz-adv-x="678" 
d="M40 370q0 55 9.5 107.5t32 103.5t56 89t85.5 61.5t116 23.5t116 -23.5t85.5 -61.5t56 -89t32 -103.5t9.5 -107.5t-9.5 -108t-32 -104t-56 -89.5t-85.5 -62t-116 -23.5t-116 23.5t-85.5 62t-56 89.5t-32 104t-9.5 108zM137 370q0 -55 10.5 -106.5t32.5 -99.5t63 -77.5
t96 -29.5t96 29.5t63 77.5t32.5 99.5t10.5 106.5t-10.5 106.5t-32.5 99t-63 76.5t-96 29t-96 -29t-63 -76.5t-32.5 -99t-10.5 -106.5zM307 777l-34 33l145 152l93 -53z" />
    <glyph glyph-name="Ocircumflex" unicode="&#xd4;" horiz-adv-x="678" 
d="M40 370q0 -55 9.5 -108t32 -104t56 -89.5t85.5 -62t116 -23.5t116 23.5t85.5 62t56 89.5t32 104t9.5 108t-9.5 107.5t-32 103.5t-56 89t-85.5 61.5t-116 23.5t-116 -23.5t-85.5 -61.5t-56 -89t-32 -103.5t-9.5 -107.5zM137 370q0 55 10.5 106.5t32.5 99t63 76.5t96 29
t96 -29t63 -76.5t32.5 -99t10.5 -106.5t-10.5 -106.5t-32.5 -99.5t-63 -77.5t-96 -29.5t-96 29.5t-63 77.5t-32.5 99.5t-10.5 106.5zM344 854l-128 -79l-36 53l164 110l163 -110l-36 -53z" />
    <glyph glyph-name="Otilde" unicode="&#xd5;" horiz-adv-x="678" 
d="M40 370q0 -55 9.5 -108t32 -104t56 -89.5t85.5 -62t116 -23.5t116 23.5t85.5 62t56 89.5t32 104t9.5 108t-9.5 107.5t-32 103.5t-56 89t-85.5 61.5t-116 23.5t-116 -23.5t-85.5 -61.5t-56 -89t-32 -103.5t-9.5 -107.5zM137 370q0 55 10.5 106.5t32.5 99t63 76.5t96 29
t96 -29t63 -76.5t32.5 -99t10.5 -106.5t-10.5 -106.5t-32.5 -99.5t-63 -77.5t-96 -29.5t-96 29.5t-63 77.5t-32.5 99.5t-10.5 106.5zM533 882q-41 -93 -104 -93q-33 0 -82 26.5t-67 26.5q-32 0 -78 -43l-29 18q23 40 58 66.5t72 26.5q25 0 75.5 -25.5t68.5 -25.5q24 0 55 35
z" />
    <glyph glyph-name="Odieresis" unicode="&#xd6;" horiz-adv-x="678" 
d="M40 370q0 -55 9.5 -108t32 -104t56 -89.5t85.5 -62t116 -23.5t116 23.5t85.5 62t56 89.5t32 104t9.5 108t-9.5 107.5t-32 103.5t-56 89t-85.5 61.5t-116 23.5t-116 -23.5t-85.5 -61.5t-56 -89t-32 -103.5t-9.5 -107.5zM137 370q0 55 10.5 106.5t32.5 99t63 76.5t96 29
t96 -29t63 -76.5t32.5 -99t10.5 -106.5t-10.5 -106.5t-32.5 -99.5t-63 -77.5t-96 -29.5t-96 29.5t-63 77.5t-32.5 99.5t-10.5 106.5zM295 844q0 -25 -19 -43.5t-45 -18.5q-25 0 -43.5 18.5t-18.5 43.5q0 26 18.5 45t43.5 19t44.5 -19t19.5 -45zM508 844q0 -25 -19 -43.5
t-45 -18.5q-25 0 -43.5 18.5t-18.5 43.5q0 26 18.5 45t43.5 19q26 0 45 -19t19 -45z" />
    <glyph glyph-name="multiply" unicode="&#xd7;" horiz-adv-x="624" 
d="M583 530l-225 -230l216 -222l-45 -46l-216 221l-218 -221l-45 46l216 222l-216 221l45 45l218 -221l225 230z" />
    <glyph glyph-name="Ugrave" unicode="&#xd9;" horiz-adv-x="635" 
d="M575 240q0 -115 -77 -186t-192 -71q-112 0 -179 72t-67 185v498h98v-507q0 -73 44.5 -123.5t117.5 -50.5q74 0 124.5 51t50.5 123v507h80v-498zM435 803l-34 -33l-204 132l93 53z" />
    <glyph glyph-name="Uacute" unicode="&#xda;" horiz-adv-x="635" 
d="M575 240q0 -115 -77 -186t-192 -71q-112 0 -179 72t-67 185v498h98v-507q0 -73 44.5 -123.5t117.5 -50.5q74 0 124.5 51t50.5 123v507h80v-498zM246 771l-34 33l145 152l93 -53z" />
    <glyph glyph-name="Ucircumflex" unicode="&#xdb;" horiz-adv-x="635" 
d="M575 240q0 -115 -77 -186t-192 -71q-112 0 -179 72t-67 185v498h98v-507q0 -73 44.5 -123.5t117.5 -50.5q74 0 124.5 51t50.5 123v507h80v-498zM322 849l-128 -79l-36 53l164 110l163 -110l-36 -53z" />
    <glyph glyph-name="Udieresis" unicode="&#xdc;" horiz-adv-x="635" 
d="M575 240q0 -115 -77 -186t-192 -71q-112 0 -179 72t-67 185v498h98v-507q0 -73 44.5 -123.5t117.5 -50.5q74 0 124.5 51t50.5 123v507h80v-498zM279 828q0 -25 -19 -43.5t-45 -18.5q-25 0 -43.5 18.5t-18.5 43.5q0 26 18.5 45t43.5 19t44.5 -19t19.5 -45zM492 828
q0 -25 -19 -43.5t-45 -18.5q-25 0 -43.5 18.5t-18.5 43.5q0 26 18.5 45t43.5 19q26 0 45 -19t19 -45z" />
    <glyph glyph-name="Yacute" unicode="&#xdd;" horiz-adv-x="570" 
d="M555 738l-223 -429v-309h-98v307q-35 68 -112 215.5t-112 215.5h108l173 -334h4l173 334h87zM235 770l-34 33l145 152l93 -53z" />
    <glyph glyph-name="germandbls" unicode="&#xdf;" horiz-adv-x="614" 
d="M574 149q0 -75 -50 -119t-129 -44q-84 0 -167 51l23 49q48 -21 72 -27t61 -6q42 0 66.5 26.5t24.5 59.5q0 39 -22.5 69.5t-54.5 49.5t-64 36t-54.5 40t-22.5 52q0 36 19.5 59t47.5 35.5t56 27t47.5 44t19.5 74.5q0 54 -33.5 88.5t-82.5 34.5q-140 0 -140 -217v-532h-95
v465h-71v67h71q0 75 22.5 136t77.5 102.5t135 41.5q104 0 155.5 -55.5t51.5 -123.5q0 -56 -22 -95.5t-53 -59t-62 -32.5t-53 -25t-22 -27q0 -16 25.5 -29.5t62 -28t73 -35.5t62 -60t25.5 -92z" />
    <glyph glyph-name="agrave" unicode="&#xe0;" horiz-adv-x="524" 
d="M451 348v-255q6 -55 15 -81l-90 -18q-15 57 -20 99q-26 -44 -71 -72t-91 -28q-66 0 -108.5 43t-42.5 121q0 51 24 87t65 54.5t84 26.5t92 8q18 0 48 -2q0 31 -0.5 44.5t-6 37.5t-16.5 34.5t-33 19.5t-55 9q-51 0 -138 -35l-25 69q71 36 165 36q114 0 159 -50.5t45 -147.5
zM356 165v108q-36 2 -57 2q-69 0 -115 -29.5t-46 -89.5q0 -41 18.5 -68t53.5 -27q43 0 86 29.5t60 74.5zM313 621l-53 -21l-132 201h112z" />
    <glyph glyph-name="aacute" unicode="&#xe1;" horiz-adv-x="524" 
d="M451 348v-255q6 -55 15 -81l-90 -18q-15 57 -20 99q-26 -44 -71 -72t-91 -28q-66 0 -108.5 43t-42.5 121q0 51 24 87t65 54.5t84 26.5t92 8q18 0 48 -2q0 31 -0.5 44.5t-6 37.5t-16.5 34.5t-33 19.5t-55 9q-51 0 -138 -35l-25 69q71 36 165 36q114 0 159 -50.5t45 -147.5
zM356 165v108q-36 2 -57 2q-69 0 -115 -29.5t-46 -89.5q0 -41 18.5 -68t53.5 -27q43 0 86 29.5t60 74.5zM233 600l-53 21l73 180h112z" />
    <glyph glyph-name="acircumflex" unicode="&#xe2;" horiz-adv-x="524" 
d="M451 348v-255q6 -55 15 -81l-90 -18q-15 57 -20 99q-26 -44 -71 -72t-91 -28q-66 0 -108.5 43t-42.5 121q0 51 24 87t65 54.5t84 26.5t92 8q18 0 48 -2q0 31 -0.5 44.5t-6 37.5t-16.5 34.5t-33 19.5t-55 9q-51 0 -138 -35l-25 69q71 36 165 36q114 0 159 -50.5t45 -147.5
zM356 165v108q-36 2 -57 2q-69 0 -115 -29.5t-46 -89.5q0 -41 18.5 -68t53.5 -27q43 0 86 29.5t60 74.5zM264 807l137 -162l-44 -53l-93 112q-14 -16 -45 -54.5t-49 -57.5l-42 53z" />
    <glyph glyph-name="atilde" unicode="&#xe3;" horiz-adv-x="524" 
d="M451 348v-255q6 -55 15 -81l-90 -18q-15 57 -20 99q-26 -44 -71 -72t-91 -28q-66 0 -108.5 43t-42.5 121q0 51 24 87t65 54.5t84 26.5t92 8q18 0 48 -2q0 31 -0.5 44.5t-6 37.5t-16.5 34.5t-33 19.5t-55 9q-51 0 -138 -35l-25 69q71 36 165 36q114 0 159 -50.5t45 -147.5
zM356 165v108q-36 2 -57 2q-69 0 -115 -29.5t-46 -89.5q0 -41 18.5 -68t53.5 -27q43 0 86 29.5t60 74.5zM445 707q-19 -42 -45 -66.5t-54 -24.5q-31 0 -77.5 25t-63.5 25q-30 0 -71 -37l-30 17q21 38 54.5 63t68.5 25q24 0 72 -24t65 -24q20 0 49 33z" />
    <glyph glyph-name="adieresis" unicode="&#xe4;" horiz-adv-x="524" 
d="M451 348v-255q6 -55 15 -81l-90 -18q-15 57 -20 99q-26 -44 -71 -72t-91 -28q-66 0 -108.5 43t-42.5 121q0 51 24 87t65 54.5t84 26.5t92 8q18 0 48 -2q0 31 -0.5 44.5t-6 37.5t-16.5 34.5t-33 19.5t-55 9q-51 0 -138 -35l-25 69q71 36 165 36q114 0 159 -50.5t45 -147.5
zM356 165v108q-36 2 -57 2q-69 0 -115 -29.5t-46 -89.5q0 -41 18.5 -68t53.5 -27q43 0 86 29.5t60 74.5zM217 667q0 -26 -18.5 -44t-44.5 -18t-44 18t-18 44t18.5 44.5t43.5 18.5q26 0 44.5 -19t18.5 -44zM424 667q0 -26 -18.5 -44t-44.5 -18t-44 18t-18 44t18.5 44.5
t43.5 18.5t44 -19t19 -44z" />
    <glyph glyph-name="aring" unicode="&#xe5;" horiz-adv-x="524" 
d="M451 348v-255q6 -55 15 -81l-90 -18q-15 57 -20 99q-26 -44 -71 -72t-91 -28q-66 0 -108.5 43t-42.5 121q0 51 24 87t65 54.5t84 26.5t92 8q18 0 48 -2q0 31 -0.5 44.5t-6 37.5t-16.5 34.5t-33 19.5t-55 9q-51 0 -138 -35l-25 69q71 36 165 36q114 0 159 -50.5t45 -147.5
zM356 165v108q-36 2 -57 2q-69 0 -115 -29.5t-46 -89.5q0 -41 18.5 -68t53.5 -27q43 0 86 29.5t60 74.5zM292 696q0 20 -13 30.5t-31 10.5t-31 -11t-13 -30q0 -20 13 -30.5t30 -10.5q18 0 31.5 11t13.5 30zM356 696q0 -43 -31.5 -67t-75.5 -24t-76.5 24t-32.5 67t31.5 67
t75.5 24t76.5 -24t32.5 -67z" />
    <glyph glyph-name="ae" unicode="&#xe6;" horiz-adv-x="815" 
d="M583 546q99 0 145.5 -65t46.5 -173q0 -17 -2 -53h-320q0 -45 6 -77.5t21.5 -62t46.5 -45t77 -15.5q71 0 134 31l20 -48q-41 -30 -81.5 -41t-98.5 -11q-129 0 -187 104q-31 -48 -84 -76t-107 -28q-67 0 -112 43.5t-45 127.5q0 51 24 87t65 54.5t84 26.5t92 8q9 0 27 -0.5
t25 -0.5q0 36 -2.5 55t-12.5 43t-35 35t-65 11q-51 0 -138 -35l-25 69q71 36 165 36q113 0 165 -86q60 82 171 86zM354 255v18q-34 2 -55 2q-69 0 -115 -29.5t-46 -89.5q0 -101 82 -101q40 0 85 24t67 54q-18 53 -18 122zM577 480q-55 0 -88.5 -45t-35.5 -112h236
q-3 155 -112 157z" />
    <glyph glyph-name="ccedilla" unicode="&#xe7;" horiz-adv-x="462" 
d="M447 46q-57 -53 -145 -59l-4 -24q35 -7 55.5 -28.5t20.5 -50.5q0 -52 -42.5 -76.5t-102.5 -24.5l-5 52q76 0 76 43q0 13 -11.5 22t-32.5 9q-9 0 -14 -1l-3 5l15 74q-92 10 -151.5 80.5t-59.5 182.5q0 129 64.5 212.5t182.5 83.5q74 0 140 -39l-28 -61q-62 34 -109 34
q-52 0 -87 -32.5t-48.5 -79t-13.5 -103.5q0 -54 13.5 -99.5t51.5 -79.5t95 -34q65 0 125 42z" />
    <glyph glyph-name="egrave" unicode="&#xe8;" horiz-adv-x="509" 
d="M383 323q-1 64 -28.5 110.5t-87.5 46.5q-59 0 -89.5 -43.5t-32.5 -113.5h238zM467 255h-322q0 -105 40.5 -154t109.5 -49q67 0 135 31l20 -45q-74 -52 -173 -52q-108 0 -171 75t-63 194q0 53 12 102t37.5 92.5t72 70t108.5 26.5q100 0 148 -65.5t48 -172.5q0 -17 -2 -53z
M363 622l-53 -21l-132 201h112z" />
    <glyph glyph-name="eacute" unicode="&#xe9;" horiz-adv-x="509" 
d="M383 323q-1 64 -28.5 110.5t-87.5 46.5q-59 0 -89.5 -43.5t-32.5 -113.5h238zM467 255h-322q0 -105 40.5 -154t109.5 -49q67 0 135 31l20 -45q-74 -52 -173 -52q-108 0 -171 75t-63 194q0 53 12 102t37.5 92.5t72 70t108.5 26.5q100 0 148 -65.5t48 -172.5q0 -17 -2 -53z
M269 601l-53 21l73 180h112z" />
    <glyph glyph-name="ecircumflex" unicode="&#xea;" horiz-adv-x="509" 
d="M383 323q-1 64 -28.5 110.5t-87.5 46.5q-59 0 -89.5 -43.5t-32.5 -113.5h238zM467 255h-322q0 -105 40.5 -154t109.5 -49q67 0 135 31l20 -45q-74 -52 -173 -52q-108 0 -171 75t-63 194q0 53 12 102t37.5 92.5t72 70t108.5 26.5q100 0 148 -65.5t48 -172.5q0 -17 -2 -53z
M273 815l137 -162l-44 -53l-93 112q-14 -16 -45 -54.5t-49 -57.5l-42 53z" />
    <glyph glyph-name="edieresis" unicode="&#xeb;" horiz-adv-x="509" 
d="M383 323q-1 64 -28.5 110.5t-87.5 46.5q-59 0 -89.5 -43.5t-32.5 -113.5h238zM467 255h-322q0 -105 40.5 -154t109.5 -49q67 0 135 31l20 -45q-74 -52 -173 -52q-108 0 -171 75t-63 194q0 53 12 102t37.5 92.5t72 70t108.5 26.5q100 0 148 -65.5t48 -172.5q0 -17 -2 -53z
M237 667q0 -26 -18.5 -44t-44.5 -18t-44 18t-18 44t18.5 44.5t43.5 18.5q26 0 44.5 -19t18.5 -44zM444 667q0 -26 -18.5 -44t-44.5 -18t-44 18t-18 44t18.5 44.5t43.5 18.5t44 -19t19 -44z" />
    <glyph glyph-name="igrave" unicode="&#xec;" horiz-adv-x="253" 
d="M174 0h-95v532h95v-532zM182 622l-53 -21l-132 201h112z" />
    <glyph glyph-name="iacute" unicode="&#xed;" horiz-adv-x="253" 
d="M174 0h-95v532h95v-532zM130 601l-53 21l73 180h112z" />
    <glyph glyph-name="icircumflex" unicode="&#xee;" horiz-adv-x="253" 
d="M174 0h-95v532h95v-532zM126 803l137 -162l-44 -53l-93 112q-14 -16 -45 -54.5t-49 -57.5l-42 53z" />
    <glyph glyph-name="idieresis" unicode="&#xef;" horiz-adv-x="253" 
d="M174 0h-95v532h95v-532zM91 667q0 -26 -18.5 -44t-44.5 -18t-44 18t-18 44t18.5 44.5t43.5 18.5q26 0 44.5 -19t18.5 -44zM298 667q0 -26 -18.5 -44t-44.5 -18t-44 18t-18 44t18.5 44.5t43.5 18.5t44 -19t19 -44z" />
    <glyph glyph-name="ntilde" unicode="&#xf1;" horiz-adv-x="594" 
d="M524 0h-95v380q0 44 -21.5 70t-63.5 26q-83 0 -159 -96v-380h-95v532h80l15 -79q85 93 185 93q68 0 111 -38.5t43 -84.5v-423zM476 691q-19 -42 -45 -66.5t-54 -24.5q-31 0 -77.5 25t-63.5 25q-30 0 -71 -37l-30 17q21 38 54.5 63t68.5 25q24 0 72 -24t65 -24q20 0 49 33
z" />
    <glyph glyph-name="ograve" unicode="&#xf2;" horiz-adv-x="580" 
d="M538 265q0 -119 -62 -199t-186 -80t-186 80t-62 199q0 120 62.5 200.5t185.5 80.5t185.5 -80.5t62.5 -200.5zM438 265q0 40 -7 75.5t-23 69t-46.5 53.5t-71.5 20t-71.5 -20t-46.5 -53.5t-23 -69t-7 -75.5q0 -55 11.5 -100t46.5 -80.5t90 -35.5t90 35.5t46.5 80.5
t11.5 100zM370 621l-53 -21l-132 201h112z" />
    <glyph glyph-name="oacute" unicode="&#xf3;" horiz-adv-x="580" 
d="M538 265q0 -119 -62 -199t-186 -80t-186 80t-62 199q0 120 62.5 200.5t185.5 80.5t185.5 -80.5t62.5 -200.5zM438 265q0 40 -7 75.5t-23 69t-46.5 53.5t-71.5 20t-71.5 -20t-46.5 -53.5t-23 -69t-7 -75.5q0 -55 11.5 -100t46.5 -80.5t90 -35.5t90 35.5t46.5 80.5
t11.5 100zM274 600l-53 21l73 180h112z" />
    <glyph glyph-name="ocircumflex" unicode="&#xf4;" horiz-adv-x="580" 
d="M538 265q0 -119 -62 -199t-186 -80t-186 80t-62 199q0 120 62.5 200.5t185.5 80.5t185.5 -80.5t62.5 -200.5zM438 265q0 40 -7 75.5t-23 69t-46.5 53.5t-71.5 20t-71.5 -20t-46.5 -53.5t-23 -69t-7 -75.5q0 -55 11.5 -100t46.5 -80.5t90 -35.5t90 35.5t46.5 80.5
t11.5 100zM290 808l137 -162l-44 -53l-93 112q-14 -16 -45 -54.5t-49 -57.5l-42 53z" />
    <glyph glyph-name="otilde" unicode="&#xf5;" horiz-adv-x="580" 
d="M538 265q0 -119 -62 -199t-186 -80t-186 80t-62 199q0 120 62.5 200.5t185.5 80.5t185.5 -80.5t62.5 -200.5zM438 265q0 40 -7 75.5t-23 69t-46.5 53.5t-71.5 20t-71.5 -20t-46.5 -53.5t-23 -69t-7 -75.5q0 -55 11.5 -100t46.5 -80.5t90 -35.5t90 35.5t46.5 80.5
t11.5 100zM457 697q-19 -42 -45 -66.5t-54 -24.5q-31 0 -77.5 25t-63.5 25q-30 0 -71 -37l-30 17q21 38 54.5 63t68.5 25q24 0 72 -24t65 -24q20 0 49 33z" />
    <glyph glyph-name="odieresis" unicode="&#xf6;" horiz-adv-x="580" 
d="M538 265q0 -119 -62 -199t-186 -80t-186 80t-62 199q0 120 62.5 200.5t185.5 80.5t185.5 -80.5t62.5 -200.5zM438 265q0 40 -7 75.5t-23 69t-46.5 53.5t-71.5 20t-71.5 -20t-46.5 -53.5t-23 -69t-7 -75.5q0 -55 11.5 -100t46.5 -80.5t90 -35.5t90 35.5t46.5 80.5
t11.5 100zM254 667q0 -26 -18.5 -44t-44.5 -18t-44 18t-18 44t18.5 44.5t43.5 18.5t44 -19t19 -44zM461 667q0 -26 -18.5 -44t-44.5 -18t-44 18t-18 44t18.5 44.5t43.5 18.5q26 0 44.5 -19t18.5 -44z" />
    <glyph glyph-name="divide" unicode="&#xf7;" horiz-adv-x="684" 
d="M409 544q0 -28 -21 -47.5t-50 -19.5t-50 19.5t-21 47.5t21 47.5t50 19.5t50 -19.5t21 -47.5zM409 114q0 -28 -21 -47.5t-50 -19.5t-50 19.5t-21 47.5t21 47.5t50 19.5t50 -19.5t21 -47.5zM644 300h-604v65h604v-65z" />
    <glyph glyph-name="ugrave" unicode="&#xf9;" horiz-adv-x="599" 
d="M248 -14q-67 0 -117.5 44.5t-50.5 130.5v371h95v-353q0 -61 27 -89t71 -28q43 0 85 29t61 70v371h95v-440q6 -53 15 -80l-90 -18q-16 62 -20 94q-62 -102 -171 -102zM383 621l-53 -21l-132 201h112z" />
    <glyph glyph-name="uacute" unicode="&#xfa;" horiz-adv-x="599" 
d="M248 -14q-67 0 -117.5 44.5t-50.5 130.5v371h95v-353q0 -61 27 -89t71 -28q43 0 85 29t61 70v371h95v-440q6 -53 15 -80l-90 -18q-16 62 -20 94q-62 -102 -171 -102zM270 600l-53 21l73 180h112z" />
    <glyph glyph-name="ucircumflex" unicode="&#xfb;" horiz-adv-x="599" 
d="M248 -14q-67 0 -117.5 44.5t-50.5 130.5v371h95v-353q0 -61 27 -89t71 -28q43 0 85 29t61 70v371h95v-440q6 -53 15 -80l-90 -18q-16 62 -20 94q-62 -102 -171 -102zM303 807l137 -162l-44 -53l-93 112q-14 -16 -45 -54.5t-49 -57.5l-42 53z" />
    <glyph glyph-name="udieresis" unicode="&#xfc;" horiz-adv-x="599" 
d="M248 -14q-67 0 -117.5 44.5t-50.5 130.5v371h95v-353q0 -61 27 -89t71 -28q43 0 85 29t61 70v371h95v-440q6 -53 15 -80l-90 -18q-16 62 -20 94q-62 -102 -171 -102zM267 657q0 -26 -18.5 -44t-44.5 -18t-44 18t-18 44t18.5 44.5t43.5 18.5q26 0 44.5 -19t18.5 -44z
M474 657q0 -26 -18.5 -44t-44.5 -18t-44 18t-18 44t18.5 44.5t43.5 18.5t44 -19t19 -44z" />
    <glyph glyph-name="yacute" unicode="&#xfd;" horiz-adv-x="519" 
d="M272 79l145 453h80l-184 -571q-2 -5 -11 -29.5t-12.5 -32.5t-13 -30t-15.5 -31t-17.5 -26t-22.5 -25t-25 -17.5t-31 -13t-36 -3.5q-53 0 -109 33l23 45q33 -19 66 -19q25 0 43.5 11t33.5 36t25.5 49.5t25.5 66.5q6 17 9 25h-54l-156 532h99q113 -427 122 -453h15z
M233 600l-53 21l73 180h112z" />
    <glyph glyph-name="ydieresis" unicode="&#xff;" horiz-adv-x="519" 
d="M417 532l-145 -453h-15l-122 453h-99l156 -532h54q-41 -110 -57 -137q-32 -51 -80 -51q-33 0 -66 19l-23 -45q56 -33 109 -33q19 0 36 3.5t31 13t25 17.5t22.5 25t17.5 26t15.5 31t13 30t12.5 32.5t11 29.5l184 571h-80zM237 657q0 -26 -18.5 -44t-44.5 -18t-44 18
t-18 44t18.5 44.5t43.5 18.5q26 0 44.5 -19t18.5 -44zM444 657q0 -26 -18.5 -44t-44.5 -18t-44 18t-18 44t18.5 44.5t43.5 18.5t44 -19t19 -44z" />
    <glyph glyph-name="Amacron" unicode="&#x100;" horiz-adv-x="551" 
d="M556 0h-102l-69 218h-243l-69 -218h-78q32 104 113.5 363t121.5 389h90q37 -119 118 -376t118 -376zM364 283l-100 327l-101 -327h201zM143 795l15 70h251l-15 -70h-251z" />
    <glyph glyph-name="amacron" unicode="&#x101;" horiz-adv-x="524" 
d="M451 348v-255q6 -55 15 -81l-90 -18q-15 57 -20 99q-26 -44 -71 -72t-91 -28q-66 0 -108.5 43t-42.5 121q0 51 24 87t65 54.5t84 26.5t92 8q18 0 48 -2q0 31 -0.5 44.5t-6 37.5t-16.5 34.5t-33 19.5t-55 9q-51 0 -138 -35l-25 69q71 36 165 36q114 0 159 -50.5t45 -147.5
zM356 165v108q-36 2 -57 2q-69 0 -115 -29.5t-46 -89.5q0 -41 18.5 -68t53.5 -27q43 0 86 29.5t60 74.5zM138 615l15 69h237l-15 -69h-237z" />
    <glyph glyph-name="Abreve" unicode="&#x102;" horiz-adv-x="551" 
d="M556 0h-102l-69 218h-243l-69 -218h-78q32 104 113.5 363t121.5 389h90q37 -119 118 -376t118 -376zM364 283l-100 327l-101 -327h201zM423 889q-35 -104 -151 -104q-119 0 -152 104l53 16q24 -49 99 -49q74 0 99 48z" />
    <glyph glyph-name="abreve" unicode="&#x103;" horiz-adv-x="524" 
d="M451 348v-255q6 -55 15 -81l-90 -18q-15 57 -20 99q-26 -44 -71 -72t-91 -28q-66 0 -108.5 43t-42.5 121q0 51 24 87t65 54.5t84 26.5t92 8q18 0 48 -2q0 31 -0.5 44.5t-6 37.5t-16.5 34.5t-33 19.5t-55 9q-51 0 -138 -35l-25 69q71 36 165 36q114 0 159 -50.5t45 -147.5
zM356 165v108q-36 2 -57 2q-69 0 -115 -29.5t-46 -89.5q0 -41 18.5 -68t53.5 -27q43 0 86 29.5t60 74.5zM408 711q-35 -106 -147 -106q-115 0 -148 106l53 16q24 -49 95 -49q42 0 62.5 12t32.5 36z" />
    <glyph glyph-name="Aogonek" unicode="&#x104;" horiz-adv-x="551" 
d="M556 0q-93 -52 -93 -115q0 -25 15.5 -42t45.5 -17q12 0 32 5l16 -44q-31 -21 -75 -21q-46 0 -77.5 27t-31.5 78q0 87 115 129h-49l-69 218h-243l-69 -218h-78q32 104 113.5 363t121.5 389h90q37 -119 118 -376t118 -376zM364 283l-100 327l-101 -327h201z" />
    <glyph glyph-name="aogonek" unicode="&#x105;" horiz-adv-x="531" 
d="M451 348v-255q6 -55 15 -81q-45 -22 -66.5 -49t-21.5 -51q0 -43 40 -43q16 0 39 7l16 -49q-35 -22 -78 -22q-39 0 -65.5 22t-26.5 66q0 65 72 105q-14 52 -19 95q-26 -44 -71 -72t-91 -28q-66 0 -108.5 43t-42.5 121q0 51 24 87t65 54.5t84 26.5t92 8q18 0 48 -2
q0 31 -0.5 44.5t-6 37.5t-16.5 34.5t-33 19.5t-55 9q-51 0 -138 -35l-25 69q71 36 165 36q114 0 159 -50.5t45 -147.5zM356 165v108q-36 2 -57 2q-69 0 -115 -29.5t-46 -89.5q0 -41 18.5 -68t53.5 -27q43 0 86 29.5t60 74.5z" />
    <glyph glyph-name="Cacute" unicode="&#x106;" horiz-adv-x="564" 
d="M488 638q-63 43 -134 43q-58 0 -102 -30.5t-67.5 -79.5t-34.5 -102t-11 -107q0 -50 12 -101t35.5 -98t65.5 -76.5t96 -29.5q86 0 163 56l33 -53q-84 -77 -206 -77q-77 0 -136 32t-93.5 86.5t-51.5 120t-17 139.5q0 75 17.5 142.5t52.5 125t96.5 92t141.5 34.5
q98 0 176 -51zM285 770l-34 33l145 152l93 -53z" />
    <glyph glyph-name="cacute" unicode="&#x107;" horiz-adv-x="462" 
d="M447 46q-65 -60 -166 -60q-102 0 -170 71.5t-68 192.5q0 129 64.5 212.5t182.5 83.5q74 0 140 -39l-28 -61q-62 34 -109 34q-52 0 -87 -32.5t-48.5 -79t-13.5 -103.5q0 -54 13.5 -99.5t51.5 -79.5t95 -34q65 0 125 42zM262 600l-53 21l73 180h112z" />
    <glyph glyph-name="Ccircumflex" unicode="&#x108;" horiz-adv-x="564" 
d="M488 638q-63 43 -134 43q-58 0 -102 -30.5t-67.5 -79.5t-34.5 -102t-11 -107q0 -50 12 -101t35.5 -98t65.5 -76.5t96 -29.5q86 0 163 56l33 -53q-84 -77 -206 -77q-77 0 -136 32t-93.5 86.5t-51.5 120t-17 139.5q0 75 17.5 142.5t52.5 125t96.5 92t141.5 34.5
q98 0 176 -51zM343 849l-128 -79l-36 53l164 110l163 -110l-36 -53z" />
    <glyph glyph-name="ccircumflex" unicode="&#x109;" horiz-adv-x="462" 
d="M447 46q-65 -60 -166 -60q-102 0 -170 71.5t-68 192.5q0 129 64.5 212.5t182.5 83.5q74 0 140 -39l-28 -61q-62 34 -109 34q-52 0 -87 -32.5t-48.5 -79t-13.5 -103.5q0 -54 13.5 -99.5t51.5 -79.5t95 -34q65 0 125 42zM293 807l137 -162l-44 -53l-93 112
q-14 -16 -45 -54.5t-49 -57.5l-42 53z" />
    <glyph glyph-name="Cdotaccent" unicode="&#x10a;" horiz-adv-x="564" 
d="M488 638q-63 43 -134 43q-58 0 -102 -30.5t-67.5 -79.5t-34.5 -102t-11 -107q0 -50 12 -101t35.5 -98t65.5 -76.5t96 -29.5q86 0 163 56l33 -53q-84 -77 -206 -77q-77 0 -136 32t-93.5 86.5t-51.5 120t-17 139.5q0 75 17.5 142.5t52.5 125t96.5 92t141.5 34.5
q98 0 176 -51zM410 852q0 -25 -19 -43.5t-45 -18.5q-25 0 -43.5 18.5t-18.5 43.5q0 26 18.5 45t43.5 19q26 0 45 -19t19 -45z" />
    <glyph glyph-name="cdotaccent" unicode="&#x10b;" horiz-adv-x="462" 
d="M447 46q-65 -60 -166 -60q-102 0 -170 71.5t-68 192.5q0 129 64.5 212.5t182.5 83.5q74 0 140 -39l-28 -61q-62 34 -109 34q-52 0 -87 -32.5t-48.5 -79t-13.5 -103.5q0 -54 13.5 -99.5t51.5 -79.5t95 -34q65 0 125 42zM356 667q0 -26 -18.5 -44t-44.5 -18t-44 18t-18 44
t18.5 44.5t43.5 18.5t44 -19t19 -44z" />
    <glyph glyph-name="Ccaron" unicode="&#x10c;" horiz-adv-x="564" 
d="M488 638q-63 43 -134 43q-58 0 -102 -30.5t-67.5 -79.5t-34.5 -102t-11 -107q0 -50 12 -101t35.5 -98t65.5 -76.5t96 -29.5q86 0 163 56l33 -53q-84 -77 -206 -77q-77 0 -136 32t-93.5 86.5t-51.5 120t-17 139.5q0 75 17.5 142.5t52.5 125t96.5 92t141.5 34.5
q98 0 176 -51zM349 863l128 79l36 -53l-164 -110l-163 110l36 53z" />
    <glyph glyph-name="ccaron" unicode="&#x10d;" horiz-adv-x="462" 
d="M447 46q-65 -60 -166 -60q-102 0 -170 71.5t-68 192.5q0 129 64.5 212.5t182.5 83.5q74 0 140 -39l-28 -61q-62 34 -109 34q-52 0 -87 -32.5t-48.5 -79t-13.5 -103.5q0 -54 13.5 -99.5t51.5 -79.5t95 -34q65 0 125 42zM293 592l-137 162l44 53l93 -112q14 16 45 54.5
t49 57.5l42 -53z" />
    <glyph glyph-name="Dcaron" unicode="&#x10e;" horiz-adv-x="660" 
d="M620 378q0 -75 -19.5 -141.5t-57 -120t-99.5 -85t-140 -31.5h-209v738h209q154 0 235 -100.5t81 -259.5zM522 380q0 73 -21.5 135.5t-73 107t-125.5 44.5h-110v-592h110q56 0 100 29t69 75t38 97.5t13 103.5zM310 853l128 79l36 -53l-164 -110l-163 110l36 53z" />
    <glyph glyph-name="dcaron" unicode="&#x10f;" horiz-adv-x="720" 
d="M502 787v-695q6 -53 15 -80l-90 -18q-17 63 -20 92q-28 -46 -71 -72.5t-92 -26.5q-92 0 -146.5 75.5t-54.5 209.5q0 48 13 94t38.5 87t71 66.5t104.5 25.5q74 0 137 -54v296h95zM407 159v269q-61 52 -124 52q-71 0 -105.5 -60.5t-34.5 -147.5q0 -219 121 -219q45 0 86 31
t57 75zM695 733q0 -21 -69 -154h-58l51 106q-36 11 -36 48q0 22 16.5 38t39.5 16t39.5 -16t16.5 -38z" />
    <glyph glyph-name="Emacron" unicode="&#x112;" 
d="M511 0h-416v738h416v-75h-319v-239h259v-74h-259v-275h319v-75zM180 795l15 70h251l-15 -70h-251z" />
    <glyph glyph-name="emacron" unicode="&#x113;" horiz-adv-x="509" 
d="M383 323q-1 64 -28.5 110.5t-87.5 46.5q-59 0 -89.5 -43.5t-32.5 -113.5h238zM467 255h-322q0 -105 40.5 -154t109.5 -49q67 0 135 31l20 -45q-74 -52 -173 -52q-108 0 -171 75t-63 194q0 53 12 102t37.5 92.5t72 70t108.5 26.5q100 0 148 -65.5t48 -172.5q0 -17 -2 -53z
M147 615l15 69h237l-15 -69h-237z" />
    <glyph glyph-name="Ebreve" unicode="&#x114;" 
d="M511 0h-416v738h416v-75h-319v-239h259v-74h-259v-275h319v-75zM460 889q-35 -104 -151 -104q-119 0 -152 104l53 16q24 -49 99 -49q74 0 99 48z" />
    <glyph glyph-name="ebreve" unicode="&#x115;" horiz-adv-x="509" 
d="M383 323q-1 64 -28.5 110.5t-87.5 46.5q-59 0 -89.5 -43.5t-32.5 -113.5h238zM467 255h-322q0 -105 40.5 -154t109.5 -49q67 0 135 31l20 -45q-74 -52 -173 -52q-108 0 -171 75t-63 194q0 53 12 102t37.5 92.5t72 70t108.5 26.5q100 0 148 -65.5t48 -172.5q0 -17 -2 -53z
M420 706q-35 -106 -147 -106q-115 0 -148 106l53 16q24 -49 95 -49q42 0 62.5 12t32.5 36z" />
    <glyph glyph-name="Edotaccent" unicode="&#x116;" 
d="M511 0h-416v738h416v-75h-319v-239h259v-74h-259v-275h319v-75zM376 839q0 -25 -19 -43.5t-45 -18.5q-25 0 -43.5 18.5t-18.5 43.5q0 26 18.5 45t43.5 19q26 0 45 -19.5t19 -44.5z" />
    <glyph glyph-name="edotaccent" unicode="&#x117;" horiz-adv-x="509" 
d="M383 323q-1 64 -28.5 110.5t-87.5 46.5q-59 0 -89.5 -43.5t-32.5 -113.5h238zM467 255h-322q0 -105 40.5 -154t109.5 -49q67 0 135 31l20 -45q-74 -52 -173 -52q-108 0 -171 75t-63 194q0 53 12 102t37.5 92.5t72 70t108.5 26.5q100 0 148 -65.5t48 -172.5q0 -17 -2 -53z
M336 667q0 -26 -18.5 -44t-44.5 -18t-44 18t-18 44t18.5 44.5t43.5 18.5t44 -19t19 -44z" />
    <glyph glyph-name="Eogonek" unicode="&#x118;" 
d="M511 0q-93 -52 -93 -115q0 -25 15.5 -42t45.5 -17q12 0 32 5l16 -44q-31 -21 -75 -21q-46 0 -77.5 27t-31.5 78q0 87 115 129h-363v738h416v-75h-319v-239h259v-74h-259v-275h319v-75z" />
    <glyph glyph-name="eogonek" unicode="&#x119;" horiz-adv-x="509" 
d="M467 255h-322q0 -105 40.5 -154t109.5 -49q67 0 135 31l20 -45q-9 -7 -49 -28.5t-59.5 -43.5t-19.5 -54q0 -43 40 -43q16 0 39 7l16 -49q-35 -22 -78 -22q-39 0 -65.5 22t-26.5 66q0 56 55 94q-4 0 -12.5 -0.5t-12.5 -0.5q-108 0 -171 75t-63 194q0 53 12 102t37.5 92.5
t72 70t108.5 26.5q100 0 148 -65.5t48 -172.5q0 -17 -2 -53zM383 323q-1 64 -28.5 110.5t-87.5 46.5q-59 0 -89.5 -43.5t-32.5 -113.5h238z" />
    <glyph glyph-name="Ecaron" unicode="&#x11a;" 
d="M310 853l128 79l36 -53l-164 -110l-163 110l36 53zM511 0h-416v738h416v-75h-319v-239h259v-74h-259v-275h319v-75z" />
    <glyph glyph-name="ecaron" unicode="&#x11b;" horiz-adv-x="509" 
d="M383 323q-1 64 -28.5 110.5t-87.5 46.5q-59 0 -89.5 -43.5t-32.5 -113.5h238zM467 255h-322q0 -105 40.5 -154t109.5 -49q67 0 135 31l20 -45q-74 -52 -173 -52q-108 0 -171 75t-63 194q0 53 12 102t37.5 92.5t72 70t108.5 26.5q100 0 148 -65.5t48 -172.5q0 -17 -2 -53z
M273 594l-137 162l44 53l93 -112q14 16 45 54.5t49 57.5l42 -53z" />
    <glyph glyph-name="Gcircumflex" unicode="&#x11c;" horiz-adv-x="635" 
d="M498 636q-77 45 -145 45q-56 0 -99 -31t-67 -80t-35.5 -102t-11.5 -106t10 -102.5t32.5 -97t66 -76.5t103.5 -29q69 0 127 38v179l-145 18v56h231v-277q-103 -88 -233 -88q-73 0 -130.5 32.5t-91.5 87t-51.5 120.5t-17.5 138q0 59 10.5 114.5t34.5 107t59 89.5t88 60.5
t117 22.5q90 0 180 -51zM348 851l-128 -79l-36 53l164 110l163 -110l-36 -53z" />
    <glyph glyph-name="gcircumflex" unicode="&#x11d;" horiz-adv-x="544" 
d="M178 107q0 -23 32 -31t77 -9.5t90.5 -8.5t78.5 -39t35 -90q0 -81 -57 -129.5t-164 -48.5q-91 0 -156.5 40t-65.5 117q0 82 84 116q-27 24 -27 59q0 64 70 83q-54 22 -90 69.5t-36 112.5q0 88 61.5 142.5t150.5 56.5l266 4v-41l-123 -17q72 -53 72 -145q0 -66 -34 -112
t-82.5 -66t-109.5 -25q-19 -2 -27 -3t-21 -4.5t-18.5 -11t-5.5 -19.5zM286 -4h-73q-31 0 -55.5 -21t-24.5 -58q0 -49 36.5 -70t92.5 -21q67 0 105 24t38 71q0 75 -119 75zM384 350q0 55 -31 95.5t-88 40.5q-58 0 -89.5 -41t-31.5 -95t31.5 -95t89.5 -41q57 0 88 40.5
t31 95.5zM271 803l137 -162l-44 -53l-93 112q-14 -16 -45 -54.5t-49 -57.5l-42 53z" />
    <glyph glyph-name="Gbreve" unicode="&#x11e;" horiz-adv-x="635" 
d="M498 636q-77 45 -145 45q-56 0 -99 -31t-67 -80t-35.5 -102t-11.5 -106t10 -102.5t32.5 -97t66 -76.5t103.5 -29q69 0 127 38v179l-145 18v56h231v-277q-103 -88 -233 -88q-73 0 -130.5 32.5t-91.5 87t-51.5 120.5t-17.5 138q0 59 10.5 114.5t34.5 107t59 89.5t88 60.5
t117 22.5q90 0 180 -51zM499 889q-35 -104 -151 -104q-119 0 -152 104l53 16q24 -49 99 -49q74 0 99 48z" />
    <glyph glyph-name="gbreve" unicode="&#x11f;" horiz-adv-x="544" 
d="M178 107q0 -23 32 -31t77 -9.5t90.5 -8.5t78.5 -39t35 -90q0 -81 -57 -129.5t-164 -48.5q-91 0 -156.5 40t-65.5 117q0 82 84 116q-27 24 -27 59q0 64 70 83q-54 22 -90 69.5t-36 112.5q0 88 61.5 142.5t150.5 56.5l266 4v-41l-123 -17q72 -53 72 -145q0 -66 -34 -112
t-82.5 -66t-109.5 -25q-19 -2 -27 -3t-21 -4.5t-18.5 -11t-5.5 -19.5zM286 -4h-73q-31 0 -55.5 -21t-24.5 -58q0 -49 36.5 -70t92.5 -21q67 0 105 24t38 71q0 75 -119 75zM384 350q0 55 -31 95.5t-88 40.5q-58 0 -89.5 -41t-31.5 -95t31.5 -95t89.5 -41q57 0 88 40.5
t31 95.5zM419 718q-35 -106 -147 -106q-115 0 -148 106l53 16q24 -49 95 -49q42 0 62.5 12t32.5 36z" />
    <glyph glyph-name="Gdotaccent" unicode="&#x120;" horiz-adv-x="635" 
d="M498 636q-77 45 -145 45q-56 0 -99 -31t-67 -80t-35.5 -102t-11.5 -106t10 -102.5t32.5 -97t66 -76.5t103.5 -29q69 0 127 38v179l-145 18v56h231v-277q-103 -88 -233 -88q-73 0 -130.5 32.5t-91.5 87t-51.5 120.5t-17.5 138q0 59 10.5 114.5t34.5 107t59 89.5t88 60.5
t117 22.5q90 0 180 -51zM415 852q0 -25 -19 -43.5t-45 -18.5q-25 0 -43.5 18.5t-18.5 43.5q0 26 18.5 45t43.5 19t44.5 -19t19.5 -45z" />
    <glyph glyph-name="gdotaccent" unicode="&#x121;" horiz-adv-x="544" 
d="M178 107q0 -23 32 -31t77 -9.5t90.5 -8.5t78.5 -39t35 -90q0 -81 -57 -129.5t-164 -48.5q-91 0 -156.5 40t-65.5 117q0 82 84 116q-27 24 -27 59q0 64 70 83q-54 22 -90 69.5t-36 112.5q0 88 61.5 142.5t150.5 56.5l266 4v-41l-123 -17q72 -53 72 -145q0 -66 -34 -112
t-82.5 -66t-109.5 -25q-19 -2 -27 -3t-21 -4.5t-18.5 -11t-5.5 -19.5zM286 -4h-73q-31 0 -55.5 -21t-24.5 -58q0 -49 36.5 -70t92.5 -21q67 0 105 24t38 71q0 75 -119 75zM384 350q0 55 -31 95.5t-88 40.5q-58 0 -89.5 -41t-31.5 -95t31.5 -95t89.5 -41q57 0 88 40.5
t31 95.5zM334 667q0 -26 -18.5 -44t-44.5 -18t-44 18t-18 44t18.5 44.5t43.5 18.5t44 -19t19 -44z" />
    <glyph glyph-name="Gcommaaccent" unicode="&#x122;" horiz-adv-x="635" 
d="M498 636q-77 45 -145 45q-56 0 -99 -31t-67 -80t-35.5 -102t-11.5 -106t10 -102.5t32.5 -97t66 -76.5t103.5 -29q69 0 127 38v179l-145 18v56h231v-277q-103 -88 -233 -88q-73 0 -130.5 32.5t-91.5 87t-51.5 120.5t-17.5 138q0 59 10.5 114.5t34.5 107t59 89.5t88 60.5
t117 22.5q90 0 180 -51zM385 -104q0 -21 -69 -154h-58l51 106q-36 11 -36 48q0 22 16.5 38t39.5 16t39.5 -16t16.5 -38z" />
    <glyph glyph-name="gcommaaccent" unicode="&#x123;" horiz-adv-x="544" 
d="M178 107q0 -23 32 -31t77 -9.5t90.5 -8.5t78.5 -39t35 -90q0 -81 -57 -129.5t-164 -48.5q-91 0 -156.5 40t-65.5 117q0 82 84 116q-27 24 -27 59q0 64 70 83q-54 22 -90 69.5t-36 112.5q0 88 61.5 142.5t150.5 56.5l266 4v-41l-123 -17q72 -53 72 -145q0 -66 -34 -112
t-82.5 -66t-109.5 -25q-19 -2 -27 -3t-21 -4.5t-18.5 -11t-5.5 -19.5zM286 -4h-73q-31 0 -55.5 -21t-24.5 -58q0 -49 36.5 -70t92.5 -21q67 0 105 24t38 71q0 75 -119 75zM384 350q0 55 -31 95.5t-88 40.5q-58 0 -89.5 -41t-31.5 -95t31.5 -95t89.5 -41q57 0 88 40.5
t31 95.5zM230 655q0 21 69 154h58l-51 -106q36 -11 36 -48q0 -22 -16.5 -38t-39.5 -16t-39.5 16t-16.5 38z" />
    <glyph glyph-name="Hcircumflex" unicode="&#x124;" horiz-adv-x="709" 
d="M614 0h-97v350h-325v-350h-97v738h97v-314h325v314h97v-738zM359 849l-128 -79l-36 53l164 110l163 -110l-36 -53z" />
    <glyph glyph-name="Itilde" unicode="&#x128;" horiz-adv-x="288" 
d="M192 0h-97v738h97v-738zM337 863q-41 -93 -104 -93q-33 0 -82 26.5t-67 26.5q-32 0 -78 -43l-29 18q23 40 58 66.5t72 26.5q25 0 75.5 -25.5t68.5 -25.5q24 0 55 35z" />
    <glyph glyph-name="itilde" unicode="&#x129;" horiz-adv-x="288" 
d="M190 0h-95v532h95v-532zM307 691q-19 -42 -45 -66.5t-54 -24.5q-31 0 -77.5 25t-63.5 25q-30 0 -71 -37l-30 17q21 38 54.5 63t68.5 25q24 0 72 -24t65 -24q20 0 49 33z" />
    <glyph glyph-name="imacron" unicode="&#x12b;" horiz-adv-x="288" 
d="M190 0h-95v532h95v-532zM16 615l15 63h237l-15 -63h-237z" />
    <glyph glyph-name="Ibreve" unicode="&#x12c;" horiz-adv-x="288" 
d="M192 0h-97v738h97v-738zM293 874q-35 -104 -151 -104q-119 0 -152 104l53 16q24 -49 99 -49q74 0 99 48z" />
    <glyph glyph-name="Iogonek" unicode="&#x12e;" horiz-adv-x="288" 
d="M192 0q-93 -52 -93 -115q0 -25 15.5 -42t45.5 -17q12 0 32 5l16 -44q-31 -21 -75 -21q-46 0 -77.5 27t-31.5 78q0 87 115 129h-44v738h97v-738z" />
    <glyph glyph-name="iogonek" unicode="&#x12f;" horiz-adv-x="288" 
d="M190 0q-37 -21 -56.5 -48t-19.5 -50q0 -43 40 -43q16 0 39 7l16 -49q-35 -22 -78 -22q-39 0 -65.5 22t-26.5 66q0 78 99 117h-43v532h95v-532zM207 688q0 -26 -18.5 -43.5t-45.5 -17.5t-46 18t-19 43t19 42.5t46 17.5t45.5 -17.5t18.5 -42.5z" />
    <glyph glyph-name="Idotaccent" unicode="&#x130;" horiz-adv-x="288" 
d="M192 0h-97v738h97v-738zM207 834q0 -25 -19 -43.5t-45 -18.5q-25 0 -43.5 18.5t-18.5 43.5q0 26 18.5 45t43.5 19t44.5 -19t19.5 -45z" />
    <glyph glyph-name="dotlessi" unicode="&#x131;" horiz-adv-x="288" 
d="M190 0h-95v532h95v-532z" />
    <glyph glyph-name="Jcircumflex" unicode="&#x134;" horiz-adv-x="289" 
d="M97 -89v827h97v-814q0 -82 -66 -131.5t-173 -52.5v48q63 2 102.5 32t39.5 91zM145 847l-128 -79l-36 53l164 110l163 -110l-36 -53z" />
    <glyph glyph-name="jcircumflex" unicode="&#x135;" horiz-adv-x="255" 
d="M160 -102q0 -61 -62 -112t-133 -58v39q100 24 100 146v619h95v-634zM111 804l137 -162l-44 -53l-93 112q-14 -16 -45 -54.5t-49 -57.5l-42 53z" />
    <glyph glyph-name="Kcommaaccent" unicode="&#x136;" horiz-adv-x="574" 
d="M192 738v-318h5l275 314h102l-297 -339l322 -395h-121l-280 350h-6v-350h-97v738h97zM354 -104q0 -21 -69 -154h-58l51 106q-36 11 -36 48q0 22 16.5 38t39.5 16t39.5 -16t16.5 -38z" />
    <glyph glyph-name="kcommaaccent" unicode="&#x137;" horiz-adv-x="499" 
d="M326 -99q0 -11 -11.5 -37.5t-30.5 -62.5t-20 -38h-53l46 94q-32 11 -32 44q0 20 14.5 34.5t35.5 14.5t36 -14.5t15 -34.5zM185 0h-95v787h95v-475h15l198 220h93l-219 -243l237 -289h-118l-198 249h-8v-249z" />
    <glyph glyph-name="Lacute" unicode="&#x139;" horiz-adv-x="495" 
d="M510 0h-415v738h97v-663h318v-75zM142 769l-34 33l145 152l93 -53z" />
    <glyph glyph-name="Lcommaaccent" unicode="&#x13b;" horiz-adv-x="495" 
d="M510 0h-415v738h97v-663h318v-75zM315 -104q0 -21 -69 -154h-58l51 106q-36 11 -36 48q0 22 16.5 38t39.5 16t39.5 -16t16.5 -38z" />
    <glyph glyph-name="lcommaaccent" unicode="&#x13c;" horiz-adv-x="254" 
d="M180 -86q0 -11 -11.5 -37.5t-30.5 -62.5t-20 -38h-53l46 94q-32 11 -32 44q0 20 14.5 34.5t35.5 14.5t36 -14.5t15 -34.5zM173 0h-95v787h95v-787z" />
    <glyph glyph-name="Lcaron" unicode="&#x13d;" horiz-adv-x="495" 
d="M151 854l128 79l36 -53l-164 -110l-163 110l36 53zM510 0h-415v738h97v-663h318v-75z" />
    <glyph glyph-name="lcaron" unicode="&#x13e;" horiz-adv-x="397" 
d="M173 0h-95v787h95v-787zM372 733q0 -21 -69 -154h-58l51 106q-36 11 -36 48q0 22 16.5 38t39.5 16t39.5 -16t16.5 -38z" />
    <glyph glyph-name="Nacute" unicode="&#x143;" horiz-adv-x="696" 
d="M601 0h-86l-335 573h-6v-573h-79v738h94l326 -558h6v558h80v-738zM263 770l-34 33l145 152l93 -53z" />
    <glyph glyph-name="nacute" unicode="&#x144;" horiz-adv-x="594" 
d="M524 0h-95v380q0 44 -21.5 70t-63.5 26q-83 0 -159 -96v-380h-95v532h80l15 -79q85 93 185 93q68 0 111 -38.5t43 -84.5v-423zM259 600l-53 21l73 180h112z" />
    <glyph glyph-name="Ncommaaccent" unicode="&#x145;" horiz-adv-x="696" 
d="M601 0h-86l-335 573h-6v-573h-79v738h94l326 -558h6v558h80v-738zM415 -104q0 -21 -69 -154h-58l51 106q-36 11 -36 48q0 22 16.5 38t39.5 16t39.5 -16t16.5 -38z" />
    <glyph glyph-name="ncommaaccent" unicode="&#x146;" horiz-adv-x="594" 
d="M362 -99q0 -11 -11.5 -37.5t-30.5 -62.5t-20 -38h-53l46 94q-32 11 -32 44q0 20 14.5 34.5t35.5 14.5t36 -14.5t15 -34.5zM524 0h-95v380q0 44 -21.5 70t-63.5 26q-83 0 -159 -96v-380h-95v532h80l15 -79q85 93 185 93q68 0 111 -38.5t43 -84.5v-423z" />
    <glyph glyph-name="Ncaron" unicode="&#x147;" horiz-adv-x="696" 
d="M349 846l128 86l36 -53l-164 -110l-163 110l36 53zM601 0h-86l-335 573h-6v-573h-79v738h94l326 -558h6v558h80v-738z" />
    <glyph glyph-name="ncaron" unicode="&#x148;" horiz-adv-x="594" 
d="M524 0h-95v380q0 44 -21.5 70t-63.5 26q-83 0 -159 -96v-380h-95v532h80l15 -79q85 93 185 93q68 0 111 -38.5t43 -84.5v-423zM297 587l-137 162l44 53l93 -112q14 16 45 54.5t49 57.5l42 -53z" />
    <glyph glyph-name="Omacron" unicode="&#x14c;" horiz-adv-x="678" 
d="M40 370q0 -55 9.5 -108t32 -104t56 -89.5t85.5 -62t116 -23.5t116 23.5t85.5 62t56 89.5t32 104t9.5 108t-9.5 107.5t-32 103.5t-56 89t-85.5 61.5t-116 23.5t-116 -23.5t-85.5 -61.5t-56 -89t-32 -103.5t-9.5 -107.5zM137 370q0 55 10.5 106.5t32.5 99t63 76.5t96 29
t96 -29t63 -76.5t32.5 -99t10.5 -106.5t-10.5 -106.5t-32.5 -99.5t-63 -77.5t-96 -29.5t-96 29.5t-63 77.5t-32.5 99.5t-10.5 106.5zM209 813l15 70h251l-15 -70h-251z" />
    <glyph glyph-name="omacron" unicode="&#x14d;" horiz-adv-x="580" 
d="M538 265q0 -119 -62 -199t-186 -80t-186 80t-62 199q0 120 62.5 200.5t185.5 80.5t185.5 -80.5t62.5 -200.5zM438 265q0 40 -7 75.5t-23 69t-46.5 53.5t-71.5 20t-71.5 -20t-46.5 -53.5t-23 -69t-7 -75.5q0 -55 11.5 -100t46.5 -80.5t90 -35.5t90 35.5t46.5 80.5
t11.5 100zM164 616l15 69h237l-15 -69h-237z" />
    <glyph glyph-name="Obreve" unicode="&#x14e;" horiz-adv-x="678" 
d="M40 370q0 -55 9.5 -108t32 -104t56 -89.5t85.5 -62t116 -23.5t116 23.5t85.5 62t56 89.5t32 104t9.5 108t-9.5 107.5t-32 103.5t-56 89t-85.5 61.5t-116 23.5t-116 -23.5t-85.5 -61.5t-56 -89t-32 -103.5t-9.5 -107.5zM137 370q0 55 10.5 106.5t32.5 99t63 76.5t96 29
t96 -29t63 -76.5t32.5 -99t10.5 -106.5t-10.5 -106.5t-32.5 -99.5t-63 -77.5t-96 -29.5t-96 29.5t-63 77.5t-32.5 99.5t-10.5 106.5zM489 896q-35 -104 -151 -104q-119 0 -152 104l53 16q24 -49 99 -49q74 0 99 48z" />
    <glyph glyph-name="obreve" unicode="&#x14f;" horiz-adv-x="580" 
d="M538 265q0 -119 -62 -199t-186 -80t-186 80t-62 199q0 120 62.5 200.5t185.5 80.5t185.5 -80.5t62.5 -200.5zM438 265q0 40 -7 75.5t-23 69t-46.5 53.5t-71.5 20t-71.5 -20t-46.5 -53.5t-23 -69t-7 -75.5q0 -55 11.5 -100t46.5 -80.5t90 -35.5t90 35.5t46.5 80.5
t11.5 100zM437 706q-35 -106 -147 -106q-115 0 -148 106l53 16q24 -49 95 -49q42 0 62.5 12t32.5 36z" />
    <glyph glyph-name="Ohungarumlaut" unicode="&#x150;" horiz-adv-x="678" 
d="M232 768l-43 15l75 182h116zM388 768l-43 15l75 182h116zM40 370q0 -55 9.5 -108t32 -104t56 -89.5t85.5 -62t116 -23.5t116 23.5t85.5 62t56 89.5t32 104t9.5 108t-9.5 107.5t-32 103.5t-56 89t-85.5 61.5t-116 23.5t-116 -23.5t-85.5 -61.5t-56 -89t-32 -103.5
t-9.5 -107.5zM137 370q0 55 10.5 106.5t32.5 99t63 76.5t96 29t96 -29t63 -76.5t32.5 -99t10.5 -106.5t-10.5 -106.5t-32.5 -99.5t-63 -77.5t-96 -29.5t-96 29.5t-63 77.5t-32.5 99.5t-10.5 106.5z" />
    <glyph glyph-name="ohungarumlaut" unicode="&#x151;" horiz-adv-x="580" 
d="M538 265q0 -119 -62 -199t-186 -80t-186 80t-62 199q0 120 62.5 200.5t185.5 80.5t185.5 -80.5t62.5 -200.5zM438 265q0 40 -7 75.5t-23 69t-46.5 53.5t-71.5 20t-71.5 -20t-46.5 -53.5t-23 -69t-7 -75.5q0 -55 11.5 -100t46.5 -80.5t90 -35.5t90 35.5t46.5 80.5
t11.5 100zM200 600l-45 15l80 196h118zM355 600l-45 15l80 196h118z" />
    <glyph glyph-name="OE" unicode="&#x152;" horiz-adv-x="927" 
d="M881 0h-398q-13 0 -53.5 -8.5t-63.5 -8.5q-66 0 -119.5 23.5t-88.5 61.5t-58 89t-33 103.5t-10 107.5q0 66 16 130.5t48.5 123.5t91.5 95.5t136 36.5q23 0 65 -8t67 -8h400v-75h-313v-239h253v-74h-253v-279h313v-71zM366 58q57 0 107 31v560q-47 34 -107 34
q-71 0 -121 -53.5t-70.5 -122.5t-20.5 -139q0 -51 12.5 -103t36.5 -99.5t66.5 -77.5t96.5 -30z" />
    <glyph glyph-name="oe" unicode="&#x153;" horiz-adv-x="904" 
d="M862 255h-322q0 -105 40.5 -154t109.5 -49q67 0 135 31l20 -45q-74 -52 -173 -52q-63 0 -112 31t-74 89q-25 -50 -78 -85t-118 -35q-124 0 -186 80t-62 199q0 120 62.5 200.5t185.5 80.5q68 0 120.5 -32.5t76.5 -84.5q20 56 67.5 86.5t113.5 30.5q100 0 148 -65.5
t48 -172.5q0 -17 -2 -53zM438 265q0 40 -7 75.5t-23 69t-46.5 53.5t-71.5 20t-71.5 -20t-46.5 -53.5t-23 -69t-7 -75.5q0 -55 11.5 -100t46.5 -80.5t90 -35.5q53 0 87.5 33t47 76.5t13.5 96.5v10zM778 323q-1 64 -28.5 110.5t-87.5 46.5q-59 0 -89.5 -43.5t-32.5 -113.5h238
z" />
    <glyph glyph-name="Racute" unicode="&#x154;" horiz-adv-x="584" 
d="M564 0h-108l-166 312h-98v-312h-97v738h176q262 0 262 -204q0 -69 -38 -121.5t-111 -81.5q31 -61 93.5 -173.5t86.5 -157.5zM281 381q66 0 109.5 39.5t43.5 105.5q0 68 -46.5 104.5t-130.5 36.5h-65v-286h89zM187 784l-34 33l145 152l93 -53z" />
    <glyph glyph-name="racute" unicode="&#x155;" horiz-adv-x="423" 
d="M428 501l-30 -69q-33 33 -83 33q-54 0 -92 -45.5t-38 -105.5v-314h-95v532h80l15 -106q13 50 52 84.5t88 34.5q51 0 103 -44zM225 599l-53 21l73 180h112z" />
    <glyph glyph-name="Rcommaaccent" unicode="&#x156;" horiz-adv-x="584" 
d="M564 0h-108l-166 312h-98v-312h-97v738h176q262 0 262 -204q0 -69 -38 -121.5t-111 -81.5q31 -61 93.5 -173.5t86.5 -157.5zM281 381q66 0 109.5 39.5t43.5 105.5q0 68 -46.5 104.5t-130.5 36.5h-65v-286h89zM357 -104q0 -21 -69 -154h-58l51 106q-36 11 -36 48
q0 22 16.5 38t39.5 16t39.5 -16t16.5 -38z" />
    <glyph glyph-name="rcommaaccent" unicode="&#x157;" horiz-adv-x="423" 
d="M186 -99q0 -11 -11.5 -37.5t-30.5 -62.5t-20 -38h-53l46 94q-32 11 -32 44q0 20 14.5 34.5t35.5 14.5t36 -14.5t15 -34.5zM428 501l-30 -69q-33 33 -83 33q-54 0 -92 -45.5t-38 -105.5v-314h-95v532h80l15 -106q13 50 52 84.5t88 34.5q51 0 103 -44z" />
    <glyph glyph-name="Rcaron" unicode="&#x158;" horiz-adv-x="584" 
d="M564 0h-108l-166 312h-98v-312h-97v738h176q262 0 262 -204q0 -69 -38 -121.5t-111 -81.5q31 -61 93.5 -173.5t86.5 -157.5zM281 381q66 0 109.5 39.5t43.5 105.5q0 68 -46.5 104.5t-130.5 36.5h-65v-286h89zM310 853l128 79l36 -53l-164 -110l-163 110l36 53z" />
    <glyph glyph-name="rcaron" unicode="&#x159;" horiz-adv-x="423" 
d="M428 501l-30 -69q-33 33 -83 33q-54 0 -92 -45.5t-38 -105.5v-314h-95v532h80l15 -106q13 50 52 84.5t88 34.5q51 0 103 -44zM238 591l-137 162l44 53l93 -112q14 16 45 54.5t49 57.5l42 -53z" />
    <glyph glyph-name="Sacute" unicode="&#x15a;" 
d="M395 196q0 37 -25.5 67t-64 48.5t-83 41.5t-83 46t-64 62.5t-25.5 89.5q0 96 64.5 150t156.5 54q105 0 201 -71l-39 -62q-87 59 -162 59q-49 0 -87.5 -29t-38.5 -83q0 -30 19 -54.5t49 -41.5t66.5 -34t73.5 -37.5t67 -46t49 -65t19 -89.5q0 -95 -64 -156.5t-169 -61.5
q-122 0 -217 90l35 59q97 -75 181 -75q60 0 100.5 37.5t40.5 101.5zM224 770l-34 33l145 152l93 -53z" />
    <glyph glyph-name="sacute" unicode="&#x15b;" horiz-adv-x="466" 
d="M330 130q0 34 -28 58.5t-68 41.5t-79.5 36t-67.5 52.5t-28 80.5q0 73 52.5 110t128.5 37q87 0 166 -44l-22 -61q-66 39 -139 39q-38 0 -65.5 -19t-27.5 -55q0 -28 27.5 -48t67.5 -36t79.5 -35.5t67 -56.5t27.5 -89q0 -73 -52 -114t-132 -41q-101 0 -187 64l26 55
q83 -51 157 -51q45 0 71 19.5t26 56.5zM199 599l-53 21l73 180h112z" />
    <glyph glyph-name="Scircumflex" unicode="&#x15c;" 
d="M395 196q0 37 -25.5 67t-64 48.5t-83 41.5t-83 46t-64 62.5t-25.5 89.5q0 96 64.5 150t156.5 54q105 0 201 -71l-39 -62q-87 59 -162 59q-49 0 -87.5 -29t-38.5 -83q0 -30 19 -54.5t49 -41.5t66.5 -34t73.5 -37.5t67 -46t49 -65t19 -89.5q0 -95 -64 -156.5t-169 -61.5
q-122 0 -217 90l35 59q97 -75 181 -75q60 0 100.5 37.5t40.5 101.5zM273 848l-128 -79l-36 53l164 110l163 -110l-36 -53z" />
    <glyph glyph-name="scircumflex" unicode="&#x15d;" horiz-adv-x="466" 
d="M330 130q0 34 -28 58.5t-68 41.5t-79.5 36t-67.5 52.5t-28 80.5q0 73 52.5 110t128.5 37q87 0 166 -44l-22 -61q-66 39 -139 39q-38 0 -65.5 -19t-27.5 -55q0 -28 27.5 -48t67.5 -36t79.5 -35.5t67 -56.5t27.5 -89q0 -73 -52 -114t-132 -41q-101 0 -187 64l26 55
q83 -51 157 -51q45 0 71 19.5t26 56.5zM243 807l137 -162l-44 -53l-93 112q-14 -16 -45 -54.5t-49 -57.5l-42 53z" />
    <glyph glyph-name="Scedilla" unicode="&#x15e;" 
d="M395 196q0 37 -25.5 67t-64 48.5t-83 41.5t-83 46t-64 62.5t-25.5 89.5q0 96 64.5 150t156.5 54q105 0 201 -71l-39 -62q-87 59 -162 59q-49 0 -87.5 -29t-38.5 -83q0 -30 19 -54.5t49 -41.5t66.5 -34t73.5 -37.5t67 -46t49 -65t19 -89.5q0 -85 -53 -144.5t-141 -70.5
l-4 -25q36 -6 55 -28.5t19 -53.5q0 -55 -46.5 -86.5t-106.5 -31.5l-3 49q35 0 59.5 16t24.5 40q0 39 -51 39q-9 0 -14 -1l-7 5l15 75q-111 8 -197 89l35 59q97 -75 181 -75q60 0 100.5 37.5t40.5 101.5z" />
    <glyph glyph-name="scedilla" unicode="&#x15f;" horiz-adv-x="456" 
d="M330 130q0 34 -28 58.5t-68 41.5t-79.5 36t-67.5 52.5t-28 80.5q0 73 52.5 110t128.5 37q87 0 166 -44l-22 -61q-66 39 -139 39q-38 0 -65.5 -19t-27.5 -55q0 -28 27.5 -48t67.5 -36t79.5 -35.5t67 -56.5t27.5 -89q0 -68 -45 -108.5t-118 -45.5l-4 -24q35 -7 55.5 -28.5
t20.5 -50.5q0 -52 -42.5 -76.5t-102.5 -24.5l-5 52q76 0 76 43q0 13 -11.5 22t-32.5 9q-9 0 -14 -1l-3 5l15 74q-88 8 -160 63l26 55q83 -51 157 -51q45 0 71 19.5t26 56.5z" />
    <glyph glyph-name="Scaron" unicode="&#x160;" 
d="M395 196q0 37 -25.5 67t-64 48.5t-83 41.5t-83 46t-64 62.5t-25.5 89.5q0 96 64.5 150t156.5 54q105 0 201 -71l-39 -62q-87 59 -162 59q-49 0 -87.5 -29t-38.5 -83q0 -30 19 -54.5t49 -41.5t66.5 -34t73.5 -37.5t67 -46t49 -65t19 -89.5q0 -95 -64 -156.5t-169 -61.5
q-122 0 -217 90l35 59q97 -75 181 -75q60 0 100.5 37.5t40.5 101.5zM278 853l128 79l36 -53l-164 -110l-163 110l36 53z" />
    <glyph glyph-name="scaron" unicode="&#x161;" horiz-adv-x="456" 
d="M330 130q0 34 -28 58.5t-68 41.5t-79.5 36t-67.5 52.5t-28 80.5q0 73 52.5 110t128.5 37q87 0 166 -44l-22 -61q-66 39 -139 39q-38 0 -65.5 -19t-27.5 -55q0 -28 27.5 -48t67.5 -36t79.5 -35.5t67 -56.5t27.5 -89q0 -73 -52 -114t-132 -41q-101 0 -187 64l26 55
q83 -51 157 -51q45 0 71 19.5t26 56.5zM243 621l-137 162l44 53l93 -112q14 16 45 54.5t49 57.5l42 -53z" />
    <glyph glyph-name="Tcommaaccent" unicode="&#x162;" horiz-adv-x="557" 
d="M547 663h-219v-663h-99v663h-219v75h537v-75zM346 -104q0 -21 -69 -154h-58l51 106q-36 11 -36 48q0 22 16.5 38t39.5 16t39.5 -16t16.5 -38z" />
    <glyph glyph-name="tcommaaccent" unicode="&#x163;" horiz-adv-x="382" 
d="M254 -99q0 -11 -11.5 -37.5t-30.5 -62.5t-20 -38h-53l46 94q-32 11 -32 44q0 20 14.5 34.5t35.5 14.5t36 -14.5t15 -34.5zM355 490l-174 -25v-356q0 -56 43 -56q42 0 88 32l21 -46q-58 -53 -140 -53q-48 0 -77.5 37t-29.5 89v353h-71v67h71l33 146h62v-146h174v-42z" />
    <glyph glyph-name="Tcaron" unicode="&#x164;" horiz-adv-x="557" 
d="M547 663h-219v-663h-99v663h-219v75h537v-75zM278 853l128 79l36 -53l-164 -110l-163 110l36 53z" />
    <glyph glyph-name="tcaron" unicode="&#x165;" horiz-adv-x="484" 
d="M355 490l-174 -25v-356q0 -56 43 -56q42 0 88 32l21 -46q-58 -53 -140 -53q-48 0 -77.5 37t-29.5 89v353h-71v67h71l33 146h62v-146h174v-42zM459 733q0 -21 -69 -154h-58l51 106q-36 11 -36 48q0 22 16.5 38t39.5 16t39.5 -16t16.5 -38z" />
    <glyph glyph-name="Utilde" unicode="&#x168;" horiz-adv-x="635" 
d="M575 240q0 -115 -77 -186t-192 -71q-112 0 -179 72t-67 185v498h98v-507q0 -73 44.5 -123.5t117.5 -50.5q74 0 124.5 51t50.5 123v507h80v-498zM517 863q-41 -93 -104 -93q-33 0 -82 26.5t-67 26.5q-32 0 -78 -43l-29 18q23 40 58 66.5t72 26.5q25 0 75.5 -25.5
t68.5 -25.5q24 0 55 35z" />
    <glyph glyph-name="utilde" unicode="&#x169;" horiz-adv-x="599" 
d="M248 -14q-67 0 -117.5 44.5t-50.5 130.5v371h95v-353q0 -61 27 -89t71 -28q43 0 85 29t61 70v371h95v-440q6 -53 15 -80l-90 -18q-16 62 -20 94q-62 -102 -171 -102zM468 692q-19 -42 -45 -66.5t-54 -24.5q-31 0 -77.5 25t-63.5 25q-30 0 -71 -37l-30 17q21 38 54.5 63
t68.5 25q24 0 72 -24t65 -24q20 0 49 33z" />
    <glyph glyph-name="Umacron" unicode="&#x16a;" horiz-adv-x="635" 
d="M575 240q0 -115 -77 -186t-192 -71q-112 0 -179 72t-67 185v498h98v-507q0 -73 44.5 -123.5t117.5 -50.5q74 0 124.5 51t50.5 123v507h80v-498zM193 770l15 70h251l-15 -70h-251z" />
    <glyph glyph-name="umacron" unicode="&#x16b;" horiz-adv-x="599" 
d="M248 -14q-67 0 -117.5 44.5t-50.5 130.5v371h95v-353q0 -61 27 -89t71 -28q43 0 85 29t61 70v371h95v-440q6 -53 15 -80l-90 -18q-16 62 -20 94q-62 -102 -171 -102zM177 615l15 69h237l-15 -69h-237z" />
    <glyph glyph-name="Ubreve" unicode="&#x16c;" horiz-adv-x="635" 
d="M575 240q0 -115 -77 -186t-192 -71q-112 0 -179 72t-67 185v498h98v-507q0 -73 44.5 -123.5t117.5 -50.5q74 0 124.5 51t50.5 123v507h80v-498zM473 874q-35 -104 -151 -104q-119 0 -152 104l53 16q24 -49 99 -49q74 0 99 48z" />
    <glyph glyph-name="ubreve" unicode="&#x16d;" horiz-adv-x="599" 
d="M248 -14q-67 0 -117.5 44.5t-50.5 130.5v371h95v-353q0 -61 27 -89t71 -28q43 0 85 29t61 70v371h95v-440q6 -53 15 -80l-90 -18q-16 62 -20 94q-62 -102 -171 -102zM450 706q-35 -106 -147 -106q-115 0 -148 106l53 16q24 -49 95 -49q42 0 62.5 12t32.5 36z" />
    <glyph glyph-name="Uring" unicode="&#x16e;" horiz-adv-x="635" 
d="M575 240q0 -115 -77 -186t-192 -71q-112 0 -179 72t-67 185v498h98v-507q0 -73 44.5 -123.5t117.5 -50.5q74 0 124.5 51t50.5 123v507h80v-498zM364 861q0 20 -13 30.5t-31 10.5t-31 -11t-13 -30q0 -20 13 -30.5t30 -10.5q18 0 31.5 11t13.5 30zM428 861q0 -43 -31.5 -67
t-75.5 -24t-76.5 24t-32.5 67t31.5 67t75.5 24t76.5 -24t32.5 -67z" />
    <glyph glyph-name="uring" unicode="&#x16f;" horiz-adv-x="599" 
d="M248 -14q-67 0 -117.5 44.5t-50.5 130.5v371h95v-353q0 -61 27 -89t71 -28q43 0 85 29t61 70v371h95v-440q6 -53 15 -80l-90 -18q-16 62 -20 94q-62 -102 -171 -102zM345 691q0 20 -13 30.5t-31 10.5t-31 -11t-13 -30q0 -20 13 -30.5t30 -10.5q18 0 31.5 11t13.5 30z
M409 691q0 -43 -31.5 -67t-75.5 -24t-76.5 24t-32.5 67t31.5 67t75.5 24t76.5 -24t32.5 -67z" />
    <glyph glyph-name="Uhungarumlaut" unicode="&#x170;" horiz-adv-x="635" 
d="M575 240q0 -115 -77 -186t-192 -71q-112 0 -179 72t-67 185v498h98v-507q0 -73 44.5 -123.5t117.5 -50.5q74 0 124.5 51t50.5 123v507h80v-498zM235 770l-43 15l75 182h116zM391 770l-43 15l75 182h116z" />
    <glyph glyph-name="uhungarumlaut" unicode="&#x171;" horiz-adv-x="599" 
d="M248 -14q-67 0 -117.5 44.5t-50.5 130.5v371h95v-353q0 -61 27 -89t71 -28q43 0 85 29t61 70v371h95v-440q6 -53 15 -80l-90 -18q-16 62 -20 94q-62 -102 -171 -102zM213 600l-45 15l80 196h118zM368 600l-45 15l80 196h118z" />
    <glyph glyph-name="Uogonek" unicode="&#x172;" horiz-adv-x="635" 
d="M575 240q0 -91 -49.5 -155.5t-130.5 -88.5q-83 -51 -83 -110q0 -25 15.5 -42t45.5 -17q12 0 32 5l16 -44q-31 -21 -75 -21q-46 0 -77.5 27t-31.5 78q0 70 75 111h-6q-112 0 -179 72t-67 185v498h98v-507q0 -73 44.5 -123.5t117.5 -50.5q74 0 124.5 51t50.5 123v507h80
v-498z" />
    <glyph glyph-name="uogonek" unicode="&#x173;" horiz-adv-x="599" 
d="M248 -14q-67 0 -117.5 44.5t-50.5 130.5v371h95v-353q0 -61 27 -89t71 -28q43 0 85 29t61 70v371h95v-440q6 -53 15 -80q-49 -13 -72 -44.5t-23 -57.5q0 -43 40 -43q16 0 39 7l16 -49q-35 -22 -78 -22q-39 0 -65.5 22t-26.5 66q0 68 78 108q-15 53 -18 89
q-62 -102 -171 -102z" />
    <glyph glyph-name="Wcircumflex" unicode="&#x174;" horiz-adv-x="881" 
d="M229 -13h65l147 536l150 -536h69l211 751h-79l-161 -580h-1l-153 580h-57q-55 -213 -100 -376t-52 -192h-1l-152 568h-100zM447 850l-128 -79l-36 53l164 110l163 -110l-36 -53z" />
    <glyph glyph-name="wcircumflex" unicode="&#x175;" horiz-adv-x="763" 
d="M744 532h-74l-116 -412h-2l-129 412h-65l-120 -412h-2l-119 412h-96l164 -544h86l110 384h2l122 -384h82zM381 803l137 -162l-44 -53l-93 112q-14 -16 -45 -54.5t-49 -57.5l-42 53z" />
    <glyph glyph-name="Ycircumflex" unicode="&#x176;" horiz-adv-x="570" 
d="M555 738l-223 -429v-309h-98v307q-35 68 -112 215.5t-112 215.5h108l173 -334h4l173 334h87zM285 849l-128 -79l-36 53l164 110l163 -110l-36 -53z" />
    <glyph glyph-name="ycircumflex" unicode="&#x177;" horiz-adv-x="519" 
d="M417 532l-145 -453h-15l-122 453h-99l156 -532h54q-41 -110 -57 -137q-32 -51 -80 -51q-33 0 -66 19l-23 -45q56 -33 109 -33q19 0 36 3.5t31 13t25 17.5t22.5 25t17.5 26t15.5 31t13 30t12.5 32.5t11 29.5l184 571h-80zM273 806l137 -162l-44 -53l-93 112
q-14 -16 -45 -54.5t-49 -57.5l-42 53z" />
    <glyph glyph-name="Ydieresis" unicode="&#x178;" horiz-adv-x="570" 
d="M555 738l-223 -429v-309h-98v307q-35 68 -112 215.5t-112 215.5h108l173 -334h4l173 334h87zM252 844q0 -25 -19 -43.5t-45 -18.5q-25 0 -43.5 18.5t-18.5 43.5q0 26 18.5 45t43.5 19q26 0 45 -19t19 -45zM465 844q0 -25 -19 -43.5t-45 -18.5q-25 0 -43.5 18.5
t-18.5 43.5q0 26 18.5 45t43.5 19t44.5 -19t19.5 -45z" />
    <glyph glyph-name="Zacute" unicode="&#x179;" horiz-adv-x="504" 
d="M489 0h-477v75l358 588h-345v75h453v-75l-358 -588h369v-75zM159 770l-34 33l145 152l93 -53z" />
    <glyph glyph-name="zacute" unicode="&#x17a;" horiz-adv-x="454" 
d="M431 0h-398v63l283 402h-280v67h394v-63l-283 -403h284v-66zM201 600l-53 21l73 180h112z" />
    <glyph glyph-name="Zdotaccent" unicode="&#x17b;" horiz-adv-x="504" 
d="M489 0h-477v75l358 588h-345v75h453v-75l-358 -588h369v-75zM315 834q0 -25 -19 -43.5t-45 -18.5q-25 0 -43.5 18.5t-18.5 43.5q0 26 18.5 45t43.5 19t44.5 -19t19.5 -45z" />
    <glyph glyph-name="zdotaccent" unicode="&#x17c;" horiz-adv-x="454" 
d="M431 0h-398v63l283 402h-280v67h394v-63l-283 -403h284v-66zM298 668q0 -26 -18.5 -44t-44.5 -18t-44 18t-18 44t18.5 44.5t43.5 18.5t44 -18.5t19 -44.5z" />
    <glyph glyph-name="Zcaron" unicode="&#x17d;" horiz-adv-x="504" 
d="M489 0h-477v73l358 590h-345v75h453v-73l-358 -590h369v-75zM255 846l128 86l36 -53l-164 -110l-163 110l36 53z" />
    <glyph glyph-name="zcaron" unicode="&#x17e;" horiz-adv-x="454" 
d="M431 0h-398v63l283 402h-280v67h394v-63l-283 -403h284v-66zM246 591l-137 162l44 53l93 -112q14 16 45 54.5t49 57.5l42 -53z" />
    <glyph glyph-name="florin" unicode="&#x192;" horiz-adv-x="822" 
d="M442 581q28 80 88 127.5t146 47.5q72 0 121 -35l-35 -48q-36 21 -80 21q-31 0 -57 -14.5t-41 -32t-29.5 -50.5t-20 -50.5t-15.5 -52.5h92l-15 -51h-92q-16 -55 -49 -165.5t-49 -165.5q-15 -49 -35.5 -96.5t-52.5 -99.5t-76.5 -84t-94.5 -32q-79 0 -122 40l27 48
q43 -26 87 -26q84 0 148 211q21 68 57 193.5t51 176.5h-91l15 51h92z" />
    <glyph glyph-name="AEacute" unicode="&#x1fc;" horiz-adv-x="869" 
d="M854 0h-416v218q-37 0 -111.5 -0.5t-111.5 -0.5l-128 -217h-87l438 738h416v-74h-319v-240h259v-74h-259v-275h319v-75zM254 284h184v306zM554 770l-34 33l145 152l93 -53z" />
    <glyph glyph-name="aeacute" unicode="&#x1fd;" horiz-adv-x="815" 
d="M439 589l-53 21l73 180h112zM583 546q99 0 145.5 -65t46.5 -173q0 -17 -2 -53h-320q0 -45 6 -77.5t21.5 -62t46.5 -45t77 -15.5q71 0 134 31l20 -48q-41 -30 -81.5 -41t-98.5 -11q-129 0 -187 104q-31 -48 -84 -76t-107 -28q-67 0 -112 43.5t-45 127.5q0 51 24 87
t65 54.5t84 26.5t92 8q9 0 27 -0.5t25 -0.5q0 36 -2.5 55t-12.5 43t-35 35t-65 11q-51 0 -138 -35l-25 69q71 36 165 36q113 0 165 -86q60 82 171 86zM354 255v18q-34 2 -55 2q-69 0 -115 -29.5t-46 -89.5q0 -101 82 -101q40 0 85 24t67 54q-18 53 -18 122zM577 480
q-55 0 -88.5 -45t-35.5 -112h236q-3 155 -112 157z" />
    <glyph glyph-name="Scommaaccent" unicode="&#x218;" 
d="M395 196q0 37 -25.5 67t-64 48.5t-83 41.5t-83 46t-64 62.5t-25.5 89.5q0 96 64.5 150t156.5 54q105 0 201 -71l-39 -62q-87 59 -162 59q-49 0 -87.5 -29t-38.5 -83q0 -30 19 -54.5t49 -41.5t66.5 -34t73.5 -37.5t67 -46t49 -65t19 -89.5q0 -95 -64 -156.5t-169 -61.5
q-122 0 -217 90l35 59q97 -75 181 -75q60 0 100.5 37.5t40.5 101.5zM346 -104q0 -21 -69 -154h-58l51 106q-36 11 -36 48q0 22 16.5 38t39.5 16t39.5 -16t16.5 -38z" />
    <glyph glyph-name="scommaaccent" unicode="&#x219;" horiz-adv-x="456" 
d="M294 -99q0 -11 -11.5 -37.5t-30.5 -62.5t-20 -38h-53l46 94q-32 11 -32 44q0 20 14.5 34.5t35.5 14.5t36 -14.5t15 -34.5zM330 130q0 34 -28 58.5t-68 41.5t-79.5 36t-67.5 52.5t-28 80.5q0 73 52.5 110t128.5 37q87 0 166 -44l-22 -61q-66 39 -139 39q-38 0 -65.5 -19
t-27.5 -55q0 -28 27.5 -48t67.5 -36t79.5 -35.5t67 -56.5t27.5 -89q0 -73 -52 -114t-132 -41q-101 0 -187 64l26 55q83 -51 157 -51q45 0 71 19.5t26 56.5z" />
    <glyph glyph-name="circumflex" unicode="&#x2c6;" horiz-adv-x="323" 
d="M156 803l137 -162l-44 -53l-93 112q-14 -16 -45 -54.5t-49 -57.5l-42 53z" />
    <glyph glyph-name="caron" unicode="&#x2c7;" horiz-adv-x="323" 
d="M157 587l-137 162l44 53l93 -112q14 16 45 54.5t49 57.5l42 -53z" />
    <glyph glyph-name="breve" unicode="&#x2d8;" horiz-adv-x="345" 
d="M315 698q-35 -106 -147 -106q-115 0 -148 106l53 16q24 -49 95 -49q42 0 62.5 12t32.5 36z" />
    <glyph glyph-name="dotaccent" unicode="&#x2d9;" horiz-adv-x="175" 
d="M145 659q0 -26 -18.5 -44t-44.5 -18t-44 18t-18 44t18.5 44.5t43.5 18.5q26 0 44.5 -19t18.5 -44z" />
    <glyph glyph-name="ring" unicode="&#x2da;" horiz-adv-x="266" 
d="M172 681q0 20 -13 30.5t-31 10.5t-31 -11t-13 -30q0 -20 13 -30.5t30 -10.5q18 0 31.5 11t13.5 30zM236 681q0 -43 -31.5 -67t-75.5 -24t-76.5 24t-32.5 67t31.5 67t75.5 24t76.5 -24t32.5 -67z" />
    <glyph glyph-name="ogonek" unicode="&#x2db;" horiz-adv-x="220" 
d="M133 15l38 -5q-37 -21 -56.5 -48t-19.5 -50q0 -43 40 -43q16 0 39 7l16 -49q-35 -22 -78 -22q-39 0 -65.5 22t-26.5 66t32.5 75t80.5 47z" />
    <glyph glyph-name="tilde" unicode="&#x2dc;" horiz-adv-x="391" 
d="M361 704q-19 -42 -45 -66.5t-54 -24.5q-31 0 -77.5 25t-63.5 25q-30 0 -71 -37l-30 17q21 38 54.5 63t68.5 25q24 0 72 -24t65 -24q20 0 49 33z" />
    <glyph glyph-name="hungarumlaut" unicode="&#x2dd;" horiz-adv-x="403" 
d="M75 588l-45 15l80 196h118zM230 588l-45 15l80 196h118z" />
    <glyph glyph-name="afii10023" unicode="&#x401;" 
d="M240 828q0 -27 -17.5 -44.5t-41.5 -17.5t-41 17.5t-17 44.5q0 26 17 44.5t41 18.5t41.5 -18.5t17.5 -44.5zM450 829q0 -27 -17 -44.5t-42 -17.5q-24 0 -41 17.5t-17 44.5q0 26 17 44.5t41 18.5q25 0 42 -18.5t17 -44.5zM496 0h-416v738h416v-74h-319v-240h259v-74h-259
v-276h319v-74z" />
    <glyph glyph-name="afii10051" unicode="&#x402;" horiz-adv-x="676" 
d="M248 668v-233q86 92 184 92q68 0 111 -38.5t43 -84.5v-310q0 -50 -3.5 -91t-16 -87t-33.5 -76.5t-58.5 -51t-87.5 -20.5q-19 0 -38 3l-2 46q34 0 59 7.5t40.5 25t24.5 36t13.5 50.5t5.5 57t1 68v300q0 47 -24 71.5t-62 24.5q-82 0 -157 -95v-362h-95v668h-168v70h484v-70
h-221z" />
    <glyph glyph-name="afii10052" unicode="&#x403;" horiz-adv-x="479" 
d="M479 657h-299v-657h-97v738h396v-81zM251 769l-29 11l64 156q16 40 50 40q16 0 26.5 -10t10.5 -27q0 -24 -23 -51z" />
    <glyph glyph-name="afii10053" unicode="&#x404;" horiz-adv-x="557" 
d="M527 53q-76 -70 -192 -70q-131 0 -213 103t-82 288q0 194 81.5 287.5t222.5 93.5q100 0 173 -52l-40 -58q-67 35 -130 35q-92 0 -148 -67t-62 -206h264v-71h-263q0 -125 58 -201t152 -76q81 0 145 47z" />
    <glyph glyph-name="afii10054" unicode="&#x405;" 
d="M395 196q0 37 -25.5 67t-64 48.5t-83 41.5t-83 46t-64 62.5t-25.5 89.5q0 96 64.5 150t156.5 54q105 0 201 -71l-39 -62q-87 59 -162 59q-49 0 -87.5 -29t-38.5 -83q0 -30 19 -54.5t49 -41.5t66.5 -34t73.5 -37.5t67 -46t49 -65t19 -89.5q0 -95 -64 -156.5t-169 -61.5
q-122 0 -217 90l35 59q97 -75 181 -75q60 0 100.5 37.5t40.5 101.5z" />
    <glyph glyph-name="afii10055" unicode="&#x406;" horiz-adv-x="288" 
d="M192 0h-97v738h97v-738z" />
    <glyph glyph-name="afii10056" unicode="&#x407;" horiz-adv-x="288" 
d="M192 0h-97v738h97v-738zM99 834q0 -25 -19 -43.5t-45 -18.5q-25 0 -43.5 18.5t-18.5 43.5q0 26 18.5 45t43.5 19t44.5 -19t19.5 -45zM312 834q0 -25 -19 -43.5t-45 -18.5q-25 0 -43.5 18.5t-18.5 43.5q0 26 18.5 45t43.5 19q26 0 45 -19t19 -45z" />
    <glyph glyph-name="afii10057" unicode="&#x408;" horiz-adv-x="289" 
d="M97 -89v827h97v-814q0 -82 -66 -131.5t-173 -52.5v48q63 2 102.5 32t39.5 91z" />
    <glyph glyph-name="afii10058" unicode="&#x409;" horiz-adv-x="953" 
d="M943 230q0 -103 -69.5 -166.5t-172.5 -63.5h-198v657h-214q0 -7 -0.5 -28t-0.5 -34q0 -240 -24 -372q-21 -108 -65 -174t-114 -66q-41 0 -85 19l15 66q29 -8 54 -8q22 0 41 15.5t31.5 47t22.5 64.5t16 83.5t9.5 86.5t5.5 91.5t2.5 81.5t1.5 72q0 23 0.5 64.5t0.5 71.5
h400v-294h101q104 0 173 -56.5t69 -157.5zM845 230q0 65 -42.5 104.5t-108.5 39.5h-94v-296h94q65 0 108 43.5t43 108.5z" />
    <glyph glyph-name="afii10059" unicode="&#x40a;" horiz-adv-x="944" 
d="M934 230q0 -103 -69.5 -166.5t-172.5 -63.5h-200v366h-300v-366h-97v738h97v-298h300v298h97v-298h103q105 0 173.5 -54.5t68.5 -155.5zM836 230q0 64 -42 100t-109 36h-96v-288h96q65 0 108 43.5t43 108.5z" />
    <glyph glyph-name="afii10060" unicode="&#x40b;" horiz-adv-x="685" 
d="M248 668v-234q36 40 86.5 66.5t106.5 26.5q68 0 111 -38.5t43 -84.5v-404h-95v361q0 96 -85 96q-45 0 -90 -27.5t-77 -66.5v-363h-95v668h-168v70h484v-70h-221z" />
    <glyph glyph-name="afii10061" unicode="&#x40c;" horiz-adv-x="611" 
d="M318 757l-29 11l64 156q16 40 50 40q16 0 26.5 -10t10.5 -27q0 -24 -23 -51zM192 420v318h-97v-738h97v350h59l234 -350h121l-276 395l251 339h-102l-229 -314h-58z" />
    <glyph glyph-name="afii10062" unicode="&#x40e;" horiz-adv-x="580" 
d="M559 738l-245 -619q-26 -66 -63 -101t-102 -35q-37 0 -62.5 13.5t-54.5 40.5q5 9 15.5 27.5t15.5 27.5q40 -31 82 -31q25 0 43 15t25.5 30.5t17.5 43.5l6 17q-36 93 -113.5 285.5t-113.5 285.5h102l182 -459q11 28 78 199.5t101 259.5h86zM433 889q-35 -104 -151 -104
q-119 0 -152 104l53 16q24 -49 99 -49q74 0 99 48z" />
    <glyph glyph-name="afii10145" unicode="&#x40f;" horiz-adv-x="705" 
d="M334 -194l-35 194h-204v738h97v-657h321v657h97v-738h-203l-35 -194h-38z" />
    <glyph glyph-name="afii10017" unicode="&#x410;" horiz-adv-x="591" 
d="M571 0h-102l-69 218h-243l-69 -218h-78q32 104 113.5 363t121.5 389h90q37 -119 118 -376t118 -376zM379 283l-100 327l-101 -327h201z" />
    <glyph glyph-name="afii10018" unicode="&#x411;" horiz-adv-x="578" 
d="M441 237q0 62 -40 99t-103 37h-106v-302h106q61 0 102 51.5t41 114.5zM538 237q0 -104 -72.5 -170.5t-175.5 -66.5h-195v738h396v-74h-299v-220h100q111 0 178.5 -50t67.5 -157z" />
    <glyph glyph-name="afii10019" unicode="&#x412;" horiz-adv-x="606" 
d="M566 212q0 -100 -73 -156t-175 -56h-223v738h223q87 0 150.5 -48t63.5 -134q0 -61 -38.5 -104t-99.5 -59l1 -2q74 -13 122.5 -60t48.5 -119zM435 543q0 56 -38 90t-93 34h-112v-244h112q57 0 94 33.5t37 86.5zM468 213q0 66 -46.5 103.5t-114.5 37.5h-115v-283h115
q68 0 114.5 38t46.5 104z" />
    <glyph glyph-name="afii10020" unicode="&#x413;" horiz-adv-x="499" 
d="M479 664h-299v-664h-97v738h396v-74z" />
    <glyph glyph-name="afii10021" unicode="&#x414;" horiz-adv-x="662" 
d="M627 -185h-54l-36 185h-469l-36 -185h-57v261h83q94 198 96 662h380v-662h93v-261zM437 76v588h-201q-2 -154 -24.5 -323.5t-70.5 -264.5h296z" />
    <glyph glyph-name="afii10022" unicode="&#x415;" 
d="M511 0h-416v738h416v-75h-319v-239h259v-74h-259v-275h319v-75z" />
    <glyph glyph-name="afii10024" unicode="&#x416;" horiz-adv-x="892" 
d="M495 738v-318h53l215 314h102l-237 -339l259 -395h-120l-217 350h-55v-350h-97v350h-56l-217 -350h-120l259 395l-237 339h102l215 -314h54v318h97z" />
    <glyph glyph-name="afii10025" unicode="&#x417;" horiz-adv-x="535" 
d="M110 636l-42 60q86 59 192 59q90 0 154 -46.5t64 -138.5q0 -64 -36 -111.5t-104 -67.5q71 -13 114 -63.5t43 -123.5q0 -99 -72 -160t-172 -61q-125 0 -226 84l36 58q82 -67 177 -67q72 0 116.5 43t44.5 111q0 69 -50 105t-138 36h-65v70h64q175 0 175 139q0 55 -36 87
t-93 32q-72 0 -146 -45z" />
    <glyph glyph-name="afii10026" unicode="&#x418;" horiz-adv-x="713" 
d="M618 0h-97v600h-4l-316 -600h-106v738h97v-602h4l320 602h102v-738z" />
    <glyph glyph-name="afii10027" unicode="&#x419;" horiz-adv-x="713" 
d="M356 852q35 0 77.5 19t47.5 49h42q-1 -62 -51 -98t-116 -36q-64 0 -115 36.5t-52 97.5h43q7 -32 47 -50t77 -18zM618 0h-97v600h-4l-316 -600h-106v738h97v-602h4l320 602h102v-738z" />
    <glyph glyph-name="afii10028" unicode="&#x41a;" horiz-adv-x="611" 
d="M192 738v-318h58l229 314h102l-251 -339l276 -395h-121l-234 350h-59v-350h-97v738h97z" />
    <glyph glyph-name="afii10029" unicode="&#x41b;" horiz-adv-x="686" 
d="M591 0h-97v664h-213v-68q0 -56 -1 -101.5t-5.5 -112t-12.5 -117.5t-23 -106.5t-35.5 -92t-52 -60t-70.5 -23.5q-42 0 -81 18l14 68q25 -7 49 -7q134 0 134 539q0 27 0.5 60t0.5 42v35h393v-738z" />
    <glyph glyph-name="afii10030" unicode="&#x41c;" horiz-adv-x="811" 
d="M638 629h-3q-200 -636 -200 -637h-71l-197 637h-3v-629h-79v738h143l185 -579l182 579h131v-738h-88v629z" />
    <glyph glyph-name="afii10031" unicode="&#x41d;" horiz-adv-x="709" 
d="M614 0h-97v350h-325v-350h-97v738h97v-314h325v314h97v-738z" />
    <glyph glyph-name="afii10032" unicode="&#x41e;" horiz-adv-x="678" 
d="M40 370q0 55 9.5 107.5t32 103.5t56 89t85.5 61.5t116 23.5t116 -23.5t85.5 -61.5t56 -89t32 -103.5t9.5 -107.5t-9.5 -108t-32 -104t-56 -89.5t-85.5 -62t-116 -23.5t-116 23.5t-85.5 62t-56 89.5t-32 104t-9.5 108zM137 370q0 -55 10.5 -106.5t32.5 -99.5t63 -77.5
t96 -29.5t96 29.5t63 77.5t32.5 99.5t10.5 106.5t-10.5 106.5t-32.5 99t-63 76.5t-96 29t-96 -29t-63 -76.5t-32.5 -99t-10.5 -106.5z" />
    <glyph glyph-name="afii10033" unicode="&#x41f;" horiz-adv-x="704" 
d="M609 0h-97v664h-320v-664h-97v738h514v-738z" />
    <glyph glyph-name="afii10034" unicode="&#x420;" horiz-adv-x="561" 
d="M95 738h178q120 0 194 -54t74 -166q0 -101 -68.5 -166t-195.5 -65h-85v-287h-97v738zM262 357q82 0 131 39t49 117q0 77 -42.5 115.5t-141.5 38.5h-66v-310h70z" />
    <glyph glyph-name="afii10035" unicode="&#x421;" horiz-adv-x="564" 
d="M488 638q-63 43 -134 43q-58 0 -102 -30.5t-67.5 -79.5t-34.5 -102t-11 -107q0 -50 12 -101t35.5 -98t65.5 -76.5t96 -29.5q86 0 163 56l33 -53q-84 -77 -206 -77q-77 0 -136 32t-93.5 86.5t-51.5 120t-17 139.5q0 75 17.5 142.5t52.5 125t96.5 92t141.5 34.5
q98 0 176 -51z" />
    <glyph glyph-name="afii10036" unicode="&#x422;" horiz-adv-x="557" 
d="M547 663h-219v-663h-99v663h-219v75h537v-75z" />
    <glyph glyph-name="afii10037" unicode="&#x423;" horiz-adv-x="579" 
d="M35 28l25 43q30 -23 70 -23q41 0 63.5 29.5t43.5 89.5q-36 93 -113.5 285.5t-113.5 285.5h102l182 -459q11 28 78 199.5t101 259.5h85l-245 -619q-54 -136 -160 -136q-62 0 -118 45z" />
    <glyph glyph-name="afii10038" unicode="&#x424;" horiz-adv-x="761" 
d="M429 89v-89h-97v89q-132 0 -212 89t-80 218q0 131 77.5 217.5t214.5 88.5v63h97v-63q137 -2 214.5 -88.5t77.5 -217.5q0 -129 -80 -218t-212 -89zM332 159v480q-70 0 -116.5 -36t-65 -88.5t-18.5 -117.5q0 -101 52.5 -169.5t147.5 -68.5zM429 639v-480q95 0 147.5 68.5
t52.5 169.5q0 65 -18.5 117.5t-65 88.5t-116.5 36z" />
    <glyph glyph-name="afii10039" unicode="&#x425;" horiz-adv-x="566" 
d="M10 0l215 373l-210 365h112l167 -287l161 287h90l-207 -364l218 -374h-116l-171 297l-167 -297h-92z" />
    <glyph glyph-name="afii10040" unicode="&#x426;" horiz-adv-x="713" 
d="M693 -185h-58l-40 185h-500v738h97v-664h316v664h97v-664h88v-259z" />
    <glyph glyph-name="afii10041" unicode="&#x427;" horiz-adv-x="595" 
d="M500 0h-97v309q-93 -32 -197 -32q-74 0 -125 44t-51 106v311h98v-293q0 -88 121 -88q96 0 154 20v361h97v-738z" />
    <glyph glyph-name="afii10042" unicode="&#x428;" horiz-adv-x="1022" 
d="M927 0h-832v738h97v-664h271v664h97v-664h270v664h97v-738z" />
    <glyph glyph-name="afii10043" unicode="&#x429;" horiz-adv-x="1036" 
d="M958 -185l-40 185h-823v738h97v-664h271v664h97v-664h270v664h97v-664h89v-259h-58z" />
    <glyph glyph-name="afii10044" unicode="&#x42a;" horiz-adv-x="603" 
d="M593 230q0 -103 -69.5 -166.5t-171.5 -63.5h-200v664h-192v74h289v-294h103q104 0 172.5 -56.5t68.5 -157.5zM496 230q0 64 -42.5 104t-107.5 40h-97v-303h97q64 0 107 46.5t43 112.5z" />
    <glyph glyph-name="afii10045" unicode="&#x42b;" horiz-adv-x="821" 
d="M726 0h-97v738h97v-738zM535 230q0 -103 -69.5 -166.5t-172.5 -63.5h-198v738h97v-294h101q104 0 173 -56.5t69 -157.5zM437 230q0 64 -43 104t-108 40h-94v-303h94q64 0 107.5 46.5t43.5 112.5z" />
    <glyph glyph-name="afii10046" unicode="&#x42c;" horiz-adv-x="547" 
d="M537 230q0 -103 -69.5 -166.5t-172.5 -63.5h-200v738h97v-294h103q104 0 173 -56.5t69 -157.5zM439 230q0 65 -42.5 104.5t-108.5 39.5h-96v-303h96q64 0 107.5 46.5t43.5 112.5z" />
    <glyph glyph-name="afii10047" unicode="&#x42d;" horiz-adv-x="572" 
d="M30 57l34 52q65 -51 140 -51q101 0 161 76t68 202h-262v71h263q-6 139 -61.5 206t-147.5 67q-63 0 -130 -35l-40 58q73 52 173 52q141 0 222.5 -93.5t81.5 -287.5q0 -175 -86.5 -283t-227.5 -108q-108 0 -188 74z" />
    <glyph glyph-name="afii10048" unicode="&#x42e;" horiz-adv-x="922" 
d="M882 370q0 -71 -12.5 -133.5t-42 -122.5t-88 -95.5t-141.5 -35.5q-77 0 -133.5 31t-88 84t-47.5 111.5t-19 126.5h-118v-336h-97v738h97v-331h119q4 67 20 125t47.5 110.5t87.5 82.5t132 30q67 0 118.5 -24t82 -62t50 -90.5t26.5 -102.5t7 -106zM792 370q0 55 -8 104
t-28 98t-60.5 78t-97.5 29q-58 0 -98 -29t-59 -78.5t-27 -98t-8 -103.5t8 -104t27 -98.5t59.5 -79t97.5 -29.5t97.5 29.5t60.5 79t28 98.5t8 104z" />
    <glyph glyph-name="afii10049" unicode="&#x42f;" horiz-adv-x="569" 
d="M377 384v282h-76q-86 0 -130 -36t-44 -104q0 -61 36.5 -101.5t113.5 -40.5h100zM474 0h-97v313h-110l-137 -313h-110l151 329q-63 19 -101.5 73.5t-38.5 122.5q0 99 63.5 156t185.5 57h194v-738z" />
    <glyph glyph-name="afii10065" unicode="&#x430;" horiz-adv-x="524" 
d="M356 165v108q-36 2 -57 2q-69 0 -115 -29.5t-46 -89.5q0 -41 18.5 -68t53.5 -27q43 0 86 29.5t60 74.5zM451 348v-255q6 -55 15 -81l-90 -18q-15 57 -20 99q-26 -44 -71 -72t-91 -28q-66 0 -108.5 43t-42.5 121q0 51 24 87t65 54.5t84 26.5t92 8q18 0 48 -2
q0 31 -0.5 44.5t-6 37.5t-16.5 34.5t-33 19.5t-55 9q-51 0 -138 -35l-25 69q71 36 165 36q114 0 159 -50.5t45 -147.5z" />
    <glyph glyph-name="afii10066" unicode="&#x431;" horiz-adv-x="575" 
d="M304 519q114 0 171.5 -72.5t57.5 -187.5q0 -69 -25 -129t-81.5 -102t-134.5 -42q-68 0 -117 27.5t-74.5 76t-36.5 102t-11 116.5q0 156 43 270.5t136 152.5q47 19 137 30t130 25l15 -73q-40 -16 -140 -33.5t-146 -43.5q-89 -49 -95 -231q54 114 171 114zM151 263
q0 -52 11.5 -96.5t46 -80t88.5 -35.5q68 2 103.5 63t35.5 143q0 51 -11 92.5t-44 73t-84 31.5q-68 0 -107 -54.5t-39 -136.5z" />
    <glyph glyph-name="afii10067" unicode="&#x432;" horiz-adv-x="540" 
d="M498 153q0 -71 -59 -112t-133 -41h-221v532h221q70 0 122 -31t52 -95q0 -47 -34.5 -82t-82.5 -44q56 -7 95.5 -40.5t39.5 -86.5zM380 389q0 37 -23.5 58t-64.5 21h-112v-158h112q40 0 64 21t24 58zM398 155q0 44 -29.5 67.5t-76.5 23.5h-112v-182h112q46 0 76 24t30 67z
" />
    <glyph glyph-name="afii10068" unicode="&#x433;" horiz-adv-x="402" 
d="M402 461h-222v-461h-95v532h317v-71z" />
    <glyph glyph-name="afii10069" unicode="&#x434;" horiz-adv-x="574" 
d="M549 -172h-58l-31 172h-377l-31 -172h-61l9 239h63q18 26 32.5 55.5t23 67t14.5 63.5t9 73.5t4 67t2 73.5t1 65h329v-465h71v-239zM383 67v398h-159q0 -63 -2 -105t-10 -101t-27.5 -107t-50.5 -85h249z" />
    <glyph glyph-name="afii10070" unicode="&#x435;" horiz-adv-x="509" 
d="M383 323q-1 64 -28.5 110.5t-87.5 46.5q-59 0 -89.5 -43.5t-32.5 -113.5h238zM467 255h-322q0 -105 40.5 -154t109.5 -49q67 0 135 31l20 -45q-74 -52 -173 -52q-108 0 -171 75t-63 194q0 53 12 102t37.5 92.5t72 70t108.5 26.5q100 0 148 -65.5t48 -172.5q0 -17 -2 -53z
" />
    <glyph glyph-name="afii10072" unicode="&#x436;" horiz-adv-x="750" 
d="M422 312h38l174 220h93l-195 -243l213 -289h-113l-174 249h-36v-249h-95v249h-35l-174 -249h-113l213 289l-195 243h93l174 -220h37v220h95v-220z" />
    <glyph glyph-name="afii10073" unicode="&#x437;" horiz-adv-x="442" 
d="M399 149q0 -80 -64.5 -122t-151.5 -42q-90 0 -158 47l21 48q53 -29 120 -29q133 0 133 99q0 47 -37.5 71t-88.5 24h-57v64h56q57 0 88 24.5t31 68.5q0 36 -27 58.5t-79 22.5t-127 -30l-18 61q69 32 152 32t138.5 -33.5t55.5 -105.5q0 -45 -29.5 -81.5t-77.5 -46.5
q54 -13 87 -45.5t33 -84.5z" />
    <glyph glyph-name="afii10074" unicode="&#x438;" horiz-adv-x="602" 
d="M517 0h-94v408l-244 -408h-94v532h94v-410l245 410h93v-532z" />
    <glyph glyph-name="afii10075" unicode="&#x439;" horiz-adv-x="602" 
d="M517 0h-94v408l-244 -408h-94v532h94v-410l245 410h93v-532zM412 743l54 -15q-35 -108 -156 -108q-125 0 -158 108l55 17q25 -52 103 -52q77 0 102 50z" />
    <glyph glyph-name="afii10076" unicode="&#x43a;" horiz-adv-x="522" 
d="M180 0h-95v532h95v-220h43l183 220h93l-204 -243l222 -289h-114l-183 249h-40v-249z" />
    <glyph glyph-name="afii10077" unicode="&#x43b;" horiz-adv-x="595" 
d="M510 0h-95v465h-154q-1 -18 -3 -65t-4.5 -85t-8.5 -89.5t-18 -90.5t-30 -75t-47.5 -55t-67.5 -19q-15 0 -36.5 6t-30.5 15l17 54q12 -4 29 -4q27 0 47.5 16.5t33 48t21 66t12 81.5t4.5 81.5t1 79.5v102h330v-532z" />
    <glyph glyph-name="afii10078" unicode="&#x43c;" horiz-adv-x="718" 
d="M638 0h-91v439h-10q-27 -80 -82 -236.5t-73 -208.5h-65l-152 445h-10v-439h-75v532h140l142 -410l140 410h136v-532z" />
    <glyph glyph-name="afii10079" unicode="&#x43d;" horiz-adv-x="602" 
d="M517 0h-95v240h-242v-240h-95v532h95v-226h242v226h95v-532z" />
    <glyph glyph-name="afii10080" unicode="&#x43e;" horiz-adv-x="576" 
d="M536 265q0 -119 -62 -199t-186 -80t-186 80t-62 199q0 120 62.5 200.5t185.5 80.5t185.5 -80.5t62.5 -200.5zM436 265q0 40 -7 75.5t-23 69t-46.5 53.5t-71.5 20t-71.5 -20t-46.5 -53.5t-23 -69t-7 -75.5q0 -55 11.5 -100t46.5 -80.5t90 -35.5t90 35.5t46.5 80.5
t11.5 100z" />
    <glyph glyph-name="afii10081" unicode="&#x43f;" horiz-adv-x="598" 
d="M513 0h-95v465h-238v-465h-95v532h428v-532z" />
    <glyph glyph-name="afii10082" unicode="&#x440;" horiz-adv-x="587" 
d="M544 289q0 -79 -22.5 -145t-77.5 -112t-136 -46q-71 0 -128 48v-269h-95v767h85l10 -50q66 64 147 64q107 0 162 -75t55 -182zM444 287q0 81 -37 137t-106 56q-79 0 -121 -59v-318q51 -51 115 -51q74 0 111.5 62t37.5 173z" />
    <glyph glyph-name="afii10083" unicode="&#x441;" horiz-adv-x="462" 
d="M447 46q-65 -60 -166 -60q-102 0 -170 71.5t-68 192.5q0 129 64.5 212.5t182.5 83.5q74 0 140 -39l-28 -61q-62 34 -109 34q-52 0 -87 -32.5t-48.5 -79t-13.5 -103.5q0 -54 13.5 -99.5t51.5 -79.5t95 -34q65 0 125 42z" />
    <glyph glyph-name="afii10084" unicode="&#x442;" horiz-adv-x="467" 
d="M452 465h-171v-465h-95v465h-171v67h437v-67z" />
    <glyph glyph-name="afii10085" unicode="&#x443;" horiz-adv-x="519" 
d="M272 79l145 453h80l-184 -571q-2 -5 -11 -29.5t-12.5 -32.5t-13 -30t-15.5 -31t-17.5 -26t-22.5 -25t-25 -17.5t-31 -13t-36 -3.5q-53 0 -109 33l23 45q33 -19 66 -19q25 0 43.5 11t33.5 36t25.5 49.5t25.5 66.5q6 17 9 25h-54l-156 532h99q113 -427 122 -453h15z" />
    <glyph glyph-name="afii10086" unicode="&#x444;" horiz-adv-x="797" 
d="M351 81v381q-42 28 -90 28q-60 0 -90.5 -56t-30.5 -160q0 -107 36 -159.5t95 -52.5q45 0 80 19zM446 21v-256h-95v256q-50 -21 -103 -21q-93 0 -149 71.5t-56 201.5q0 131 61.5 202t139.5 71q53 0 107 -25v217h95v-217q54 25 107 25q78 0 139.5 -71t61.5 -202
q0 -130 -55.5 -201.5t-149.5 -71.5q-51 0 -103 21zM446 462v-381q37 -19 81 -19q59 0 95 52.5t36 159.5q0 105 -31 160.5t-91 55.5q-46 0 -90 -28z" />
    <glyph glyph-name="afii10087" unicode="&#x445;" horiz-adv-x="489" 
d="M137 532l119 -189l122 189h83l-164 -253l177 -279h-110l-133 210l-133 -210h-83l174 276l-161 256h109z" />
    <glyph glyph-name="afii10088" unicode="&#x446;" horiz-adv-x="611" 
d="M576 -172h-59l-30 172h-402v532h95v-465h231v465h95v-465h70v-239z" />
    <glyph glyph-name="afii10089" unicode="&#x447;" horiz-adv-x="530" 
d="M445 0h-95v229q-60 -38 -153 -38q-59 0 -103 32.5t-44 67.5v241h95v-208q0 -34 24 -51.5t60 -17.5q68 0 121 33v244h95v-532z" />
    <glyph glyph-name="afii10090" unicode="&#x448;" horiz-adv-x="803" 
d="M718 0h-633v532h95v-465h176v465h95v-465h172v465h95v-532z" />
    <glyph glyph-name="afii10091" unicode="&#x449;" horiz-adv-x="821" 
d="M786 -172h-58l-31 172h-612v532h95v-465h176v465h95v-465h172v465h95v-465h68v-239z" />
    <glyph glyph-name="afii10092" unicode="&#x44a;" horiz-adv-x="546" 
d="M526 171q0 -77 -59.5 -124t-141.5 -47h-191v465h-151v67h246v-189h98q87 0 143 -45t56 -127zM427 172q0 51 -31.5 82t-80.5 31h-86v-221h86q47 0 79.5 30.5t32.5 77.5z" />
    <glyph glyph-name="afii10093" unicode="&#x44b;" horiz-adv-x="720" 
d="M635 0h-95v532h95v-532zM476 171q0 -77 -59 -124t-141 -47h-191v532h95v-189h97q87 0 143 -45t56 -127zM376 172q0 51 -31 82t-80 31h-85v-221h85q47 0 79 30.5t32 77.5z" />
    <glyph glyph-name="afii10094" unicode="&#x44c;" horiz-adv-x="496" 
d="M476 171q0 -77 -59 -124t-141 -47h-191v532h95v-189h97q87 0 143 -45t56 -127zM376 172q0 51 -31 82t-80 31h-85v-221h85q48 0 79.5 29.5t31.5 78.5z" />
    <glyph glyph-name="afii10095" unicode="&#x44d;" horiz-adv-x="474" 
d="M431 269q0 -122 -67 -203t-180 -81q-86 0 -151 54l27 47q50 -32 107 -32q86 0 127.5 52.5t41.5 127.5h-205v66h205q0 179 -157 179q-59 0 -101 -26l-26 58q58 35 130 35q125 0 187 -75.5t62 -201.5z" />
    <glyph glyph-name="afii10096" unicode="&#x44e;" horiz-adv-x="773" 
d="M738 266q0 -55 -13.5 -103t-41 -89t-76 -65t-111.5 -24q-108 0 -165.5 71.5t-66.5 177.5h-84v-234h-95v532h95v-232h83q3 102 64.5 174t168.5 72q63 0 111.5 -24t76 -64.5t41 -88.5t13.5 -103zM638 266q0 39 -6 74t-21 69t-44.5 54t-70.5 20t-70.5 -21t-43.5 -55.5
t-20 -68.5t-6 -72q0 -39 6 -73t20 -68.5t43.5 -55t70.5 -20.5t70.5 20t44.5 54t21 69t6 74z" />
    <glyph glyph-name="afii10097" unicode="&#x44f;" horiz-adv-x="525" 
d="M440 0h-95v200h-90l-120 -200h-100l128 211q-51 17 -80.5 57t-29.5 97q0 76 51 121.5t133 45.5h203v-532zM345 264v204h-100q-41 0 -69 -31t-28 -72q0 -42 28 -71.5t69 -29.5h100z" />
    <glyph glyph-name="afii10071" unicode="&#x451;" horiz-adv-x="519" 
d="M233 673q0 -27 -19.5 -46t-46.5 -19t-46 18.5t-19 46.5q0 27 19 46.5t46 19.5t46.5 -19.5t19.5 -46.5zM383 323q-1 64 -28.5 110.5t-87.5 46.5q-59 0 -89.5 -43.5t-32.5 -113.5h238zM467 255h-322q0 -105 40.5 -154t109.5 -49q67 0 135 31l20 -45q-74 -52 -173 -52
q-108 0 -171 75t-63 194q0 53 12 102t37.5 92.5t72 70t108.5 26.5q100 0 148 -65.5t48 -172.5q0 -17 -2 -53zM437 673q0 -27 -19.5 -46t-46.5 -19t-46 18.5t-19 46.5q0 27 19 46.5t46 19.5t46.5 -19.5t19.5 -46.5z" />
    <glyph glyph-name="afii10099" unicode="&#x452;" horiz-adv-x="631" 
d="M230 787v-101h187v-63h-187v-170q85 93 185 93q68 0 111 -38.5t43 -84.5v-329q0 -50 -3.5 -91t-16 -87t-33.5 -76.5t-58.5 -51t-87.5 -20.5q-18 0 -38 3l-2 46q34 0 59 7.5t40.5 25t24.5 36t13.5 50.5t5.5 57t1 68v319q0 47 -24 72t-62 25q-41 0 -83.5 -28t-74.5 -69
v-380h-95v623h-106v63h106v101h95z" />
    <glyph glyph-name="afii10100" unicode="&#x453;" horiz-adv-x="407" 
d="M407 461h-222v-461h-95v532h317v-71zM216 548l-29 11l64 156q16 40 50 40q16 0 26.5 -10t10.5 -27q0 -24 -23 -51z" />
    <glyph glyph-name="afii10101" unicode="&#x454;" horiz-adv-x="474" 
d="M43 269q0 126 62 201.5t187 75.5q72 0 130 -35l-26 -58q-42 26 -101 26q-157 0 -157 -179h205v-66h-205q0 -76 40.5 -128t125.5 -52q60 0 110 32l27 -47q-65 -54 -154 -54q-113 0 -178.5 81t-65.5 203z" />
    <glyph glyph-name="afii10102" unicode="&#x455;" horiz-adv-x="490" 
d="M330 130q0 34 -28 58.5t-68 41.5t-79.5 36t-67.5 52.5t-28 80.5q0 73 52.5 110t128.5 37q87 0 166 -44l-22 -61q-66 39 -139 39q-38 0 -65.5 -19t-27.5 -55q0 -28 27.5 -48t67.5 -36t79.5 -35.5t67 -56.5t27.5 -89q0 -73 -52 -114t-132 -41q-101 0 -187 64l26 55
q83 -51 157 -51q45 0 71 19.5t26 56.5z" />
    <glyph glyph-name="afii10103" unicode="&#x456;" horiz-adv-x="288" 
d="M207 688q0 -26 -18.5 -43.5t-45.5 -17.5t-46 18t-19 43t19 42.5t46 17.5t45.5 -17.5t18.5 -42.5zM190 0h-95v532h95v-532z" />
    <glyph glyph-name="afii10104" unicode="&#x457;" horiz-adv-x="253" 
d="M174 0h-95v532h95v-532zM91 667q0 -26 -18.5 -44t-44.5 -18t-44 18t-18 44t18.5 44.5t43.5 18.5q26 0 44.5 -19t18.5 -44zM298 667q0 -26 -18.5 -44t-44.5 -18t-44 18t-18 44t18.5 44.5t43.5 18.5t44 -19t19 -44z" />
    <glyph glyph-name="afii10105" unicode="&#x458;" horiz-adv-x="255" 
d="M175 688q0 -26 -18.5 -43.5t-45.5 -17.5t-46 18t-19 43t19 42.5t46 17.5t45.5 -17.5t18.5 -42.5zM160 -102q0 -61 -62 -112t-133 -58v39q100 24 100 146v619h95v-634z" />
    <glyph glyph-name="afii10106" unicode="&#x459;" horiz-adv-x="818" 
d="M798 171q0 -77 -59 -124t-141 -47h-191v465h-152q0 -3 -2 -61.5t-3.5 -89.5t-8.5 -83.5t-18 -91.5q-43 -153 -153 -153q-16 0 -39 6.5t-33 16.5l19 54q19 -6 34 -6q63 0 87 96q8 34 14 76.5t8 90t3 80t1 78.5v54h338v-189h97q87 0 143 -45t56 -127zM698 172
q0 50 -30.5 78t-80.5 28h-85v-214h85q48 0 79.5 29.5t31.5 78.5z" />
    <glyph glyph-name="afii10107" unicode="&#x45a;" horiz-adv-x="820" 
d="M185 343h224v189h95v-189h97q87 0 143 -45t56 -127q0 -77 -59 -124t-141 -47h-191v278h-224v-278h-95v532h95v-189zM700 172q0 50 -30.5 78t-80.5 28h-85v-214h85q48 0 79.5 29.5t31.5 78.5z" />
    <glyph glyph-name="afii10108" unicode="&#x45b;" horiz-adv-x="615" 
d="M-15 686h106v101h95v-101h187v-63h-187v-170q85 93 185 93q68 0 111 -38.5t43 -84.5v-423h-95v380q0 44 -21.5 70t-63.5 26q-83 0 -159 -96v-380h-95v623h-106v63z" />
    <glyph glyph-name="afii10109" unicode="&#x45c;" horiz-adv-x="536" 
d="M185 0h-95v532h95v-220h50l173 220h102l-196 -252l217 -280h-118l-185 249h-43v-249zM266 547l-29 11l64 156q16 40 50 40q16 0 26.5 -10t10.5 -27q0 -24 -23 -51z" />
    <glyph glyph-name="afii10110" unicode="&#x45e;" horiz-adv-x="534" 
d="M432 532l-145 -453h-15l-122 453h-99l156 -532h54q-15 -41 -22 -60t-20.5 -47t-24 -40t-26.5 -21.5t-35 -9.5q-37 0 -89 30l-24 -55q72 -44 124 -44q22 0 41 6t33 13.5t28 24.5t22 26.5t19 34t14.5 33.5t14 37t12.5 33l184 571h-80zM429 706q-35 -106 -147 -106
q-115 0 -148 106l53 16q24 -49 95 -49q42 0 62.5 12t32.5 36z" />
    <glyph glyph-name="afii10193" unicode="&#x45f;" horiz-adv-x="623" 
d="M533 0h-169l-36 -194h-35l-34 194h-169v532h95v-465h253v465h95v-532z" />
    <glyph glyph-name="afii10194" unicode="&#x463;" horiz-adv-x="548" 
d="M528 171q0 -77 -59.5 -124t-141.5 -47h-191v465h-151v67h151v256h96l-1 -256h161v-66h-161v-123h98q87 0 143 -45t56 -127zM429 172q0 50 -31 76.5t-81 26.5h-86v-208h86q48 0 80 29t32 76z" />
    <glyph glyph-name="afii10195" unicode="&#x473;" horiz-adv-x="580" 
d="M538 265q0 -119 -62 -199t-186 -80t-186 80t-62 199q0 120 62.5 200.5t185.5 80.5t185.5 -80.5t62.5 -200.5zM290 49q39 0 67.5 16.5t45 45.5t24.5 61.5t10 69.5h-295q3 -51 16 -91.5t47 -71t85 -30.5zM290 483q-48 0 -81 -27.5t-47.5 -65.5t-18.5 -86h293
q-7 76 -42 127.5t-104 51.5z" />
    <glyph glyph-name="afii10050" unicode="&#x490;" horiz-adv-x="479" 
d="M479 822v-165h-299v-657h-97v738h334l28 84h34z" />
    <glyph glyph-name="afii10098" unicode="&#x491;" horiz-adv-x="347" 
d="M347 461h-222v-461h-95v532h253l34 77h30v-148z" />
    <glyph glyph-name="Wgrave" unicode="&#x1e80;" horiz-adv-x="881" 
d="M229 -13h65l147 536l150 -536h69l211 751h-79l-161 -580h-1l-153 580h-57q-55 -213 -100 -376t-52 -192h-1l-152 568h-100zM469 803l-34 -33l-204 132l93 53z" />
    <glyph glyph-name="wgrave" unicode="&#x1e81;" horiz-adv-x="763" 
d="M744 532h-74l-116 -412h-2l-129 412h-65l-120 -412h-2l-119 412h-96l164 -544h86l110 384h2l122 -384h82zM474 610l-53 -21l-132 201h112z" />
    <glyph glyph-name="Wacute" unicode="&#x1e82;" horiz-adv-x="881" 
d="M294 -13h-65l-214 751h100l152 -568h1q7 29 52 192t100 376h57l153 -580h1l161 580h79l-211 -751h-69l-150 536q-147 -534 -147 -536zM461 770l-34 33l145 152l93 -53z" />
    <glyph glyph-name="wacute" unicode="&#x1e83;" horiz-adv-x="763" 
d="M670 532h74q-157 -542 -157 -544h-82l-122 384h-2l-110 -384h-86l-164 544h96l119 -412h2l120 412h65l129 -412h2zM342 589l-53 21l73 180h112z" />
    <glyph glyph-name="Wdieresis" unicode="&#x1e84;" horiz-adv-x="881" 
d="M229 -13h65l147 536l150 -536h69l211 751h-79l-161 -580h-1l-153 580h-57q-55 -213 -100 -376t-52 -192h-1l-152 568h-100zM404 830q0 -25 -19 -43.5t-45 -18.5q-25 0 -43.5 18.5t-18.5 43.5q0 26 18.5 45t43.5 19q26 0 45 -19t19 -45zM617 830q0 -25 -19 -43.5
t-45 -18.5q-25 0 -43.5 18.5t-18.5 43.5q0 26 18.5 45t43.5 19t44.5 -19t19.5 -45z" />
    <glyph glyph-name="wdieresis" unicode="&#x1e85;" horiz-adv-x="763" 
d="M744 532h-74l-116 -412h-2l-129 412h-65l-120 -412h-2l-119 412h-96l164 -544h86l110 384h2l122 -384h82zM345 659q0 -26 -18.5 -44t-44.5 -18t-44 18t-18 44t18.5 44.5t43.5 18.5q26 0 44.5 -19t18.5 -44zM552 659q0 -26 -18.5 -44t-44.5 -18t-44 18t-18 44t18.5 44.5
t43.5 18.5t44 -19t19 -44z" />
    <glyph glyph-name="Ygrave" unicode="&#x1ef2;" horiz-adv-x="570" 
d="M555 738l-223 -429v-309h-98v307q-35 68 -112 215.5t-112 215.5h108l173 -334h4l173 334h87zM414 803l-34 -33l-204 132l93 53z" />
    <glyph glyph-name="ygrave" unicode="&#x1ef3;" horiz-adv-x="519" 
d="M417 532l-145 -453h-15l-122 453h-99l156 -532h54q-41 -110 -57 -137q-32 -51 -80 -51q-33 0 -66 19l-23 -45q56 -33 109 -33q19 0 36 3.5t31 13t25 17.5t22.5 25t17.5 26t15.5 31t13 30t12.5 32.5t11 29.5l184 571h-80zM393 610l-53 -21l-132 201h112z" />
    <glyph glyph-name="endash" unicode="&#x2013;" horiz-adv-x="668" 
d="M635 300h-603v62h603v-62z" />
    <glyph glyph-name="emdash" unicode="&#x2014;" horiz-adv-x="935" 
d="M902 235h-870v62h870v-62z" />
    <glyph glyph-name="quoteleft" unicode="&#x2018;" horiz-adv-x="242" 
d="M42 543q0 12 12.5 42.5t26 58.5t31.5 62.5t21 40.5h67l-68 -142q23 -2 37 -20t14 -42q0 -29 -20 -48.5t-50 -19.5q-29 0 -50 20t-21 48z" />
    <glyph glyph-name="quoteright" unicode="&#x2019;" horiz-adv-x="242" 
d="M200 679q0 -12 -12.5 -42.5t-26 -58.5t-31.5 -62.5t-21 -40.5h-67l68 142q-23 2 -37 20t-14 42q0 29 20 48.5t50 19.5q29 0 50 -20t21 -48z" />
    <glyph glyph-name="quotedblleft" unicode="&#x201c;" horiz-adv-x="438" 
d="M42 543q0 12 12.5 42.5t26 58.5t31.5 62.5t21 40.5h67l-68 -142q23 -2 37 -20t14 -42q0 -29 -20 -48.5t-50 -19.5q-29 0 -50 20t-21 48zM238 543q0 12 12.5 42.5t26 58.5t31.5 62.5t21 40.5h67l-68 -142q23 -2 37 -20t14 -42q0 -29 -20 -48.5t-50 -19.5q-29 0 -50 20
t-21 48z" />
    <glyph glyph-name="quotedblright" unicode="&#x201d;" horiz-adv-x="438" 
d="M396 679q0 -12 -12.5 -42.5t-26 -58.5t-31.5 -62.5t-21 -40.5h-67l68 142q-23 2 -37 20t-14 42q0 29 20 48.5t50 19.5q29 0 50 -20t21 -48zM200 679q0 -12 -12.5 -42.5t-26 -58.5t-31.5 -62.5t-21 -40.5h-67l68 142q-23 2 -37 20t-14 42q0 29 20 48.5t50 19.5
q29 0 50 -20t21 -48z" />
    <glyph glyph-name="quotedblbase" unicode="&#x201e;" horiz-adv-x="420" 
d="M181 58q0 -12 -12.5 -42.5t-26 -58.5t-31.5 -62.5t-21 -40.5h-67l68 142q-23 2 -37 20t-14 42q0 29 20 48.5t50 19.5q29 0 50 -20t21 -48zM378 58q0 -12 -12.5 -42.5t-26 -58.5t-31.5 -62.5t-21 -40.5h-67l68 142q-23 2 -37 20t-14 42q0 29 20 48.5t50 19.5q29 0 50 -20
t21 -48z" />
    <glyph glyph-name="dagger" unicode="&#x2020;" horiz-adv-x="495" 
d="M453 517l-169 11l-11 -13l14 -429h-80l14 429l-11 13q-29 -2 -85 -6t-83 -5v67l168 -10l11 16l-10 165h72l-10 -165l11 -16l169 10v-67z" />
    <glyph glyph-name="bullet" unicode="&#x2022;" horiz-adv-x="461" 
d="M401 294q0 -70 -50 -120.5t-120 -50.5q-71 0 -121 50.5t-50 120.5t50.5 120t120.5 50t120 -50t50 -120z" />
    <glyph glyph-name="ellipsis" unicode="&#x2026;" horiz-adv-x="819" 
d="M777 58q0 -28 -21 -47.5t-50 -19.5t-50 19.5t-21 47.5t21 48t50 20t50 -20t21 -48zM480 58q0 -28 -21 -47.5t-50 -19.5t-50 19.5t-21 47.5t21 48t50 20t50 -20t21 -48zM183 58q0 -28 -20.5 -47.5t-49.5 -19.5t-50 19.5t-21 47.5t21 48t50 20t49.5 -20t20.5 -48z" />
    <glyph glyph-name="Euro" unicode="&#x20ac;" horiz-adv-x="641" 
d="M472 280h-251q17 -94 66.5 -158.5t131.5 -64.5q84 0 160 56l32 -53q-83 -77 -202 -77q-126 0 -198 83.5t-89 213.5h-82l12 54h65v27q0 24 1 36h-78l12 54h71q20 132 93.5 218t202.5 86q97 0 172 -51l-35 -66q-61 43 -131 43q-46 0 -82.5 -19.5t-60.5 -53.5t-38.5 -72.5
t-22.5 -84.5h293l-12 -54h-287q-1 -12 -1 -35q0 -19 1 -28h269z" />
    <glyph glyph-name="hryvnia" unicode="&#x20b4;" horiz-adv-x="551" 
d="M40 392v49h255q53 31 81 60t28 68q0 54 -38.5 83t-89.5 29q-71 0 -160 -59l-39 62q96 71 201 71q87 0 155 -47.5t68 -128.5q0 -78 -70 -138h75v-49h-145q-15 -9 -45 -25.5t-44 -25.5h234v-49h-302q-50 -48 -50 -106q0 -55 34 -92t96 -37q95 0 192 75l35 -59
q-47 -44 -111.5 -67.5t-127.5 -23.5q-96 0 -156 56t-60 138q0 65 35 116h-51v49h96q30 26 72 51h-168z" />
    <glyph glyph-name="uni20BD" unicode="&#x20bd;" horiz-adv-x="611" 
d="M95 358h63v380h165q120 0 194 -54t74 -166q0 -100 -68.5 -163.5t-195.5 -63.5h-72v-60h272v-56h-272v-175h-97v175h-63v56h63v60h-63v67zM312 358q82 0 131 38.5t49 116.5q0 76 -42.5 114.5t-141.5 38.5h-53v-308h57z" />
    <glyph glyph-name="afii61352" unicode="&#x2116;" horiz-adv-x="1023" 
d="M982 144h-313v60h313v-60zM592 0h-86l-326 573h-6v-573h-79v738h94l317 -558h6v558h80v-738zM983 429q0 -77 -41 -128t-120 -51q-81 0 -122 51t-41 128t41 128.5t122 51.5q79 0 120 -52t41 -128zM910 429q0 53 -20 90t-68 37q-89 0 -89 -127q0 -126 89 -126q88 0 88 126z
" />
    <glyph glyph-name="trademark" unicode="&#x2122;" horiz-adv-x="804" 
d="M429 363h-58v375h92l92 -276h2q59 177 95 276h87v-375h-64v268h-2q-17 -47 -48 -137.5t-46 -134.5h-55l-93 272h-2v-268zM341 685h-134v-322h-69v322h-133v53h336v-53z" />
    <glyph glyph-name="onethird" unicode="&#x2153;" horiz-adv-x="909" 
d="M650 748l-375 -897l-51 16l375 896zM613 445h261l10 -47l-135 -128q65 -6 101.5 -42t36.5 -87q0 -68 -49.5 -109.5t-121.5 -41.5q-68 0 -122 39l26 48q52 -31 93 -31q44 0 69 24.5t25 66.5q0 36 -25 56.5t-61 20.5q-23 0 -49 -8l-18 48l127 125h-168v66zM306 300h-236v42
l79 12v309l-96 -36l-16 34l136 77h55v-384l78 -12v-42z" />
    <glyph glyph-name="twothirds" unicode="&#x2154;" horiz-adv-x="924" 
d="M673 748l-375 -897l-51 16l375 896zM622 445h261l10 -47l-135 -128q65 -6 101.5 -42t36.5 -87q0 -68 -49.5 -109.5t-121.5 -41.5q-68 0 -122 39l26 48q52 -31 93 -31q44 0 69 24.5t25 66.5q0 36 -25 56.5t-61 20.5q-23 0 -49 -8l-18 48l127 125h-168v66zM39 351
q52 50 76 75t58.5 65.5t49 73t14.5 63.5q0 30 -20.5 46.5t-47.5 16.5q-45 0 -92 -40l-38 43q58 60 140 60q59 0 100.5 -32.5t41.5 -93.5q0 -42 -34.5 -95.5t-67 -86.5t-82.5 -78h189v-68h-287v51z" />
    <glyph glyph-name="oneeighth" unicode="&#x215b;" horiz-adv-x="933" 
d="M656 748l-375 -897l-51 16l375 896zM306 300h-236v42l79 12v309l-96 -36l-16 34l136 77h55v-384l78 -12v-42zM826 348q0 26 -22 41t-50 15q-30 0 -50.5 -14.5t-20.5 -41.5q0 -45 75 -81q21 11 33.5 20t23.5 25t11 36zM905 116q0 -57 -45 -91.5t-106 -34.5
q-63 0 -106.5 33.5t-43.5 92.5q0 74 87 119q-75 45 -75 113q0 52 41 83.5t97 31.5q57 0 98 -30.5t41 -84.5q0 -41 -20 -65.5t-58 -44.5q90 -49 90 -122zM837 118q0 20 -16 38.5t-31 27t-40 21.5q-78 -38 -78 -87q0 -32 24 -50.5t58 -18.5t58.5 18.5t24.5 50.5z" />
    <glyph glyph-name="threeeighths" unicode="&#x215c;" horiz-adv-x="942" 
d="M656 748l-375 -897l-51 16l375 896zM836 348q0 26 -22 41t-50 15q-30 0 -50.5 -14.5t-20.5 -41.5q0 -45 75 -81q21 11 33.5 20t23.5 25t11 36zM915 116q0 -57 -45 -91.5t-106 -34.5q-63 0 -106.5 33.5t-43.5 92.5q0 74 87 119q-75 45 -75 113q0 52 41 83.5t97 31.5
q57 0 98 -30.5t41 -84.5q0 -41 -20 -65.5t-58 -44.5q90 -49 90 -122zM847 118q0 20 -16 38.5t-31 27t-40 21.5q-78 -38 -78 -87q0 -32 24 -50.5t58 -18.5t58.5 18.5t24.5 50.5zM48 738h261l10 -47l-135 -128q65 -6 101.5 -42t36.5 -87q0 -68 -49.5 -109.5t-121.5 -41.5
q-68 0 -122 39l26 48q52 -31 93 -31q44 0 69 24.5t25 66.5q0 36 -25 56.5t-61 20.5q-23 0 -49 -8l-18 48l127 125h-168v66z" />
    <glyph glyph-name="fiveeighths" unicode="&#x215d;" horiz-adv-x="926" 
d="M650 748l-375 -897l-51 16l375 896zM820 348q0 26 -22 41t-50 15q-30 0 -50.5 -14.5t-20.5 -41.5q0 -45 75 -81q21 11 33.5 20t23.5 25t11 36zM899 116q0 -57 -45 -91.5t-106 -34.5q-63 0 -106.5 33.5t-43.5 92.5q0 74 87 119q-75 45 -75 113q0 52 41 83.5t97 31.5
q57 0 98 -30.5t41 -84.5q0 -41 -20 -65.5t-58 -44.5q90 -49 90 -122zM831 118q0 20 -16 38.5t-31 27t-40 21.5q-78 -38 -78 -87q0 -32 24 -50.5t58 -18.5t58.5 18.5t24.5 50.5zM93 738h214v-66h-158q-14 -81 -15 -85q8 1 26 1q68 -1 113.5 -40.5t45.5 -103.5
q0 -75 -50.5 -118t-119.5 -43q-65 0 -113 34l23 49q43 -25 83 -25q45 0 73 25.5t28 70.5q0 49 -29.5 71t-73.5 22q-36 0 -70 -12l-11 15z" />
    <glyph glyph-name="seveneighths" unicode="&#x215e;" horiz-adv-x="841" 
d="M569 748l-375 -897l-51 16l375 896zM737 348q0 26 -22 41t-50 15q-30 0 -50.5 -14.5t-20.5 -41.5q0 -45 75 -81q21 11 33.5 20t23.5 25t11 36zM816 116q0 -57 -45 -91.5t-106 -34.5q-63 0 -106.5 33.5t-43.5 92.5q0 74 87 119q-75 45 -75 113q0 52 41 83.5t97 31.5
q57 0 98 -30.5t41 -84.5q0 -41 -20 -65.5t-58 -44.5q90 -49 90 -122zM748 118q0 20 -16 38.5t-31 27t-40 21.5q-78 -38 -78 -87q0 -32 24 -50.5t58 -18.5t58.5 18.5t24.5 50.5zM42 678v60h260l12 -28l-176 -426l-71 15l165 379h-190z" />
    <glyph glyph-name="arrowleft" unicode="&#x2190;" horiz-adv-x="816" 
d="M254 201v-44q-78 70 -224 129v24q129 54 224 129v-44q-17 -20 -75 -71h607v-52h-607q55 -46 75 -71z" />
    <glyph glyph-name="arrowup" unicode="&#x2191;" horiz-adv-x="346" 
d="M74 532h-44q70 78 129 224h28q54 -129 129 -224h-44q-20 17 -71 75v-607h-56v607q-46 -55 -71 -75z" />
    <glyph glyph-name="arrowright" unicode="&#x2192;" horiz-adv-x="816" 
d="M562 398v44q78 -70 224 -129v-28q-129 -54 -224 -129v44q17 20 75 71h-607v56h607q-55 46 -75 71z" />
    <glyph glyph-name="arrowdown" unicode="&#x2193;" horiz-adv-x="346" 
d="M272 224h44q-70 -78 -129 -224h-28q-54 129 -129 224h44q20 -17 71 -75v607h56v-607q46 55 71 75z" />
    <glyph glyph-name="Delta" unicode="&#x2206;" horiz-adv-x="709" 
d="M689 0h-669l306 744h23zM564 54l-231 529l-217 -529h448z" />
    <glyph glyph-name="minus" unicode="&#x2212;" horiz-adv-x="669" 
d="M636 300h-604v61h604v-61z" />
    <glyph glyph-name="radical" unicode="&#x221a;" horiz-adv-x="745" 
d="M231 610l71 -601l434 936h609v-50h-570l-505 -1083h-24l-96 723l-110 -24l-10 52z" />
    <glyph glyph-name="infinity" unicode="&#x221e;" horiz-adv-x="961" 
d="M717 484q91 0 142.5 -53t51.5 -126t-51.5 -128t-139.5 -55q-18 0 -35 2t-29.5 3.5t-27.5 7.5t-23.5 8.5t-23.5 13t-20.5 13.5t-22 18t-20.5 19t-24 22.5t-25 23.5q-60 -61 -114.5 -95.5t-121.5 -34.5q-87 0 -135 51.5t-48 123.5q0 74 50 130t137 56q130 0 249 -134
q103 134 231 134zM720 187q55 0 88 37t33 85q0 47 -32.5 81t-91.5 34q-60 0 -104 -27.5t-90 -81.5q36 -44 56 -65.5t58.5 -42t82.5 -20.5zM438 289q-102 132 -201 132q-56 0 -88 -36t-32 -85q0 -47 30.5 -81.5t85.5 -34.5q107 0 205 105z" />
    <glyph glyph-name="congruent" unicode="&#x2245;" horiz-adv-x="708" 
d="M639 471q-33 -61 -71 -87.5t-89 -26.5q-42 0 -152 36t-151 36q-68 0 -116 -62l-30 13q67 116 172 116q54 0 158 -36t146 -36q64 0 104 61zM642 235h-604v65h604v-65zM642 66h-604v65h604v-65z" />
    <glyph glyph-name="approxequal" unicode="&#x2248;" horiz-adv-x="690" 
d="M605 489l45 -17q-29 -51 -64.5 -79t-94.5 -28t-161 32.5t-132 32.5q-58 0 -110 -67l-48 20q68 108 186 108q51 0 147.5 -31t131.5 -31q60 0 100 60zM605 317l45 -17q-29 -51 -64.5 -79t-94.5 -28t-161 32.5t-132 32.5q-58 0 -110 -67l-48 20q68 108 186 108
q51 0 147.5 -31t131.5 -31q60 0 100 60z" />
    <glyph glyph-name="notequal" unicode="&#x2260;" horiz-adv-x="684" 
d="M644 234h-301l-45 -157h-62l45 157h-241v65h260l31 104h-291v65h310l45 155h61l-45 -155h233v-65h-252l-30 -104h282v-65z" />
    <glyph glyph-name="lessequal" unicode="&#x2264;" horiz-adv-x="560" 
d="M489 125l-469 262l469 263l31 -54q-349 -196 -373 -209l373 -208zM516 26h-493v65h493v-65z" />
    <glyph glyph-name="greaterequal" unicode="&#x2265;" horiz-adv-x="560" 
d="M540 387l-469 -262l-31 54l373 208q-24 13 -373 209l31 54zM44 26h493v65h-493v-65z" />
    <glyph glyph-name="lozenge" unicode="&#x25ca;" horiz-adv-x="420" 
d="M181 58q0 -12 -12.5 -42.5t-26 -58.5t-31.5 -62.5t-21 -40.5h-67l68 142q-23 2 -37 20t-14 42q0 29 20 48.5t50 19.5q29 0 50 -20t21 -48zM378 58q0 -12 -12.5 -42.5t-26 -58.5t-31.5 -62.5t-21 -40.5h-67l68 142q-23 2 -37 20t-14 42q0 29 20 48.5t50 19.5q29 0 50 -20
t21 -48z" />
    <glyph glyph-name="zero_up" unicode="&#xe000;" horiz-adv-x="420" 
d="M210 699q-86 0 -86 -173q0 -78 21 -133.5t65 -55.5t65 55.5t21 133.5q0 173 -86 173zM210 750q62 0 102 -37t54 -86t14 -108q0 -43 -9 -82t-27.5 -74t-53 -56t-80.5 -21t-80.5 21t-53 56t-27.5 74t-9 82q0 59 14 108t54 86t102 37z" />
    <glyph glyph-name="one_up" unicode="&#xe001;" horiz-adv-x="349" 
d="M309 300h-236v42l79 12v309l-96 -36l-16 34l136 77h55v-384l78 -12v-42z" />
    <glyph glyph-name="two_up" unicode="&#xe002;" horiz-adv-x="367" 
d="M40 351q52 50 76 75t58.5 65.5t49 73t14.5 63.5q0 30 -20.5 46.5t-47.5 16.5q-45 0 -92 -40l-38 43q58 60 140 60q59 0 100.5 -32.5t41.5 -93.5q0 -42 -34.5 -95.5t-67 -86.5t-82.5 -78h189v-68h-287v51z" />
    <glyph glyph-name="three_up" unicode="&#xe003;" horiz-adv-x="373" 
d="M59 738h261l10 -47l-135 -128q65 -6 101.5 -42t36.5 -87q0 -68 -49.5 -109.5t-121.5 -41.5q-68 0 -122 39l26 48q52 -31 93 -31q44 0 69 24.5t25 66.5q0 36 -25 56.5t-61 20.5q-23 0 -49 -8l-18 48l127 125h-168v66z" />
    <glyph glyph-name="four_up" unicode="&#xe004;" horiz-adv-x="436" 
d="M396 444l-75 -7v-136h-79v134l-183 -9l-19 34l222 293l59 -8v-259h75v-42zM242 486v168l-116 -168h116z" />
    <glyph glyph-name="five_up" unicode="&#xe005;" horiz-adv-x="363" 
d="M97 738h214v-66h-158q-14 -81 -15 -85q8 1 26 1q68 -1 113.5 -40.5t45.5 -103.5q0 -75 -50.5 -118t-119.5 -43q-65 0 -113 34l23 49q43 -25 83 -25q45 0 73 25.5t28 70.5q0 49 -29.5 71t-73.5 22q-36 0 -70 -12l-11 15z" />
    <glyph glyph-name="six_up" unicode="&#xe006;" horiz-adv-x="402" 
d="M117 490q0 -22 1 -37t5.5 -38.5t13 -38t25.5 -25.5t41 -11q36 0 58.5 28.5t22.5 69.5q0 44 -23.5 68t-58.5 24q-45 0 -85 -40zM362 439q0 -65 -44.5 -110t-115.5 -46q-162 0 -162 207q0 105 51 185.5t140 80.5q64 0 111 -37l-30 -51q-37 28 -82 28q-88 0 -107 -136
q37 26 89 26q60 0 105 -39.5t45 -107.5z" />
    <glyph glyph-name="seven_up" unicode="&#xe007;" horiz-adv-x="352" 
d="M40 678v60h260l12 -28l-176 -426l-71 15l165 379h-190z" />
    <glyph glyph-name="eight_up" unicode="&#xe008;" horiz-adv-x="381" 
d="M262 641q0 26 -22 41t-50 15q-30 0 -50.5 -14.5t-20.5 -41.5q0 -45 75 -81q21 11 33.5 20t23.5 25t11 36zM341 409q0 -57 -45 -91.5t-106 -34.5q-63 0 -106.5 33.5t-43.5 92.5q0 74 87 119q-75 45 -75 113q0 52 41 83.5t97 31.5q57 0 98 -30.5t41 -84.5q0 -41 -20 -65.5
t-58 -44.5q90 -49 90 -122zM273 411q0 20 -16 38.5t-31 27t-40 21.5q-78 -38 -78 -87q0 -32 24 -50.5t58 -18.5t58.5 18.5t24.5 50.5z" />
    <glyph glyph-name="nine_up" unicode="&#xe009;" horiz-adv-x="402" 
d="M206 756q156 -3 156 -189q0 -73 -17 -134.5t-60 -105.5t-105 -44q-71 0 -121 38l27 47q40 -26 88 -26q89 0 103 127q-31 -22 -79 -22q-70 0 -113.5 42t-44.5 109q1 77 46.5 117.5t119.5 40.5zM204 507q46 0 79 33q0 5 0.5 19.5t0.5 21.5q0 117 -79 117q-39 0 -62.5 -26.5
t-23.5 -72.5q0 -38 21.5 -65t63.5 -27z" />
    <glyph glyph-name="dvoyezapyatie" unicode="&#xe014;" horiz-adv-x="227" 
d="M181 58q0 -12 -12.5 -42.5t-26 -58.5t-31.5 -62.5t-21 -40.5h-67l68 142q-23 2 -37 20t-14 42q0 29 20 48.5t50 19.5q29 0 50 -20t21 -48zM185 472q0 -12 -12 -41.5t-25 -56.5t-30.5 -60.5t-20.5 -39.5h-67l65 136q-23 2 -37 20t-14 42q0 29 20 48.5t50 19.5q29 0 50 -20
t21 -48z" />
    <glyph glyph-name="uniE015" unicode="&#xe015;" horiz-adv-x="319" 
d="M-70 -133l375 896l64 -15l-375 -897z" />
    <glyph glyph-name="_640" unicode="&#xe01a;" horiz-adv-x="745" 
d="M231 610l70 -601l435 937l52 -23l-518 -1111h-24l-96 723l-110 -24l-10 52z" />
    <glyph glyph-name="_642" unicode="&#xe1ee;" horiz-adv-x="539" 
d="M508 0h-101l-51 158h-188l-54 -158h-84l204 581h74zM339 225l-73 237l-78 -237h151z" />
    <glyph glyph-name="_641" unicode="&#xe1ef;" horiz-adv-x="492" 
d="M356 185q0 100 -93 100h-94v-219h93q46 0 70 32.5t24 86.5zM449 184q0 -81 -55.5 -132.5t-144.5 -51.5h-175v565h333v-66h-238v-148h90q190 0 190 -167z" />
    <glyph glyph-name="_643" unicode="&#xe1f1;" horiz-adv-x="521" 
d="M468 162q0 -77 -52 -119.5t-129 -42.5h-213v565h227q62 0 102.5 -34.5t40.5 -101.5q0 -51 -29.5 -85t-77.5 -44q131 -25 131 -138zM345 416q0 41 -24 62t-65 21h-86v-171h86q42 0 65.5 23.5t23.5 64.5zM370 163q0 50 -30 74.5t-81 24.5h-89v-196h89q111 0 111 97z" />
    <glyph glyph-name="uniF639" unicode="&#xf639;" horiz-adv-x="650" 
d="M590 369q0 -54 -7.5 -105t-26.5 -103t-48 -90.5t-76 -63t-107 -24.5t-107 24.5t-76 63t-48 90.5t-26.5 103t-7.5 105t7.5 105t26.5 103t48 90.5t76 63t107 24.5t107 -24.5t76 -63t48 -90.5t26.5 -103t7.5 -105zM492 369q0 48 -7 95t-23.5 99t-51.5 84.5t-85 32.5
t-85 -32.5t-51.5 -84.5t-23.5 -99t-7 -95t7 -95.5t23.5 -99.5t51.5 -84.5t85 -32.5t85 32.5t51.5 84.5t23.5 99.5t7 95.5z" />
    <glyph glyph-name="uniF63A" unicode="&#xf63a;" horiz-adv-x="576" 
d="M60 72q12 13 61 62t75 76t68.5 78t65.5 89t41 85.5t18 89.5q0 58 -36.5 89t-85.5 31q-75 0 -154 -64l-45 55q38 43 96.5 67.5t116.5 24.5q89 0 150.5 -52t61.5 -151q0 -49 -22.5 -105t-53 -101.5t-78 -99t-80 -85.5t-76.5 -73h320v-88h-443v72z" />
    <glyph glyph-name="uniF63B" unicode="&#xf63b;" horiz-adv-x="565" 
d="M73 738h412l13 -62l-242 -237q118 0 183.5 -59.5t65.5 -148.5q0 -112 -79 -180t-194 -68q-109 0 -187 58l31 60q79 -48 150 -48q83 0 132 46t49 125q0 65 -47.5 103t-111.5 38q-34 0 -81 -9l-25 63l231 236h-300v83z" />
    <glyph glyph-name="uniF63C" unicode="&#xf63c;" horiz-adv-x="570" 
d="M552 259l-125 -12v-247h-98v244l-286 -15l-25 46l327 477l82 -14v-429h125v-50zM329 309v302l-206 -302h206z" />
    <glyph glyph-name="uniF63D" unicode="&#xf63d;" horiz-adv-x="561" 
d="M211 649l-32 -183q33 5 60 5q111 0 181.5 -61t70.5 -164q0 -122 -78.5 -192t-188.5 -70q-98 0 -174 52l27 61q74 -39 140 -39q68 0 121 48t53 131q0 82 -47.5 120.5t-121.5 38.5q-63 0 -122 -24q-15 23 -16 23l55 343h342v-89h-270z" />
    <glyph glyph-name="uniF63E" unicode="&#xf63e;" horiz-adv-x="610" 
d="M154 294q0 -40 7 -78t23 -75.5t48 -60.5t76 -23q65 0 105.5 52t40.5 125q0 81 -42.5 124t-105.5 43q-86 0 -151 -71q-1 -12 -1 -36zM554 236q0 -104 -69 -177.5t-178 -75.5h-1q-250 0 -250 340q0 79 18.5 154.5t54 138.5t94 101.5t130.5 38.5q100 0 167 -52l-37 -72
q-67 49 -133 49q-47 0 -82.5 -23.5t-57 -65t-33 -86t-17.5 -98.5q70 63 163 63q94 0 162.5 -63.5t68.5 -171.5z" />
    <glyph glyph-name="uniF63F" unicode="&#xf63f;" horiz-adv-x="504" 
d="M43 646v92h412l15 -35l-287 -723l-95 21l276 645h-321z" />
    <glyph glyph-name="uniF640" unicode="&#xf640;" horiz-adv-x="610" 
d="M548 183q0 -91 -72.5 -145.5t-171.5 -54.5q-102 0 -171 53t-69 147q0 67 47.5 119t112.5 82q-67 35 -103.5 78t-36.5 112q0 83 64.5 132t155.5 49q94 0 159 -47.5t65 -133.5q0 -69 -37.5 -110.5t-105.5 -75.5q163 -79 163 -205zM441 573q0 49 -41.5 79t-95.5 30
q-56 0 -94.5 -28.5t-38.5 -80.5q0 -83 143 -148q31 16 48 26.5t38.5 28.5t31 41t9.5 52zM461 185q0 29 -14.5 54t-44.5 46.5t-49 32t-55 28.5q-32 -15 -53 -28t-45 -32.5t-36 -45t-12 -55.5q0 -59 44.5 -94t107.5 -35q64 0 110.5 35t46.5 94z" />
    <glyph glyph-name="uniF641" unicode="&#xf641;" horiz-adv-x="598" 
d="M306 755q236 -5 236 -306q0 -87 -15.5 -167t-46.5 -148.5t-86 -109.5t-126 -41q-109 0 -177 56l29 58q62 -40 138 -40q159 0 177 256q-24 -23 -67.5 -38t-76.5 -15q-105 0 -169 66.5t-66 175.5q3 122 71.5 187.5t178.5 65.5zM301 334q40 0 79 18t63 48q4 40 4 73
q0 210 -144 210q-66 0 -106 -48t-40 -131q0 -70 37.5 -120t106.5 -50z" />
    <glyph glyph-name="commaaccent" unicode="&#xf6c3;" horiz-adv-x="177" 
d="M157 -104q0 -21 -69 -154h-58l51 106q-36 11 -36 48q0 22 16.5 38t39.5 16t39.5 -16t16.5 -38z" />
    <glyph glyph-name="uniF6DC" unicode="&#xf6dc;" horiz-adv-x="500" 
d="M61 568l-18 42l216 128h63v-665l133 -24v-49h-365v49l133 24v555l-41 -15l-80 -30z" />
    <glyph glyph-name="zerooldstyle" unicode="&#xf730;" horiz-adv-x="610" 
d="M305 -17q-120 0 -194 80t-74 201t74 201.5t194 80.5t194 -80.5t74 -201.5t-74 -201t-194 -80zM305 471q-80 0 -125 -62t-45 -145t45 -145t125 -62t125 62t45 145t-45 145t-125 62z" />
    <glyph glyph-name="oneoldstyle" unicode="&#xf731;" horiz-adv-x="610" 
d="M273 436l-157 -60l-18 42q13 8 35 21.5t68.5 41.5t76.5 47l31 18h63v-473q18 0 143 -20v-53h-385v53q125 20 143 20v363z" />
    <glyph glyph-name="twooldstyle" unicode="&#xf732;" horiz-adv-x="544" 
d="M109 415l-44 53q79 79 197 79q75 0 131.5 -38.5t56.5 -113.5q0 -76 -57 -139.5t-219 -167.5h302v-88h-411v78q174 134 228 195t54 114q0 45 -27 66t-64 21q-75 0 -147 -59z" />
    <glyph glyph-name="threeoldstyle" unicode="&#xf733;" horiz-adv-x="610" 
d="M511 2q0 -60 -28 -110t-70.5 -82.5t-100.5 -56.5t-111 -36t-109 -18l-12 60q63 9 118.5 25.5t105.5 43t79.5 68.5t29.5 94q0 69 -43.5 110t-124.5 41q-29 0 -93 -10l-14 64q29 6 51.5 11.5t54 15.5t54 23.5t44.5 31t33 42t11 53.5q0 46 -28 71.5t-76 25.5q-80 0 -170 -84
l-44 58q98 103 219 103q78 0 137.5 -44t59.5 -124q0 -65 -39.5 -114t-102.5 -73q72 -11 120.5 -64t48.5 -125z" />
    <glyph glyph-name="fouroldstyle" unicode="&#xf734;" horiz-adv-x="610" 
d="M577 32l-130 -12v-252h-98v249l-300 -15l-25 46l341 497l82 -14v-449h130v-50zM349 82v322l-220 -322h220z" />
    <glyph glyph-name="fiveoldstyle" unicode="&#xf735;" horiz-adv-x="612" 
d="M196 289q48 0 93 -7.5t89 -25.5t76.5 -44.5t53 -69.5t20.5 -96q0 -68 -39 -128t-102 -102.5t-135 -71.5t-147 -43l-15 60q130 21 234.5 100.5t104.5 180.5q0 48 -23.5 83.5t-64 54.5t-85.5 28t-95 9q-19 0 -51 -2l42 316h360v-88h-292z" />
    <glyph glyph-name="sixoldstyle" unicode="&#xf736;" horiz-adv-x="610" 
d="M163 333q-10 -30 -10 -71q0 -49 12.5 -92.5t48.5 -78t91 -34.5q69 0 109.5 54t40.5 136q0 66 -34 110.5t-102 44.5q-87 0 -156 -69zM296 -17q-113 5 -176.5 81t-63.5 192q0 202 116.5 338t315.5 209l21 -54q-130 -61 -208.5 -138t-113.5 -186q68 49 149 49q88 0 153 -63
t65 -173q0 -111 -74 -183t-184 -72z" />
    <glyph glyph-name="sevenoldstyle" unicode="&#xf737;" horiz-adv-x="610" 
d="M529 449l-300 -684l-65 12l262 664h-343v90h421z" />
    <glyph glyph-name="eightoldstyle" unicode="&#xf738;" horiz-adv-x="610" 
d="M441 573q0 49 -39 80t-93 31q-58 0 -98 -29t-40 -82q0 -83 143 -148q31 16 48 26.5t38.5 28.5t31 41t9.5 52zM548 183q0 -91 -72.5 -145.5t-171.5 -54.5q-102 0 -171 53t-69 147q0 67 47.5 119t112.5 82q-67 35 -103.5 78t-36.5 112q0 83 64.5 132t155.5 49
q94 0 159 -47.5t65 -133.5q0 -69 -37.5 -110.5t-105.5 -75.5q163 -79 163 -205zM461 185q0 29 -14.5 54t-44.5 46.5t-49 32t-55 28.5q-32 -15 -53 -28t-45 -32.5t-36 -45t-12 -55.5q0 -59 44.5 -94t107.5 -35q64 0 110.5 35t46.5 94z" />
    <glyph glyph-name="nineoldstyle" unicode="&#xf739;" horiz-adv-x="610" 
d="M455 293q0 79 -34 128t-110 52q-73 0 -114.5 -51.5t-41.5 -128.5q0 -70 41 -119.5t104 -49.5q83 0 147 72q8 48 8 97zM554 273q0 -204 -119.5 -348.5t-322.5 -218.5l-22 56q259 114 332 342q-69 -51 -148 -51q-89 0 -153.5 66.5t-64.5 173.5q0 104 69.5 178t178.5 75
q123 0 186.5 -76t63.5 -197z" />
    <glyph glyph-name="ff" unicode="&#xfb00;" horiz-adv-x="663" 
d="M713 772l-30 -54q-39 25 -84 25q-61 0 -83 -51.5t-22 -165.5h168v-42l-168 -25v-459h-95v480l-203 -21v-459h-95v459h-71v67h71q0 118 57 193t168 75q67 0 137 -31q46 43 130 43q70 0 120 -34zM399 526q0 135 32 195q-37 15 -75 15q-160 0 -160 -210h203z" />
    <glyph glyph-name="ffl" unicode="&#xfb04;" horiz-adv-x="911" 
d="M494 459v-459h-95v480l-203 -21v-459h-95v459h-71v67h71q0 118 57 193t168 75q75 0 156 -38q55 50 139 50q49 0 114 -25h95v-781h-95v721q-47 22 -101 22q-140 0 -140 -217h168v-42zM399 526q0 114 47 187q-44 23 -95 23q-80 0 -117.5 -58.5t-37.5 -151.5h203z" />
    <glyph glyph-name="afii10045_stressmark" horiz-adv-x="821" 
d="M726 0h-97v738h97v-738zM535 230q0 -103 -69.5 -166.5t-172.5 -63.5h-198v738h97v-294h101q104 0 173 -56.5t69 -157.5zM437 230q0 64 -43 104t-108 40h-94v-296h94q65 0 108 43.5t43 108.5zM349 784l-34 33l145 152l93 -53z" />
    <glyph glyph-name="afii10047_stressmark" horiz-adv-x="610" 
d="M570 378q0 -74 -19 -142.5t-56 -126t-98.5 -92t-138.5 -34.5q-135 0 -228 86q6 11 18 32l16 28q77 -64 181 -64q72 0 123.5 44t74 106t25.5 135h-283v74h284v10q0 43 -10.5 82.5t-33 76.5t-66 59.5t-102.5 22.5q-87 0 -157 -53q-7 13 -21.5 36t-18.5 30q75 67 199 67
q68 0 122 -20t89 -54.5t58 -83.5t32.5 -103t9.5 -116zM232 770l-34 33l145 152l93 -53z" />
    <glyph glyph-name="afii10048_stressmark" horiz-adv-x="926" 
d="M886 370q0 -71 -12.5 -133.5t-42 -122.5t-88 -95.5t-141.5 -35.5q-62 0 -111.5 21t-81.5 55t-54 81t-32 95t-13 101h-118v-336h-97v738h97v-331h119q4 67 20.5 125t48.5 110t89 82.5t133 30.5q67 0 118.5 -24t82 -62t50 -90.5t26.5 -102.5t7 -106zM796 370q0 55 -8 104
t-28 98t-60.5 78t-97.5 29q-58 0 -98.5 -29t-60.5 -78t-28.5 -98t-8.5 -104t8.5 -104t28.5 -98.5t60.5 -79t98.5 -29.5q57 0 97.5 29.5t60.5 79t28 98.5t8 104zM359 770l-34 33l145 152l93 -53z" />
    <glyph glyph-name="afii10049_stressmark" horiz-adv-x="604" 
d="M377 384v281h-76q-86 0 -130 -35.5t-44 -103.5q0 -61 36.5 -101.5t113.5 -40.5h100zM474 0h-97v310h-110l-137 -310h-110l151 329q-63 19 -101.5 73.5t-38.5 122.5q0 99 63.5 156t185.5 57h194v-738zM305 770l-34 33l145 152l93 -53z" />
    <glyph glyph-name="afii10032_stressmark" horiz-adv-x="678" 
d="M40 370q0 55 9.5 107.5t32 103.5t56 89t85.5 61.5t116 23.5t116 -23.5t85.5 -61.5t56 -89t32 -103.5t9.5 -107.5t-9.5 -108t-32 -104t-56 -89.5t-85.5 -62t-116 -23.5t-116 23.5t-85.5 62t-56 89.5t-32 104t-9.5 108zM137 370q0 -55 10.5 -106.5t32.5 -99.5t63 -77.5
t96 -29.5t96 29.5t63 77.5t32.5 99.5t10.5 106.5t-10.5 106.5t-32.5 99t-63 76.5t-96 29t-96 -29t-63 -76.5t-32.5 -99t-10.5 -106.5zM307 777l-34 33l145 152l93 -53z" />
    <glyph glyph-name="afii10026_stressmark" horiz-adv-x="715" 
d="M620 0h-97v593h-4l-318 -593h-106v738h97v-595h4l322 595h102v-738zM353 784l-34 33l145 152l93 -53z" />
    <glyph glyph-name="afii10022_stressmark" 
d="M511 0h-416v738h416v-75h-319v-239h259v-74h-259v-275h319v-75zM211 769l-34 33l145 152l93 -53z" />
    <glyph glyph-name="afii10017_stressmark" horiz-adv-x="561" 
d="M561 0h-102l-69 218h-243l-69 -218h-78q32 104 113.5 363t121.5 389h90q37 -119 118 -376t118 -376zM369 283l-100 327l-101 -327h201zM252 770l-34 33l145 152l93 -53z" />
    <glyph glyph-name="afii10097_stressmark" horiz-adv-x="525" 
d="M435 0h-95v200h-90l-120 -200h-100l128 211q-51 17 -80.5 57t-29.5 97q0 76 51 121.5t133 45.5h203v-532zM340 264v204h-100q-41 0 -69 -31t-28 -72q0 -42 28 -71.5t69 -29.5h100zM286 600l-53 21l73 180h112z" />
    <glyph glyph-name="afii10096_stressmark" horiz-adv-x="781" 
d="M746 266q0 -54 -14 -103t-42 -89.5t-77 -64.5t-112 -24q-108 0 -165.5 71t-66.5 177h-84v-233h-95v532h95v-231h83q3 102 64.5 173.5t168.5 71.5q84 0 141 -42t80.5 -103t23.5 -135zM646 266q0 38 -6.5 72.5t-22 67t-45.5 52t-71 19.5t-70.5 -20t-43.5 -53.5t-20 -67
t-6 -70.5q0 -38 6 -72t20 -67.5t43.5 -53t70.5 -19.5t71 19.5t45.5 52.5t22 67.5t6.5 72.5zM327 600l-53 21l73 180h112z" />
    <glyph glyph-name="afii10095_stressmark" horiz-adv-x="493" 
d="M450 269q0 -119 -68 -200.5t-177 -81.5q-86 0 -172 63l27 47q64 -43 133 -43q74 0 118 56.5t44 128.5h-218v68h218q0 79 -37 125.5t-109 46.5q-56 0 -124 -37l-26 58q67 47 155 47q118 0 177 -78t59 -200zM235 600l-53 21l73 180h112z" />
    <glyph glyph-name="afii10093_stressmark" horiz-adv-x="730" 
d="M640 0h-95v532h95v-532zM481 171q0 -77 -59 -124t-141 -47h-191v532h95v-189h97q87 0 143 -45t56 -127zM381 172q0 50 -30.5 78t-80.5 28h-85v-214h85q47 0 79 30.5t32 77.5zM354 600l-53 21l73 180h112z" />
    <glyph glyph-name="afii10085_stressmark" horiz-adv-x="519" 
d="M272 79l145 453h80l-184 -571q-2 -5 -11 -29.5t-12.5 -32.5t-13 -30t-15.5 -31t-17.5 -26t-22.5 -25t-25 -17.5t-31 -13t-36 -3.5q-53 0 -109 33l23 45q33 -19 66 -19q25 0 43.5 11t33.5 36t25.5 49.5t25.5 66.5q6 17 9 25h-54l-156 532h99q113 -427 122 -453h15z
M264 600l-53 21l73 180h112z" />
    <glyph glyph-name="afii10074_stressmark" horiz-adv-x="528" 
d="M468 0h-94v408l-244 -408h-94v532h94v-410l245 410h93v-532zM274 600l-53 21l73 180h112z" />
    <glyph glyph-name="notabene" horiz-adv-x="976" 
d="M671 0h-200l-314 573h-6v-573h-79v738h94l305 -558h6v558h194q87 0 150.5 -48t63.5 -134q0 -61 -38.5 -104t-99.5 -59l1 -2q74 -13 122.5 -60t48.5 -119q0 -100 -73 -156t-175 -56zM660 353h-103v-282h103q68 0 114.5 38t46.5 104q0 65 -46.5 102.5t-114.5 37.5zM657 664
h-100v-240h100q57 0 94 33t37 86q0 56 -38 88.5t-93 32.5z" />
    <glyph glyph-name="grave.case" horiz-adv-x="288" 
d="M258 817l-34 -33l-204 132l93 53z" />
    <glyph glyph-name="acute.case" horiz-adv-x="288" 
d="M64 784l-34 33l145 152l93 -53z" />
    <glyph glyph-name="circumflex.case" horiz-adv-x="377" 
d="M184 863l-128 -79l-36 53l164 110l163 -110l-36 -53z" />
    <glyph glyph-name="dieresis.case" horiz-adv-x="389" 
d="M146 848q0 -25 -19 -43.5t-45 -18.5q-25 0 -43.5 18.5t-18.5 43.5q0 26 18.5 45t43.5 19q26 0 45 -19t19 -45zM359 848q0 -25 -19 -43.5t-45 -18.5q-25 0 -43.5 18.5t-18.5 43.5q0 26 18.5 45t43.5 19t44.5 -19t19.5 -45z" />
    <glyph glyph-name="tilde.case" horiz-adv-x="410" 
d="M380 889q-41 -93 -104 -93q-33 0 -82 26.5t-67 26.5q-32 0 -78 -43l-29 18q23 40 58 66.5t72 26.5q25 0 75.5 -25.5t68.5 -25.5q24 0 55 35z" />
    <glyph glyph-name="ring.case" horiz-adv-x="275" 
d="M84 877q0 -20 13.5 -31t34.5 -11t34.5 11t13.5 31t-13 31t-34 11t-35 -11t-14 -31zM132 969q54 0 83.5 -27t29.5 -65q0 -39 -30.5 -65.5t-82.5 -26.5q-51 0 -81.5 26.5t-30.5 65.5t29.5 65.5t82.5 26.5z" />
    <glyph glyph-name="caron.case" horiz-adv-x="377" 
d="M183 868l128 79l36 -53l-164 -110l-163 110l36 53z" />
    <glyph glyph-name="macron.case" horiz-adv-x="316" 
d="M20 812l15 70h251l-15 -70h-251z" />
    <glyph glyph-name="cedilla.case" horiz-adv-x="206" 
d="M53 12h57l-8 -51q36 -6 55 -28.5t19 -53.5q0 -55 -46.5 -86.5t-106.5 -31.5l-3 49q35 0 59.5 16t24.5 40q0 39 -51 39q-9 0 -14 -1l-7 5z" />
    <glyph glyph-name="ogonek.case" horiz-adv-x="234" 
d="M151 15l47 -2q-93 -52 -93 -115q0 -25 15.5 -42t45.5 -17q12 0 32 5l16 -44q-31 -21 -75 -21q-46 0 -77.5 27t-31.5 78q0 48 35 81t86 50z" />
    <glyph glyph-name="breve.case" horiz-adv-x="353" 
d="M323 896q-35 -104 -151 -104q-119 0 -152 104l53 16q24 -49 99 -49q74 0 99 48z" />
    <glyph glyph-name="hungarumlaut.case" horiz-adv-x="397" 
d="M73 784l-43 15l75 182h116zM229 784l-43 15l75 182h116z" />
    <glyph glyph-name="dotaccent.case" horiz-adv-x="176" 
d="M146 848q0 -25 -19 -43.5t-45 -18.5q-25 0 -43.5 18.5t-18.5 43.5q0 26 18.5 45t43.5 19q26 0 45 -19t19 -45z" />
    <glyph glyph-name="commaaccent.case" horiz-adv-x="165" 
d="M145 -99q0 -11 -11.5 -37.5t-30.5 -62.5t-20 -38h-53l46 94q-32 11 -32 44q0 20 14.5 34.5t35.5 14.5t36 -14.5t15 -34.5z" />
    <glyph glyph-name="f_k" horiz-adv-x="856" 
d="M196 465v-465h-95v465h-71v67h71q0 75 21 134.5t72.5 99.5t128.5 40q49 0 114 -25h95v-469h15l198 220h93l-219 -243l237 -289h-118l-198 249h-8v-249h-95v721q-47 22 -101 22q-43 0 -72.5 -18t-43.5 -50.5t-19 -66t-5 -76.5h168v-42z" />
    <glyph glyph-name="c_t" horiz-adv-x="842" 
d="M815 490l-174 -25v-356q0 -56 43 -56q42 0 88 32l21 -46q-58 -53 -140 -53q-48 0 -77.5 37t-29.5 89v353h-71v67h71l30 134q-15 25 -42.5 38.5t-55.5 13.5q-64 0 -95.5 -40t-31.5 -102q0 -18 3 -38q35 -8 76 -31l-28 -61q-62 34 -109 34q-52 0 -87 -32.5t-48.5 -79
t-13.5 -103.5q0 -54 13.5 -99.5t51.5 -79.5t95 -34q65 0 125 42l18 -48q-65 -60 -166 -60q-102 0 -170 71.5t-68 192.5q0 129 64.5 212.5t182.5 83.5q-1 10 -1 32q0 83 47 138.5t137 55.5q54 0 102 -27.5t66 -73.5v-139h174v-42z" />
    <glyph glyph-name="zero_down" horiz-adv-x="420" 
d="M210 399q-86 0 -86 -173q0 -78 21 -133.5t65 -55.5t65 55.5t21 133.5q0 173 -86 173zM210 450q62 0 102 -37t54 -86t14 -108q0 -43 -9 -82t-27.5 -74t-53 -56t-80.5 -21t-80.5 21t-53 56t-27.5 74t-9 82q0 59 14 108t54 86t102 37z" />
    <glyph glyph-name="one_down" horiz-adv-x="349" 
d="M309 0h-236v42l79 12v309l-96 -36l-16 34l136 77h55v-384l78 -12v-42z" />
    <glyph glyph-name="two_down" horiz-adv-x="367" 
d="M40 51q52 50 76 75t58.5 65.5t49 73t14.5 63.5q0 30 -20.5 46.5t-47.5 16.5q-45 0 -92 -40l-38 43q58 60 140 60q59 0 100.5 -32.5t41.5 -93.5q0 -42 -34.5 -95.5t-67 -86.5t-82.5 -78h189v-68h-287v51z" />
    <glyph glyph-name="tree_down" horiz-adv-x="373" 
d="M59 438h261l10 -47l-135 -128q65 -6 101.5 -42t36.5 -87q0 -68 -49.5 -109.5t-121.5 -41.5q-68 0 -122 39l26 48q52 -31 93 -31q44 0 69 24.5t25 66.5q0 36 -25 56.5t-61 20.5q-23 0 -49 -8l-18 48l127 125h-168v66z" />
    <glyph glyph-name="four_down" horiz-adv-x="436" 
d="M396 144l-75 -7v-136h-79v134l-183 -9l-19 34l222 293l59 -8v-259h75v-42zM242 186v168l-116 -168h116z" />
    <glyph glyph-name="five_down" horiz-adv-x="363" 
d="M97 438h214v-66h-158q-14 -81 -15 -85q8 1 26 1q68 -1 113.5 -40.5t45.5 -103.5q0 -75 -50.5 -118t-119.5 -43q-65 0 -113 34l23 49q43 -25 83 -25q45 0 73 25.5t28 70.5q0 49 -29.5 71t-73.5 22q-36 0 -70 -12l-11 15z" />
    <glyph glyph-name="six_down" horiz-adv-x="402" 
d="M117 190q0 -22 1 -37t5.5 -38.5t13 -38t25.5 -25.5t41 -11q36 0 58.5 28.5t22.5 69.5q0 44 -23.5 68t-58.5 24q-45 0 -85 -40zM362 139q0 -65 -44.5 -110t-115.5 -46q-162 0 -162 207q0 105 51 185.5t140 80.5q64 0 111 -37l-30 -51q-37 28 -82 28q-88 0 -107 -136
q37 26 89 26q60 0 105 -39.5t45 -107.5z" />
    <glyph glyph-name="seven_down" horiz-adv-x="352" 
d="M40 378v60h260l12 -28l-176 -426l-71 15l165 379h-190z" />
    <glyph glyph-name="eight_down" horiz-adv-x="381" 
d="M262 341q0 26 -22 41t-50 15q-30 0 -50.5 -14.5t-20.5 -41.5q0 -45 75 -81q21 11 33.5 20t23.5 25t11 36zM341 109q0 -57 -45 -91.5t-106 -34.5q-63 0 -106.5 33.5t-43.5 92.5q0 74 87 119q-75 45 -75 113q0 52 41 83.5t97 31.5q57 0 98 -30.5t41 -84.5q0 -41 -20 -65.5
t-58 -44.5q90 -49 90 -122zM273 111q0 20 -16 38.5t-31 27t-40 21.5q-78 -38 -78 -87q0 -32 24 -50.5t58 -18.5t58.5 18.5t24.5 50.5z" />
    <glyph glyph-name="nine_down" horiz-adv-x="402" 
d="M206 456q156 -3 156 -189q0 -73 -17 -134.5t-60 -105.5t-105 -44q-71 0 -121 38l27 47q40 -26 88 -26q89 0 103 127q-31 -22 -79 -22q-70 0 -113.5 42t-44.5 109q1 77 46.5 117.5t119.5 40.5zM204 207q46 0 79 33q0 5 0.5 19.5t0.5 21.5q0 117 -79 117q-39 0 -62.5 -26.5
t-23.5 -72.5q0 -38 21.5 -65t63.5 -27z" />
    <glyph glyph-name="@2" horiz-adv-x="849" 
d="M596 -10q-77 0 -95 56q-59 -55 -124 -55q-60 0 -93.5 34.5t-33.5 93.5q3 72 57 104t128 32q32 0 65 -5q0 58 -18.5 86.5t-68.5 28.5q-51 0 -105 -31l-12 62q48 27 120 27q153 0 153 -154l-6 -174q1 -21 13.5 -34t29.5 -13q55 0 90.5 61.5t35.5 152.5q0 132 -83 205.5
t-210 73.5q-81 0 -145.5 -30t-103 -80t-58.5 -110.5t-20 -125.5q0 -137 81.5 -232.5t226.5 -95.5q103 0 220 56l22 -53q-129 -61 -246 -61q-162 0 -267.5 108.5t-105.5 268.5q0 173 109.5 294t288.5 121q159 0 258 -93t99 -244q0 -125 -58 -199.5t-144 -74.5zM497 104l3 98
q-9 1 -32 1q-65 0 -107.5 -20t-42.5 -64q0 -34 20.5 -51.5t49.5 -17.5q51 0 109 54z" />
    <glyph glyph-name="afii10080_stressmark" horiz-adv-x="580" 
d="M538 265q0 -119 -62 -199t-186 -80t-186 80t-62 199q0 120 62.5 200.5t185.5 80.5t185.5 -80.5t62.5 -200.5zM438 265q0 40 -7 75.5t-23 69t-46.5 53.5t-71.5 20t-71.5 -20t-46.5 -53.5t-23 -69t-7 -75.5q0 -55 11.5 -100t46.5 -80.5t90 -35.5t90 35.5t46.5 80.5
t11.5 100zM274 600l-53 21l73 180h112z" />
    <glyph glyph-name="one_slash_three" horiz-adv-x="0" 
 />
    </font>
</defs>
</svg>
